<svg width="1020" height="176" viewBox="0 0 1020 176" fill="none" xmlns="http://www.w3.org/2000/svg">
<path d="M0 172.622V42.8444H24.823V172.622H0Z" fill="white"/>
<path d="M81.8412 172.622V65.0666H44.9563V42.8444H143.549V65.0666H106.664V172.622H81.8412Z" fill="white"/>
<path d="M163.364 172.622V41.9555H207.416C223.499 41.9555 235.91 45.9259 244.651 53.8666C253.508 61.6889 257.936 72.3555 257.936 85.8666V88.7111C257.936 102.222 253.508 112.948 244.651 120.889C235.91 128.83 223.499 132.8 207.416 132.8H188.187V172.622H163.364ZM209.514 63.8222H188.187V110.933H209.514C216.973 110.933 222.683 108.741 226.645 104.356C230.724 99.9703 232.764 94.2815 232.764 87.2889C232.764 80.2963 230.724 74.6666 226.645 70.4C222.683 66.0148 216.973 63.8222 209.514 63.8222Z" fill="white"/>
<path d="M278.425 172.622V41.9555H325.798C341.065 41.9555 353.243 45.4518 362.334 52.4444C371.424 59.437 375.969 70.0444 375.969 84.2666V87.2889C375.969 97.0074 373.755 105.007 369.326 111.289C365.014 117.57 359.012 122.193 351.321 125.156L385.409 172.622H356.39L326.323 129.244H325.798H303.248V172.622H278.425ZM328.42 63.4666H303.248V108.8H328.42C335.18 108.8 340.599 106.726 344.678 102.578C348.757 98.4296 350.796 92.9777 350.796 86.2222C350.796 79.4666 348.757 74.0148 344.678 69.8666C340.599 65.6 335.18 63.4666 328.42 63.4666Z" fill="white"/>
<path d="M462.493 176C450.956 176 440.933 173.926 432.426 169.778C423.918 165.63 416.868 160.237 411.274 153.6C405.796 146.844 401.717 139.615 399.037 131.911C396.357 124.089 395.016 116.563 395.016 109.333V105.422C395.016 97.4815 396.415 89.6 399.212 81.7778C402.009 73.9555 406.204 66.8444 411.798 60.4444C417.509 53.9259 424.559 48.7703 432.95 44.9777C441.341 41.0666 451.189 39.1111 462.493 39.1111C473.564 39.1111 483.295 41.0666 491.686 44.9777C500.194 48.7703 507.244 53.9259 512.838 60.4444C518.432 66.8444 522.628 73.9555 525.425 81.7778C528.338 89.6 529.795 97.4815 529.795 105.422V109.333C529.795 116.563 528.396 124.089 525.599 131.911C522.919 139.615 518.782 146.844 513.188 153.6C507.711 160.237 500.718 165.63 492.211 169.778C483.82 173.926 473.914 176 462.493 176ZM462.493 152.533C471.117 152.533 478.576 150.518 484.869 146.489C491.162 142.341 495.998 136.83 499.378 129.956C502.874 123.081 504.622 115.615 504.622 107.556C504.622 99.0222 502.874 91.3777 499.378 84.6222C495.998 77.7481 491.162 72.3555 484.869 68.4444C478.576 64.5333 471.117 62.5778 462.493 62.5778C453.753 62.5778 446.236 64.5333 439.943 68.4444C433.649 72.3555 428.755 77.7481 425.258 84.6222C421.879 91.3777 420.189 99.0222 420.189 107.556C420.189 115.615 421.879 123.081 425.258 129.956C428.638 136.83 433.475 142.341 439.768 146.489C446.177 150.518 453.753 152.533 462.493 152.533Z" fill="white"/>
<path d="M553.785 172.622V42.8444H628.604V64.1778H578.608V97.2444L626.156 97.0666V118.4L578.608 118.578V172.622H553.785Z" fill="white"/>
<path d="M651.953 172.622V42.8444H676.776V172.622H651.953Z" fill="white"/>
<path d="M733.794 172.622V65.0666H696.909V42.8444H795.502V65.0666H758.617V172.622H733.794Z" fill="white"/>
<path d="M844.306 176C844.306 93.0328 844.306 51.5492 870.036 25.7746C895.766 0 937.177 0 1020 0C1020 82.9672 1020 124.451 994.27 150.225C968.54 176 927.129 176 844.306 176Z" fill="#FD0037"/>
</svg>
