<svg width="504" height="158" viewBox="0 0 504 158" fill="none" xmlns="http://www.w3.org/2000/svg">
<path d="M258.842 66.4855H247.828V30.373H235.812V66.4855H224.797V30.373H212.781V77.623H270.521V30.373H258.505V66.4855H258.842Z" fill="white"/>
<path d="M313.581 50.9586L296.225 30.3711H290.885V77.621H302.901V55.6836L312.246 67.4961H314.583L323.928 55.6836V77.621H335.944V30.3711H330.604L313.581 50.9586Z" fill="white"/>
<path d="M368.654 58.725H385.009V47.925H368.654V41.175H386.344V30.375H356.638V77.625H386.678V66.4875H368.654V58.725Z" fill="white"/>
<path d="M408.374 63.1086C408.04 67.162 407.038 68.1711 404.368 68.1711C403.701 68.1711 403.367 68.1711 402.699 68.1711H401.364L401.031 77.6211H402.028C404.031 77.9586 405.703 77.9586 407.703 77.9586C415.713 77.9586 419.051 74.2495 420.052 63.7869L422.055 41.5086H431.735V77.6211H443.751V30.3711H411.708L408.374 63.1086Z" fill="white"/>
<path d="M484.474 44.2125H476.13V30.375H464.448V77.625H484.474C493.486 77.9625 501.163 71.2125 501.497 62.1C501.497 61.7625 501.497 61.425 501.497 61.0875C501.497 52.65 495.489 44.2125 484.474 44.2125ZM488.483 65.1375C487.482 66.15 486.146 66.825 484.478 66.825H476.133V55.35H484.478C487.481 55.35 489.818 57.7125 489.818 60.7534V61.0909C489.815 62.4375 489.481 64.125 488.483 65.1375Z" fill="white"/>
<path d="M91.284 0C120.656 0 144.688 24.3 144.688 54C144.688 83.7 120.656 108 91.284 108C61.9118 108 37.88 83.7 37.88 54C37.88 24.3 61.578 0 91.284 0ZM134.675 54C134.675 31.725 118.323 13.1625 96.2906 10.4625V50.9625L131.003 71.2125C133.34 65.8125 134.675 60.075 134.675 54ZM86.2807 10.4625C62.5794 13.1625 45.5568 35.1 48.2304 59.0591C48.5641 63.4466 49.8992 67.4966 51.5681 71.5466L86.2807 51.2966V10.4625ZM91.284 97.875C104.969 97.875 117.986 91.4591 125.997 80.3216L91.284 60.0716L56.5714 80.3216C64.582 91.4591 77.2654 97.875 91.284 97.875Z" fill="white"/>
<path d="M119.321 47.2492C119.989 47.2492 118.323 47.2492 121.991 46.5742C134.341 44.8867 146.357 42.1867 158.373 38.8117C166.05 36.7867 179.067 33.4117 176.397 23.9617L174.728 17.8867C158.039 25.6492 140.683 31.7276 122.659 36.4492C117.318 38.1367 115.65 42.8617 119.321 47.2492Z" fill="white"/>
<path d="M119.655 49.9511H118.987C118.323 49.9511 117.989 49.6136 117.318 48.9386C114.982 46.5761 113.981 43.2011 114.982 40.1636C115.983 36.7886 118.653 34.4261 121.991 33.7511C139.681 29.0261 157.038 22.9511 174.06 15.1886C175.395 14.5136 177.064 15.1886 177.732 16.5386V16.8761L179.401 23.2886C180.068 25.9886 180.068 28.6886 178.733 31.3886C175.395 37.1261 166.717 39.8261 160.042 41.5136H159.374C147.358 44.8886 135.008 47.5886 122.659 49.2761L120.99 49.6136C120.656 49.9511 119.989 49.9511 119.655 49.9511ZM173.062 21.6011C157.041 28.6886 140.352 34.7636 123.33 39.1511C121.995 39.4886 120.659 40.5011 119.992 41.8511C119.992 42.5261 119.992 43.2011 120.326 43.8761L121.661 43.5386C133.677 41.8511 146.026 39.1511 157.708 35.7761H158.376C163.716 34.4261 171.393 32.0602 173.733 28.3511C174.401 27.3386 174.401 25.9886 174.067 24.6386L173.062 21.6011Z" fill="#231F1F"/>
<path d="M135.676 56.0213C144.354 55.6838 148.693 55.3463 157.372 54.3338C164.381 53.6588 169.387 48.9338 168.386 44.5463L167.385 39.8213C152.031 43.8713 136.01 46.5713 120.323 47.9213C123.33 52.6497 126.998 56.0213 135.676 56.0213Z" fill="white"/>
<path d="M135.676 58.7246C125.997 58.7246 121.324 55.0121 117.652 49.2746C116.651 47.9246 116.985 46.2371 118.32 45.2246C118.65 44.8871 118.984 44.8871 119.652 44.8871C135.339 43.5371 151.026 40.8371 166.38 36.7871C167.715 36.4496 169.381 37.4621 169.718 38.8121V39.4871L170.719 43.5371C171.387 45.8996 170.719 48.5996 169.384 50.6246C166.383 54.3371 162.044 56.703 157.368 57.0371C149.027 58.0462 144.354 58.3837 135.676 58.7246ZM125.329 49.9496C127.665 51.9746 130.669 52.9871 135.342 52.9871C144.02 52.6496 148.36 52.3121 156.704 51.2996C159.708 51.2996 162.712 49.6121 164.715 47.2496C165.382 46.5746 165.382 45.5621 165.382 44.5496L165.048 42.8621C152.031 46.5746 138.68 48.9371 125.329 49.9496Z" fill="#231F1F"/>
<path d="M62.9132 47.2492C62.2457 47.2492 63.9145 47.2492 60.243 46.5742C47.8933 44.8867 35.8775 42.1867 23.8616 38.8117C16.1848 36.4492 3.16756 33.4117 5.83776 23.9617L7.50663 17.8867C24.5292 25.6492 41.8854 31.7276 59.9093 36.7867C64.9159 38.1367 66.5848 42.8617 62.9132 47.2492Z" fill="white"/>
<path d="M62.5794 49.95C61.9118 49.95 61.578 49.95 60.9105 49.6125L59.2416 49.275C46.892 47.5875 34.5423 44.8875 22.5264 41.5125H21.8588C15.8509 39.4875 7.17273 37.125 3.83498 31.3875C2.49989 28.6875 2.1661 25.9841 2.83365 23.2875L4.50252 17.2125C4.8363 15.8625 6.50517 14.85 7.84027 15.1875H8.17407C25.1966 22.95 42.5562 29.025 60.2463 33.75C63.584 34.425 66.2542 37.125 67.2556 40.1625C67.9231 43.2 66.9217 46.575 64.9191 48.9375C64.5853 49.275 63.9178 49.6125 63.2502 49.95C63.2469 49.95 62.9131 49.95 62.5794 49.95ZM9.1754 21.6L8.50781 24.975C7.84026 25.9875 8.17406 27.3375 8.84161 28.6875C10.8443 32.4 18.8548 34.7625 24.1986 36.1125L24.8628 36.45C36.5449 39.825 48.8979 42.525 60.9138 44.2125L62.2489 44.55C62.5827 43.875 62.5827 43.2 62.5827 42.525C61.9151 41.175 60.9138 40.1625 59.2449 39.825C41.8853 34.7625 25.1966 29.0216 9.1754 21.6Z" fill="#231F1F"/>
<path d="M46.8919 56.0213C38.2104 55.6838 33.8747 55.3463 25.1966 54.3338C18.1873 53.6588 13.1807 48.9338 14.182 44.5463L15.1833 39.8213C30.5403 43.8713 46.5582 46.5713 62.249 47.9213C59.2416 52.6497 55.2363 56.0213 46.8919 56.0213Z" fill="white"/>
<path d="M46.8919 58.7248C38.2104 58.3839 33.5409 58.0498 24.8595 57.0373C20.1866 56.6998 15.8476 54.3373 12.8436 50.6248C11.5085 48.5998 10.8409 45.8998 11.5085 43.5373L12.5098 39.8248V39.1498C12.8436 37.8032 14.1787 36.7873 15.8475 37.1248C31.2012 41.1748 46.8886 43.8748 62.9098 45.2248C64.5787 45.2248 65.58 46.9123 65.2462 48.2623C65.2462 48.5998 64.9124 49.2748 64.9124 49.6123C61.2442 55.0123 56.5714 58.7248 46.8919 58.7248ZM17.186 43.1998L16.8522 44.8873C16.5184 45.8998 16.8522 46.5748 17.5198 47.5873C19.5224 49.9498 22.5264 51.2998 25.527 51.6373C34.2051 52.6498 38.5442 52.9873 46.8886 53.3248C51.5615 53.3248 54.5654 52.3123 56.9019 50.2873C43.5542 48.5998 30.2032 46.5748 17.186 43.1998Z" fill="#231F1F"/>
<path d="M66.9185 61.4219C66.5847 69.8594 72.5927 75.5969 83.941 75.5969H98.9609C109.975 75.5969 116.317 69.8594 115.983 61.4219C99.298 62.1002 82.9397 62.1002 66.9185 61.4219Z" fill="white"/>
<path d="M98.6271 78.2997H83.6072C76.9317 78.2997 71.2576 76.2713 67.9198 72.5588C65.2496 69.5247 63.5807 65.4713 63.9112 61.0872V58.3838H66.5814C82.6026 59.3997 98.9575 59.3997 114.979 58.3838H117.649L117.983 61.4213C118.316 65.4713 116.981 69.8588 113.977 72.8963C110.98 76.2713 105.303 78.2997 98.6271 78.2997ZM69.9225 64.1247C70.2563 65.8122 70.9238 67.1622 72.2589 68.5122C74.5953 71.2122 78.9344 72.5622 83.941 72.5622H98.9609C103.968 72.5622 108.307 71.2155 110.643 68.5122C111.644 67.1655 112.646 65.8122 112.979 64.1247C98.2933 65.1372 83.941 65.1372 69.9225 64.1247Z" fill="#231F1F"/>
<path d="M108.64 45.2256C96.9582 45.5631 85.2761 45.5631 73.594 45.2256L69.9225 51.6381C68.2536 54.6756 66.9185 58.0506 66.5847 61.4256C82.9397 62.4415 98.9609 62.4415 115.316 61.4256C114.982 58.0506 113.981 54.6756 111.978 51.6381L108.64 45.2256Z" fill="#F26722"/>
<path d="M91.284 64.7994C83.2734 64.7994 74.929 64.4585 66.9184 64.1244H64.2483V61.4244C64.5821 57.3744 65.9172 53.6619 67.9231 50.2869L72.2622 42.5244H73.9311C85.6132 42.8619 97.2953 42.8619 108.644 42.5244H110.313L114.652 50.2869C116.654 53.6619 117.989 57.3744 118.326 61.4244V64.1244H115.656C107.639 64.7994 99.2979 64.7994 91.284 64.7994ZM69.9225 58.7244C83.941 59.3994 98.2933 59.3994 112.312 58.7244C111.644 56.7028 110.977 54.6744 109.975 52.9869L107.305 47.9244C96.6244 48.2619 85.9436 48.2619 75.2595 47.9244L72.5927 52.9869C71.2576 54.6744 70.59 56.7028 69.9225 58.7244Z" fill="#231F1F"/>
<path d="M108.64 45.2244L104.969 38.4744C97.2919 25.3119 84.9422 25.3119 77.5992 38.4744L73.9276 45.2244C85.276 45.5619 96.958 45.5619 108.64 45.2244Z" fill="#231F1F"/>
<path d="M91.284 48.2625C85.2761 48.2625 79.6019 48.2625 73.594 47.925L68.9211 47.5875L74.9291 36.7875C78.9377 29.3625 84.9423 25.3125 90.9536 25.3125C96.9616 25.3125 102.97 29.3625 106.975 36.7875L112.983 47.5875L108.31 47.925C102.966 48.2625 96.9582 48.2625 91.284 48.2625ZM78.2668 42.525C86.6112 42.8625 95.2893 42.8625 103.967 42.525L102.632 39.825C99.6318 34.425 95.6231 31.3875 91.284 31.3875C86.945 31.3875 83.2735 34.4216 79.9357 39.825L78.2668 42.525Z" fill="#231F1F"/>
<path d="M4.71191 145.018L8.93555 140.025H5.62744L1.37939 145.042V145.14L5.57861 150.157H8.93555L4.71191 145.14V145.018ZM10.5957 145.018L14.8193 140.025H11.5112L7.26318 145.042V145.14L11.4624 150.157H14.8193L10.5957 145.14V145.018ZM32.5562 152V134.385H20.4346L19.9097 144.798C19.7754 147.447 19.2139 148.863 17.5781 148.863C17.2607 148.863 16.9312 148.802 16.7603 148.765V151.988C17.0044 152.061 17.4927 152.146 18.0908 152.146C21.6064 152.146 23.0591 149.595 23.3032 145.042L23.7305 137.425H28.8696V152H32.5562ZM43.6523 134.08C38.4399 134.08 35.1562 137.583 35.1562 143.199C35.1562 148.802 38.4277 152.293 43.6523 152.293C48.877 152.293 52.1484 148.802 52.1484 143.199C52.1484 137.583 48.877 134.08 43.6523 134.08ZM43.6523 137.156C46.5332 137.156 48.3887 139.5 48.3887 143.199C48.3887 146.885 46.5454 149.217 43.6523 149.217C40.7715 149.217 38.9282 146.885 38.9282 143.199C38.9282 139.5 40.7715 137.156 43.6523 137.156ZM58.4351 152V137.437H66.0889V134.385H54.7363V152H58.4351ZM80.1514 152H83.8257V134.385H80.2734L72.2778 146.312H72.1313V134.385H68.457V152H72.0093L80.0049 140.086H80.1514V152ZM94.7632 152.293C99.0845 152.293 102.112 149.815 102.527 145.884H98.938C98.5352 147.972 96.9604 149.253 94.7754 149.253C91.9678 149.253 90.1978 146.934 90.1978 143.174C90.1978 139.463 91.98 137.132 94.7632 137.132C96.9238 137.132 98.584 138.548 98.9258 140.708H102.515C102.222 136.766 99.0112 134.08 94.7632 134.08C89.6606 134.08 86.4258 137.51 86.4258 143.187C86.4258 148.875 89.6362 152.293 94.7632 152.293ZM112.146 152V137.425H117.236V134.385H103.357V137.425H108.459V152H112.146ZM131.201 152H134.875V134.385H131.323L123.328 146.312H123.181V134.385H119.507V152H123.059L131.055 140.086H131.201V152ZM152.429 152V134.385H148.743V141.648C148.279 142.076 147.131 142.759 145.19 142.759C142.773 142.759 141.479 141.404 141.479 139.109V134.385H137.793V139.39C137.793 143.162 140.186 145.921 144.519 145.921C146.667 145.921 148.083 145.237 148.596 144.883H148.743V152H152.429ZM167.261 148.948H159.277V144.505H166.809V141.673H159.277V137.425H167.261V134.385H155.591V152H167.261V148.948ZM177.893 152.293C182.214 152.293 185.242 149.815 185.657 145.884H182.068C181.665 147.972 180.09 149.253 177.905 149.253C175.098 149.253 173.328 146.934 173.328 143.174C173.328 139.463 175.11 137.132 177.893 137.132C180.054 137.132 181.714 138.548 182.056 140.708H185.645C185.352 136.766 182.141 134.08 177.893 134.08C172.791 134.08 169.556 137.51 169.556 143.187C169.556 148.875 172.766 152.293 177.893 152.293ZM191.821 141.844V134.385H188.135V152H191.821V144.261H191.919L198.56 152H203.162L195.288 142.735L202.588 134.385H198.425L191.919 141.844H191.821ZM216.418 152H220.325L214.209 134.385H209.875L203.748 152H207.544L208.887 147.728H215.076L216.418 152ZM211.938 137.754H212.024L214.282 144.969H209.68L211.938 137.754ZM229.688 145.64H232.214V152H235.876V134.385H228.65C224.731 134.385 222.253 136.68 222.253 140.074C222.253 142.552 223.792 144.419 226.062 145.127L221.423 152H225.5L229.688 145.64ZM232.214 142.894H229.175C227.197 142.894 226.025 141.856 226.025 140.086C226.025 138.34 227.209 137.278 229.175 137.278H232.214V142.894ZM247.705 141.844V134.385H244.019V152H247.705V144.261H247.803L254.443 152H259.045L251.172 142.735L258.472 134.385H254.309L247.803 141.844H247.705ZM268.042 134.08C262.83 134.08 259.546 137.583 259.546 143.199C259.546 148.802 262.817 152.293 268.042 152.293C273.267 152.293 276.538 148.802 276.538 143.199C276.538 137.583 273.267 134.08 268.042 134.08ZM268.042 137.156C270.923 137.156 272.778 139.5 272.778 143.199C272.778 146.885 270.935 149.217 268.042 149.217C265.161 149.217 263.318 146.885 263.318 143.199C263.318 139.5 265.161 137.156 268.042 137.156ZM297.742 152V134.385H293.481L288.477 147.032H288.379L283.362 134.385H279.102V152H282.385V140.11H282.471L287.268 152H289.575L294.373 140.11H294.458V152H297.742ZM316.028 152V134.385H300.903V152H304.602V137.437H312.354V152H316.028ZM330.725 152H334.631L328.516 134.385H324.182L318.054 152H321.851L323.193 147.728H329.382L330.725 152ZM326.245 137.754H326.331L328.589 144.969H323.987L326.245 137.754ZM351.929 152V134.385H348.242V141.539H340.308V134.385H336.621V152H340.308V144.578H348.242V152H351.929ZM366.772 152H370.447V134.385H366.895L358.899 146.312H358.752V134.385H355.078V152H358.63L366.626 140.086H366.772V152ZM380.981 145.64H383.508V152H387.17V134.385H379.944C376.025 134.385 373.547 136.68 373.547 140.074C373.547 142.552 375.085 144.419 377.356 145.127L372.717 152H376.794L380.981 145.64ZM383.508 142.894H380.469C378.491 142.894 377.319 141.856 377.319 140.086C377.319 138.34 378.503 137.278 380.469 137.278H383.508V142.894ZM395.312 151.988H416.382V134.373H412.695V148.948H407.69V134.373H404.004V148.948H398.999V134.373H395.312V151.988ZM438.171 152V134.385H433.911L428.906 147.032H428.809L423.792 134.385H419.531V152H422.815V140.11H422.9L427.698 152H430.005L434.802 140.11H434.888V152H438.171ZM452.979 148.948H444.995V144.505H452.527V141.673H444.995V137.425H452.979V134.385H441.309V152H452.979V148.948ZM470.374 152V134.385H458.252L457.727 144.798C457.593 147.447 457.031 148.863 455.396 148.863C455.078 148.863 454.749 148.802 454.578 148.765V151.988C454.822 152.061 455.31 152.146 455.908 152.146C459.424 152.146 460.876 149.595 461.121 145.042L461.548 137.425H466.687V152H470.374ZM473.56 152H480.847C484.473 152 486.951 149.656 486.951 146.141C486.951 142.649 484.375 140.293 480.664 140.293H477.246V134.385H473.56V152ZM477.246 149.058V143.199H479.858C481.958 143.199 483.179 144.236 483.179 146.141C483.179 148.033 481.97 149.058 479.871 149.058H477.246ZM499.255 145.164L495.032 150.157H498.34L502.588 145.14V145.042L498.389 140.025H495.032L499.255 145.042V145.164ZM493.372 145.164L489.148 150.157H492.456L496.704 145.14V145.042L492.505 140.025H489.148L493.372 145.042V145.164Z" fill="white"/>
</svg>
