<svg width="300" height="135" viewBox="0 0 300 135" fill="none" xmlns="http://www.w3.org/2000/svg">
<path d="M131.191 88.6417C131.458 88.4807 131.593 88.2617 131.593 87.9833C131.593 87.7987 131.555 87.6444 131.481 87.5179C131.406 87.3927 131.301 87.291 131.167 87.2142C131.034 87.1367 130.874 87.0828 130.687 87.0508C130.502 87.0187 130.299 87.0024 130.078 87.0024C129.914 87.0024 129.736 87.0102 129.546 87.0254C129.355 87.0411 129.179 87.0629 129.019 87.0931V90.4723C129.223 90.5158 129.419 90.5425 129.609 90.5552C129.798 90.5667 129.988 90.5727 130.178 90.5727C130.704 90.5727 131.099 90.4807 131.366 90.2968C131.632 90.1122 131.765 89.8381 131.765 89.4714C131.765 89.291 131.725 89.1276 131.645 88.9842C131.562 88.8396 131.412 88.7258 131.191 88.6417ZM129.781 87.6517C129.841 87.645 129.91 87.6402 129.987 87.639C130.064 87.6372 130.137 87.6372 130.203 87.6372C130.41 87.6372 130.568 87.665 130.675 87.7219C130.782 87.7788 130.835 87.878 130.835 88.0184C130.835 88.1552 130.784 88.2556 130.681 88.3173C130.577 88.3803 130.405 88.4111 130.164 88.4111H129.783V87.6517H129.781ZM130.755 89.829C130.611 89.8968 130.422 89.9295 130.188 89.9295C130.108 89.9295 130.034 89.9282 129.967 89.9246C129.901 89.9216 129.839 89.9161 129.782 89.9089V89.0096H130.273C130.498 89.0096 130.67 89.0441 130.79 89.1131C130.91 89.1815 130.971 89.2965 130.971 89.4568C130.97 89.6378 130.898 89.7612 130.755 89.829ZM135.653 87.76C135.525 87.9972 135.392 88.235 135.251 88.4723C135.111 88.235 134.978 87.9972 134.856 87.76C134.732 87.5228 134.617 87.2844 134.509 87.0429H133.602C133.792 87.4181 133.991 87.7842 134.197 88.1394C134.403 88.4947 134.618 88.8499 134.847 89.2051V90.5273H135.63V89.1942C135.857 88.839 136.072 88.4856 136.277 88.1334C136.481 87.7818 136.678 87.4181 136.869 87.0417H136.005C135.898 87.2837 135.781 87.5234 135.653 87.76ZM141.216 89.7733C141.163 89.7963 141.101 89.8175 141.03 89.8363C140.96 89.8544 140.881 89.8708 140.79 89.8835C140.7 89.8968 140.597 89.904 140.484 89.904C140.303 89.904 140.149 89.8744 140.022 89.8163C139.896 89.7576 139.792 89.6783 139.714 89.5779C139.635 89.4774 139.578 89.357 139.543 89.2178C139.509 89.0786 139.491 88.9285 139.491 88.7682C139.491 88.5673 139.517 88.3966 139.571 88.2556C139.624 88.1146 139.695 87.9996 139.784 87.9113C139.873 87.8223 139.974 87.7576 140.09 87.7182C140.205 87.6789 140.324 87.6583 140.444 87.6583C140.625 87.6583 140.787 87.6783 140.929 87.7182C141.07 87.7588 141.195 87.8072 141.302 87.8641L141.528 87.2299C141.501 87.2136 141.458 87.1893 141.398 87.1597C141.338 87.13 141.263 87.101 141.172 87.0719C141.083 87.0441 140.976 87.0181 140.856 86.9969C140.736 86.9745 140.602 86.9642 140.454 86.9642C140.2 86.9642 139.963 87.0036 139.746 87.0847C139.529 87.1645 139.341 87.2837 139.184 87.4387C139.026 87.5942 138.903 87.7854 138.813 88.0111C138.723 88.2369 138.678 88.4946 138.678 88.7833C138.678 89.3636 138.826 89.8115 139.122 90.1261C139.418 90.4408 139.849 90.5981 140.414 90.5981C140.678 90.5981 140.91 90.5709 141.112 90.5183C141.313 90.4644 141.468 90.4045 141.579 90.3367L141.363 89.7086C141.319 89.7285 141.269 89.7497 141.216 89.7733ZM146.43 88.5866C146.318 88.3046 146.206 88.0378 146.095 87.7848C145.984 87.5319 145.871 87.285 145.757 87.0435H145.014C144.897 87.285 144.783 87.5319 144.674 87.7848C144.565 88.0378 144.453 88.3052 144.341 88.5866C144.229 88.8686 144.114 89.1676 143.996 89.4871C143.879 89.8054 143.754 90.1521 143.623 90.5273H144.436C144.475 90.4069 144.516 90.2829 144.56 90.1558C144.604 90.0275 144.648 89.901 144.692 89.7733H146.051C146.095 89.8986 146.139 90.0269 146.184 90.1534C146.229 90.2817 146.27 90.4051 146.309 90.5267H147.148C147.018 90.1515 146.892 89.8048 146.775 89.4865C146.657 89.1682 146.543 88.868 146.43 88.5866ZM144.872 89.1494C144.927 88.9987 144.981 88.8553 145.033 88.7167C145.086 88.58 145.134 88.4541 145.177 88.3391C145.221 88.2254 145.259 88.1249 145.293 88.0372C145.325 87.95 145.352 87.881 145.369 87.8308C145.39 87.8798 145.418 87.9488 145.45 88.0353C145.484 88.1225 145.524 88.2223 145.569 88.3373C145.614 88.4523 145.661 88.5776 145.711 88.7155C145.761 88.8523 145.812 88.9975 145.867 89.1482H144.872V89.1494ZM151.783 89.7558C151.708 89.6329 151.632 89.5161 151.555 89.4036C151.479 89.2916 151.404 89.1912 151.335 89.1046C151.544 89.0175 151.707 88.8983 151.819 88.7458C151.931 88.5933 151.988 88.3942 151.988 88.1503C151.988 87.7582 151.848 87.4689 151.571 87.2825C151.293 87.0962 150.894 87.0036 150.371 87.0036C150.227 87.0036 150.064 87.0102 149.882 87.0241C149.7 87.0375 149.523 87.0611 149.353 87.0943V90.5286H150.137V89.2565H150.524C150.59 89.3376 150.658 89.4266 150.725 89.5258C150.793 89.6245 150.86 89.7298 150.929 89.8405C150.999 89.9512 151.066 90.0656 151.131 90.1824C151.196 90.3004 151.261 90.4148 151.325 90.5292H152.2C152.14 90.4015 152.075 90.2714 152.004 90.1394C151.932 90.0057 151.859 89.8774 151.783 89.7558ZM150.988 88.5213C150.86 88.5945 150.65 88.6314 150.356 88.6314H150.135V87.6868C150.175 87.6838 150.217 87.6801 150.263 87.6759C150.308 87.6729 150.359 87.671 150.416 87.671C150.666 87.671 150.856 87.7067 150.985 87.7794C151.114 87.852 151.179 87.9736 151.179 88.1443C151.179 88.3222 151.115 88.4481 150.988 88.5213ZM156.961 87.4211C156.787 87.2765 156.58 87.17 156.337 87.1034C156.094 87.0356 155.824 87.003 155.526 87.003C155.386 87.003 155.217 87.009 155.022 87.0211C154.825 87.0326 154.637 87.055 154.457 87.0889V90.4826C154.638 90.5195 154.822 90.5431 155.01 90.5558C155.197 90.5673 155.362 90.5733 155.502 90.5733C155.81 90.5733 156.088 90.5364 156.335 90.4626C156.583 90.3894 156.794 90.278 156.965 90.1304C157.137 89.9827 157.269 89.7975 157.364 89.5724C157.458 89.3473 157.505 89.0841 157.505 88.7827C157.505 88.4668 157.458 88.1975 157.364 87.973C157.27 87.7491 157.135 87.5645 156.961 87.4211ZM156.413 89.6021C156.223 89.8 155.933 89.8986 155.542 89.8986C155.476 89.8986 155.417 89.8974 155.368 89.8956C155.32 89.8938 155.277 89.8919 155.24 89.8889V87.6862C155.291 87.6795 155.344 87.6747 155.401 87.6735C155.458 87.6716 155.513 87.6704 155.567 87.6704C155.958 87.6704 156.245 87.7642 156.425 87.9524C156.606 88.1394 156.696 88.4166 156.696 88.7815C156.696 89.1313 156.601 89.4042 156.413 89.6021ZM159.928 89.668C159.808 89.668 159.7 89.7074 159.605 89.786C159.51 89.8647 159.462 89.9797 159.462 90.1304C159.462 90.281 159.51 90.396 159.605 90.4741C159.7 90.5522 159.808 90.5927 159.928 90.5927C160.048 90.5927 160.156 90.5534 160.252 90.4741C160.348 90.396 160.395 90.281 160.395 90.1304C160.395 89.9797 160.347 89.8647 160.252 89.786C160.156 89.7062 160.049 89.668 159.928 89.668ZM164.878 88.6417C165.146 88.4807 165.279 88.2617 165.279 87.9833C165.279 87.7987 165.242 87.6444 165.167 87.5179C165.092 87.3927 164.987 87.291 164.854 87.2142C164.72 87.1367 164.561 87.0828 164.374 87.0508C164.188 87.0187 163.985 87.0024 163.764 87.0024C163.6 87.0024 163.423 87.0102 163.231 87.0254C163.041 87.0411 162.865 87.0629 162.705 87.0931V90.4723C162.909 90.5158 163.105 90.5425 163.295 90.5552C163.483 90.5667 163.674 90.5727 163.864 90.5727C164.39 90.5727 164.785 90.4807 165.051 90.2968C165.318 90.1122 165.451 89.8381 165.451 89.4714C165.451 89.291 165.41 89.1276 165.33 88.9842C165.249 88.8396 165.098 88.7258 164.878 88.6417ZM163.467 87.6517C163.527 87.645 163.596 87.6402 163.673 87.639C163.751 87.6372 163.822 87.6372 163.889 87.6372C164.096 87.6372 164.254 87.665 164.36 87.7219C164.468 87.7788 164.521 87.878 164.521 88.0184C164.521 88.1552 164.469 88.2556 164.365 88.3173C164.262 88.3803 164.089 88.4111 163.848 88.4111H163.468V87.6517H163.467ZM164.441 89.829C164.297 89.8968 164.108 89.9295 163.874 89.9295C163.794 89.9295 163.72 89.9282 163.653 89.9246C163.586 89.9216 163.525 89.9161 163.468 89.9089V89.0096H163.959C164.183 89.0096 164.356 89.0441 164.476 89.1131C164.596 89.1815 164.656 89.2965 164.656 89.4568C164.657 89.6378 164.584 89.7612 164.441 89.829ZM169.34 87.76C169.212 87.9972 169.078 88.235 168.938 88.4723C168.798 88.235 168.665 87.9972 168.543 87.76C168.419 87.5228 168.304 87.2844 168.196 87.0429H167.289C167.479 87.4181 167.678 87.7842 167.884 88.1394C168.09 88.4947 168.305 88.8499 168.534 89.2051V90.5273H169.316V89.1942C169.543 88.839 169.759 88.4856 169.963 88.1334C170.168 87.7818 170.365 87.4181 170.555 87.0417H169.691C169.584 87.2837 169.467 87.5234 169.34 87.76ZM118.673 44.5585H114.481C113.831 44.5585 113.303 45.0862 113.303 45.7392V89.3485C113.303 90.0003 113.831 90.5279 114.481 90.5279H118.673C121.504 90.5279 122.919 88.7773 122.919 85.2747V68.6373C122.919 66.9278 122.378 65.7817 121.295 65.1977C122.378 64.6978 122.919 63.5299 122.919 61.6951V49.6865C122.919 46.2681 121.504 44.5585 118.673 44.5585ZM119.173 85.7745C119.173 86.5255 118.86 86.9001 118.236 86.9001H117.049V67.0736H118.236C118.86 67.0736 119.173 67.4694 119.173 68.2615V85.7745ZM119.173 62.3202C119.173 63.0712 118.86 63.4458 118.236 63.4458H117.049V48.1858H118.236C118.86 48.1858 119.173 48.5815 119.173 49.3737V62.3202ZM135.762 59.476V44.5585H132.016V62.4775C132.016 65.5208 131.745 68.0019 131.204 69.9196L131.017 70.6077H130.643L130.455 69.9196C129.998 68.1677 129.768 65.6872 129.768 62.4775V44.5585H126.023V59.476C126.023 63.3532 126.179 66.1472 126.491 67.8567C126.803 69.5662 127.459 71.4422 128.458 73.4852L129.02 74.6108V83.93H132.767V74.6108L133.329 73.4852C134.329 71.4422 134.983 69.5656 135.295 67.8567C135.607 66.1472 135.762 63.3532 135.762 59.476ZM144.235 44.3086H143.173C140.343 44.3086 138.926 46.2263 138.926 49.3446V77.5838C138.926 82.2217 140.341 84.1818 143.173 84.1818H144.235C147.024 84.1818 148.419 82.2217 148.419 78.3028V66.3553H144.734V78.9896C144.734 80.1563 144.422 80.7403 143.798 80.7403H143.611C142.944 80.7403 142.611 80.1563 142.611 78.2713V48.8436C142.611 48.3522 142.944 47.7483 143.611 47.7483H143.798C144.422 47.7483 144.734 48.3522 144.734 49.5619V62.7287H148.419V50.0617C148.419 46.2263 147.024 44.3086 144.235 44.3086ZM158.64 45.8094C158.216 45.0384 157.407 44.5585 156.528 44.5585H156.255C155.377 44.5585 154.567 45.0384 154.143 45.8094C152.977 47.9365 152.26 49.9576 151.988 51.8766C151.717 53.7943 151.583 56.5162 151.583 61.4778V83.9312H155.33V66.1671H157.579V83.93H161.325V61.4778C161.325 56.6415 161.179 53.9716 160.888 52.0327C160.597 50.0938 159.847 48.0188 158.64 45.8094ZM157.579 62.5405H155.33V56.9126C155.33 53.24 155.527 51.2896 155.92 49.6236C155.972 49.4033 156.165 49.249 156.391 49.249C156.612 49.249 156.808 49.3967 156.86 49.6121C157.34 51.5831 157.579 53.5383 157.579 56.9126V62.5405ZM169.735 44.5585H165.669C165.019 44.5585 164.49 45.0874 164.49 45.7398V83.9306H168.174V66.3553H169.361C169.985 66.3553 170.297 66.6894 170.297 67.3562V83.9306H173.981V68.3572C173.981 66.5647 173.565 65.2715 172.732 64.48C173.565 63.7707 173.981 62.4582 173.981 60.5393V49.6871C173.982 46.2681 172.567 44.5585 169.735 44.5585ZM170.297 61.6019C170.297 62.3529 169.984 62.7275 169.36 62.7275H168.173V48.1858H169.36C169.984 48.1858 170.297 48.5815 170.297 49.3737V61.6019ZM182.579 44.5585H178.387C177.736 44.5585 177.209 45.0862 177.209 45.738V89.3473C177.209 89.999 177.736 90.5279 178.387 90.5279H182.579C185.41 90.5279 186.825 88.7773 186.825 85.2747V49.6871C186.825 46.2681 185.41 44.5585 182.579 44.5585ZM183.078 85.7745C183.078 86.5243 182.766 86.9001 182.142 86.9001H180.955V48.1858H182.142C182.766 48.1858 183.078 48.5828 183.078 49.3737V85.7745Z" fill="white"/>
</svg>
