<svg width="300" height="135" viewBox="0 0 300 135" fill="none" xmlns="http://www.w3.org/2000/svg">
<path d="M57.9616 88.7798V74.9523H56.7073V88.7798H57.9616Z" fill="white"/>
<path d="M60.4471 88.7798H61.6646V82.877C61.6646 81.0276 62.7806 79.7819 64.4407 79.7819C66.0456 79.7819 66.9679 80.7785 66.9679 82.5225V88.7798H68.1853V82.3212C68.1853 80.0598 66.8941 78.6512 64.7912 78.6512C63.2417 78.6512 62.1165 79.4465 61.6277 80.6539H61.6V78.8141H60.4471V88.7798Z" fill="white"/>
<path d="M70.514 88.7798H71.7315V74.9523H70.514V88.7798Z" fill="white"/>
<path d="M74.798 76.7443C75.2499 76.7443 75.6189 76.3705 75.6189 75.901C75.6189 75.4315 75.2499 75.0577 74.798 75.0577C74.3553 75.0577 73.9864 75.4315 73.9864 75.901C73.9864 76.3705 74.3553 76.7443 74.798 76.7443ZM74.1893 88.7798H75.4067V78.8141H74.1893V88.7798Z" fill="white"/>
<path d="M77.7815 88.7798H78.999V82.877C78.999 81.0276 80.115 79.7819 81.7752 79.7819C83.38 79.7819 84.3023 80.7785 84.3023 82.5225V88.7798H85.5198V82.3212C85.5198 80.0598 84.2285 78.6512 82.1256 78.6512C80.5761 78.6512 79.4509 79.4465 78.9621 80.6539H78.9344V78.8141H77.7815V88.7798Z" fill="white"/>
<path d="M94.3969 85.953C94.1294 87.0454 93.1241 87.8312 91.6761 87.8312C89.7669 87.8312 88.5402 86.4321 88.5402 84.1802V84.1036H95.725V83.567C95.725 80.5964 94.1202 78.6512 91.5746 78.6512C88.9737 78.6512 87.2858 80.7306 87.2858 83.8257C87.2858 86.9879 88.9552 88.9427 91.6484 88.9427C93.7605 88.9427 95.3192 87.6778 95.6051 85.953H94.3969ZM91.5562 79.7627C93.2901 79.7627 94.443 81.133 94.4707 83.0974H88.5494C88.6509 81.133 89.8406 79.7627 91.5562 79.7627Z" fill="white"/>
<path d="M106.562 88.7798V76.1406H110.961V74.9523H100.908V76.1406H105.298V88.7798H106.562Z" fill="white"/>
<path d="M116.841 85.953C116.573 87.0454 115.568 87.8312 114.12 87.8312C112.211 87.8312 110.984 86.4321 110.984 84.1802V84.1036H118.169V83.567C118.169 80.5964 116.564 78.6512 114.019 78.6512C111.418 78.6512 109.73 80.7306 109.73 83.8257C109.73 86.9879 111.399 88.9427 114.092 88.9427C116.205 88.9427 117.763 87.6778 118.049 85.953H116.841ZM114 79.7627C115.734 79.7627 116.887 81.133 116.915 83.0974H110.993C111.095 81.133 112.285 79.7627 114 79.7627Z" fill="white"/>
<path d="M120.074 88.7798H121.291V74.9523H120.074V88.7798Z" fill="white"/>
<path d="M130.297 85.953C130.03 87.0454 129.024 87.8312 127.576 87.8312C125.667 87.8312 124.44 86.4321 124.44 84.1802V84.1036H131.625V83.567C131.625 80.5964 130.021 78.6512 127.475 78.6512C124.874 78.6512 123.186 80.7306 123.186 83.8257C123.186 86.9879 124.856 88.9427 127.549 88.9427C129.661 88.9427 131.22 87.6778 131.505 85.953H130.297ZM127.456 79.7627C129.19 79.7627 130.343 81.133 130.371 83.0974H124.45C124.551 81.133 125.741 79.7627 127.456 79.7627Z" fill="white"/>
<path d="M141.25 81.9667C141.01 80.1844 139.562 78.6512 137.302 78.6512C134.692 78.6512 132.967 80.6539 132.967 83.7969C132.967 86.9879 134.692 88.9427 137.311 88.9427C139.433 88.9427 140.991 87.6012 141.259 85.6943H140.051C139.774 86.9879 138.769 87.8216 137.32 87.8216C135.448 87.8216 134.212 86.298 134.212 83.7969C134.212 81.3343 135.439 79.7723 137.311 79.7723C138.824 79.7723 139.792 80.7401 140.051 81.9667H141.25Z" fill="white"/>
<path d="M146.862 88.9427C149.472 88.9427 151.233 86.9592 151.233 83.7969C151.233 80.6252 149.472 78.6512 146.862 78.6512C144.261 78.6512 142.49 80.6252 142.49 83.7969C142.49 86.9592 144.252 88.9427 146.862 88.9427ZM146.862 87.8216C144.98 87.8216 143.735 86.3267 143.735 83.7969C143.735 81.2672 144.98 79.7723 146.862 79.7723C148.743 79.7723 149.998 81.2672 149.998 83.7969C149.998 86.3267 148.743 87.8216 146.862 87.8216Z" fill="white"/>
<path d="M153.046 88.7798H154.263V82.6566C154.263 80.9605 155.278 79.7819 156.689 79.7819C157.998 79.7819 158.884 80.7114 158.884 82.1392V88.7798H160.111V82.5033C160.111 80.9126 161.088 79.7819 162.509 79.7819C163.901 79.7819 164.731 80.7114 164.731 82.2542V88.7798H165.949V81.9667C165.949 79.9544 164.722 78.6512 162.85 78.6512C161.402 78.6512 160.277 79.5232 159.825 80.7497H159.797C159.437 79.4944 158.423 78.6512 157.021 78.6512C155.628 78.6512 154.641 79.4848 154.226 80.6539H154.199V78.8141H153.046V88.7798Z" fill="white"/>
<path d="M171.796 85.0906C171.934 87.4287 173.88 89.0002 176.721 89.0002C179.608 89.0002 181.508 87.4191 181.508 84.966C181.508 83.0495 180.41 81.9667 177.671 81.3247L176.223 80.9797C174.249 80.5197 173.429 79.7244 173.429 78.4691C173.429 76.8976 174.858 75.9202 176.657 75.9202C178.547 75.9202 179.866 76.9742 179.995 78.5553H181.259C181.185 76.3322 179.276 74.7319 176.684 74.7319C174.074 74.7319 172.137 76.2939 172.137 78.5266C172.137 80.4335 173.244 81.6121 175.891 82.2254L177.339 82.5608C179.387 83.0495 180.217 83.8353 180.217 85.1385C180.217 86.71 178.787 87.812 176.786 87.812C174.701 87.812 173.216 86.7483 173.06 85.0906H171.796Z" fill="white"/>
<path d="M187.24 88.9427C189.85 88.9427 191.612 86.9592 191.612 83.7969C191.612 80.6252 189.85 78.6512 187.24 78.6512C184.639 78.6512 182.868 80.6252 182.868 83.7969C182.868 86.9592 184.63 88.9427 187.24 88.9427ZM187.24 87.8216C185.359 87.8216 184.113 86.3267 184.113 83.7969C184.113 81.2672 185.359 79.7723 187.24 79.7723C189.122 79.7723 190.376 81.2672 190.376 83.7969C190.376 86.3267 189.122 87.8216 187.24 87.8216Z" fill="white"/>
<path d="M193.507 88.7798H194.724V74.9523H193.507V88.7798Z" fill="white"/>
<path d="M204.791 78.8141H203.574V84.7264C203.574 86.595 202.449 87.812 200.779 87.812C199.174 87.812 198.271 86.8346 198.271 85.0714V78.8141H197.044V85.2918C197.044 87.5341 198.344 88.9427 200.429 88.9427C201.951 88.9427 203.104 88.157 203.611 86.9304H203.639V88.7798H204.791V78.8141Z" fill="white"/>
<path d="M207.609 76.3226V78.8141H206.179V79.8681H207.609V86.3267C207.609 88.1282 208.255 88.8373 209.859 88.8373C210.118 88.8373 210.634 88.8086 210.763 88.7798V87.697C210.689 87.7162 210.228 87.7353 210.099 87.7353C209.214 87.7353 208.826 87.2945 208.826 86.2692V79.8681H210.717V78.8141H208.826V76.3226H207.609Z" fill="white"/>
<path d="M213.332 76.7443C213.784 76.7443 214.153 76.3705 214.153 75.901C214.153 75.4315 213.784 75.0577 213.332 75.0577C212.889 75.0577 212.52 75.4315 212.52 75.901C212.52 76.3705 212.889 76.7443 213.332 76.7443ZM212.723 88.7798H213.94V78.8141H212.723V88.7798Z" fill="white"/>
<path d="M220.207 88.9427C222.818 88.9427 224.579 86.9592 224.579 83.7969C224.579 80.6252 222.818 78.6512 220.207 78.6512C217.606 78.6512 215.836 80.6252 215.836 83.7969C215.836 86.9592 217.597 88.9427 220.207 88.9427ZM220.207 87.8216C218.326 87.8216 217.081 86.3267 217.081 83.7969C217.081 81.2672 218.326 79.7723 220.207 79.7723C222.089 79.7723 223.343 81.2672 223.343 83.7969C223.343 86.3267 222.089 87.8216 220.207 87.8216Z" fill="white"/>
<path d="M226.391 88.7798H227.609V82.877C227.609 81.0276 228.725 79.7819 230.385 79.7819C231.99 79.7819 232.912 80.7785 232.912 82.5225V88.7798H234.13V82.3212C234.13 80.0598 232.838 78.6512 230.735 78.6512C229.186 78.6512 228.061 79.4465 227.572 80.6539H227.544V78.8141H226.391V88.7798Z" fill="white"/>
<path d="M236.182 81.478C236.182 82.8579 237.039 83.6915 238.866 84.1323L240.304 84.4869C241.596 84.8127 242.066 85.2918 242.066 86.1542C242.066 87.1987 241.116 87.8982 239.677 87.8982C238.238 87.8982 237.307 87.1796 237.122 85.9243H235.905C236.071 87.7449 237.51 88.9427 239.677 88.9427C241.771 88.9427 243.293 87.7449 243.293 86.0584C243.293 84.6498 242.573 83.8832 240.655 83.4041L239.207 83.0495C237.934 82.7333 237.39 82.2254 237.39 81.4109C237.39 80.4143 238.284 79.6957 239.594 79.6957C240.922 79.6957 241.789 80.4527 241.946 81.6984H243.117C243.007 79.8873 241.642 78.6512 239.594 78.6512C237.593 78.6512 236.182 79.8298 236.182 81.478Z" fill="white"/>
<path d="M150.773 55.8001L162.83 44L157.33 44L150.773 50.7429L144.004 44L138.928 44L150.773 55.8001Z" fill="white"/>
<path d="M148.571 57.8026L136.829 45.6855V51.2126L143.539 57.8026L136.829 64.6052V69.7071L148.571 57.8026Z" fill="white"/>
<path d="M162.829 70.1283V47.7925L157.749 52.8497V65.0712H145.473L140.604 70.1283H162.829Z" fill="white"/>
</svg>
