<svg width="300" height="135" viewBox="0 0 300 135" fill="none" xmlns="http://www.w3.org/2000/svg">
<path fill-rule="evenodd" clip-rule="evenodd" d="M141.03 69.9342C140.963 69.9804 140.727 70.0188 140.507 70.0196C140.287 70.0202 139.994 70.0559 139.857 70.0986C139.719 70.1415 139.442 70.2235 139.241 70.281C138.83 70.3982 137.209 71.2032 137.036 71.3755C136.974 71.437 136.796 71.5796 136.64 71.6924C136.271 71.9586 135.272 72.9849 135.017 73.36C134.908 73.5207 134.793 73.671 134.762 73.6939C134.675 73.759 134.093 74.7919 133.986 75.0713C133.61 76.0508 133.591 76.1154 133.371 77.1583C133.256 77.6981 133.256 79.8743 133.371 80.414C133.628 81.6303 133.699 81.8521 134.079 82.6263C134.697 83.8874 135.661 85.1275 136.477 85.7118C136.634 85.8239 136.78 85.9387 136.802 85.9669C136.891 86.0796 137.6 86.5404 138.012 86.7542C138.527 87.0214 139.281 87.2889 139.851 87.4064C140.477 87.5357 143.125 87.579 143.509 87.4662C143.688 87.4137 143.981 87.334 144.16 87.2891C144.488 87.2065 144.771 87.1123 145.217 86.9368C146.375 86.4809 148.36 84.7132 148.577 83.9456C148.669 83.6172 148.667 83.5276 148.564 83.3236C148.291 82.7847 147.75 82.3766 147.308 82.3761C147.063 82.3758 146.395 82.7381 146.395 82.8714C146.395 82.9679 145.88 83.5007 145.582 83.7124C145.426 83.8237 145.248 83.9647 145.187 84.0257C145.019 84.1926 144.047 84.6687 143.631 84.7872C143.43 84.8446 143.153 84.9265 143.016 84.9694C142.693 85.07 140.994 85.0703 140.67 84.9697C139.462 84.5951 139.134 84.4655 138.678 84.1827C138.045 83.7903 136.946 82.657 136.566 82.0058C135.876 80.8238 135.581 79.1532 135.813 77.7427C136.05 76.3028 136.518 75.3423 137.458 74.3689C138.142 73.6595 139.103 73.0225 139.795 72.8191C140.049 72.7443 140.37 72.6475 140.507 72.6041C140.85 72.4958 142.862 72.5044 143.219 72.6157C144.601 73.0466 145.265 73.4416 146.148 74.3582C147.143 75.3912 147.464 75.5327 148.021 75.186C148.377 74.9653 148.59 74.6997 148.717 74.3214C148.842 73.947 148.718 73.5406 148.35 73.1173C148.206 72.9523 148.032 72.7191 147.963 72.5992C147.893 72.4791 147.73 72.3161 147.599 72.2369C147.469 72.1576 147.237 71.9642 147.084 71.807C146.326 71.0291 144.381 70.1478 143.103 70.0031C141.957 69.8734 141.156 69.8468 141.03 69.9342ZM125.467 70.904C125.263 71.1142 125.095 71.3392 125.095 71.404C125.095 71.4688 124.88 71.9823 124.617 72.5453C124.354 73.1082 123.915 74.0664 123.641 74.6748C122.445 77.3359 122.117 78.0633 121.599 79.2036C120.852 80.8511 120.155 82.4025 119.668 83.5028C119.445 84.0078 119.148 84.6753 119.008 84.9861C118.433 86.2644 118.848 87.2206 119.973 87.2146C120.219 87.2134 120.477 87.1665 120.547 87.1106C120.712 86.9775 121.193 86.2533 121.193 86.1372C121.193 86.0876 121.48 85.4557 121.831 84.7331C122.182 84.0105 122.493 83.3221 122.521 83.2033C122.549 83.0845 122.648 82.8873 122.742 82.765L122.912 82.5428H126.315H129.717L129.866 82.7374C129.947 82.8445 130.118 83.1732 130.246 83.4679C131.606 86.6031 131.722 86.8302 132.079 87.0362C132.483 87.2695 132.988 87.2712 133.387 87.0408C133.7 86.8604 134.038 86.3602 134.038 86.0781C134.038 85.8395 133.788 85.1966 133.247 84.0454C132.641 82.7557 131.961 81.2461 130.522 77.9931C130.129 77.1028 129.602 75.9382 128.436 73.3809C128.128 72.7036 127.789 71.946 127.684 71.6971C127.579 71.4482 127.335 71.0819 127.142 70.8832C126.807 70.5394 126.766 70.5217 126.315 70.5217C125.859 70.5217 125.825 70.5372 125.467 70.904ZM155.977 70.8035C155.716 71.0725 155.322 71.8637 154.18 74.4035C153.912 75.0004 153.473 75.9771 153.205 76.574C152.936 77.1709 152.47 78.2039 152.167 78.8697C151.865 79.5354 151.426 80.5121 151.192 81.0401C150.661 82.2375 149.889 83.9537 149.475 84.8606C148.831 86.2693 149.199 87.2165 150.391 87.2173C150.805 87.2176 150.878 87.1897 151.123 86.9361C151.273 86.7807 151.591 86.2295 151.831 85.7048C152.071 85.1824 152.501 84.2573 152.786 83.6489L153.305 82.5428H156.714H160.123L160.271 82.7385C160.353 82.8461 160.561 83.2499 160.733 83.6359C161.791 86.0027 162.252 86.8884 162.513 87.0518C162.864 87.2713 163.402 87.2667 163.793 87.0408C164.106 86.8604 164.444 86.3602 164.444 86.0781C164.444 85.8663 164.211 85.236 163.815 84.3793C163.499 83.6927 163.003 82.5963 161.985 80.3306C161.717 79.7337 161.25 78.7006 160.948 78.0349C160.373 76.7672 159.715 75.3103 158.896 73.4852C157.775 70.9916 157.706 70.8595 157.432 70.6877C157.251 70.5746 157.023 70.5222 156.708 70.522C156.294 70.5217 156.222 70.5496 155.977 70.8035ZM166.304 70.7085C166.188 70.8124 166.014 71.0288 165.919 71.1895L165.745 71.4817V78.8697V86.2576L165.919 86.5498C166.014 86.7105 166.188 86.927 166.304 87.0309L166.517 87.2197L169.769 87.1882C173.777 87.1493 173.981 87.119 176.197 86.2382C177.352 85.7792 179.094 84.1688 179.849 82.8628C180.286 82.1071 180.566 81.3792 180.726 80.581C180.834 80.0421 180.834 77.6997 180.726 77.1583C180.622 76.6347 180.351 75.7975 180.169 75.4329C179.665 74.4281 178.375 72.8975 177.529 72.3012C177.026 71.9468 175.733 71.2904 175.141 71.0887C173.805 70.6338 173.324 70.5857 169.769 70.5512L166.517 70.5196L166.304 70.7085ZM183.08 70.6328C182.979 70.6906 182.805 70.8752 182.694 71.0428L182.492 71.3477V78.8694C182.492 87.1722 182.464 86.7156 183.004 87.054C183.255 87.2115 183.45 87.217 188.671 87.2146C192.835 87.2129 194.107 87.1886 194.209 87.1092C194.857 86.6027 194.841 85.2501 194.183 84.8647C194.037 84.7792 193.001 84.7458 189.484 84.7132L184.972 84.6715L184.95 82.2586C184.931 80.1018 184.943 79.8294 185.064 79.6916C185.192 79.5465 185.397 79.5375 188.558 79.5375C190.903 79.5375 191.977 79.5087 192.119 79.4421C192.874 79.089 192.948 77.604 192.232 77.1845C192.088 77.1005 191.219 77.0651 188.508 77.0331L184.972 76.9914V75.0296V73.0678L189.484 73.0261C193.001 72.9935 194.037 72.9601 194.183 72.8747C194.495 72.692 194.686 72.2803 194.687 71.7906C194.687 71.2564 194.524 70.9037 194.175 70.6853C193.924 70.528 193.73 70.5225 188.589 70.525C184.463 70.5271 183.223 70.5513 183.08 70.6328ZM197.686 70.7096C197.569 70.8129 197.395 71.0288 197.3 71.1895L197.126 71.4817L197.126 78.9674L197.126 86.4531L197.498 86.8354C197.853 87.1997 197.892 87.2176 198.331 87.2173C198.84 87.217 199.235 87.0289 199.417 86.7004C199.501 86.5495 199.533 85.3864 199.565 81.2975C199.593 77.6369 199.632 76.0779 199.694 76.0566C199.743 76.0399 200.054 76.4472 200.385 76.9617C200.717 77.4763 201.027 77.9376 201.074 77.987C201.122 78.0363 201.466 78.5462 201.839 79.1201C202.212 79.694 202.542 80.1824 202.572 80.2053C202.603 80.2283 202.859 80.6027 203.142 81.0374C203.712 81.9112 203.894 82.1225 204.294 82.3727C204.607 82.5686 204.779 82.5809 205.174 82.4355C205.631 82.2673 205.691 82.2075 206.232 81.3741C206.515 80.9379 206.771 80.5622 206.801 80.5393C206.831 80.5163 207.16 80.028 207.532 79.454C207.904 78.8801 208.234 78.3917 208.264 78.3688C208.294 78.3458 208.655 77.8106 209.065 77.1792C209.476 76.5479 209.847 76.0314 209.891 76.0314C209.943 76.0314 209.971 77.8758 209.971 81.2113C209.971 86.9275 209.953 86.7222 210.483 87.054C210.836 87.275 211.545 87.275 211.898 87.054C212.439 86.7156 212.41 87.1722 212.41 78.8697C212.41 70.5671 212.439 71.0238 211.898 70.6853C211.723 70.5755 211.49 70.5222 211.186 70.522C210.789 70.5217 210.7 70.5545 210.449 70.793C210.292 70.9423 210.004 71.3085 209.809 71.6069C209.614 71.9054 209.431 72.1683 209.401 72.1913C209.372 72.2143 209.116 72.5899 208.833 73.0261C208.55 73.4623 208.293 73.8379 208.263 73.8609C208.233 73.8838 207.757 74.5976 207.207 75.447C206.656 76.2964 206.181 77.0102 206.152 77.0331C206.122 77.0561 205.939 77.3154 205.746 77.6095C205.393 78.1476 205.287 78.2918 204.951 78.693C204.77 78.9088 204.766 78.9095 204.644 78.7444C204.576 78.6526 204.469 78.5138 204.405 78.4358C204.341 78.3579 203.989 77.832 203.621 77.2671C203.254 76.7023 202.928 76.2213 202.898 76.1983C202.867 76.1754 202.465 75.5743 202.004 74.8626C201.542 74.151 201.14 73.5499 201.11 73.527C201.079 73.504 200.75 73.0157 200.378 72.4417C200.006 71.8678 199.678 71.3795 199.649 71.3565C199.621 71.3335 199.514 71.1921 199.412 71.0422C199.162 70.6742 198.844 70.5217 198.329 70.5218C198 70.5219 197.848 70.5661 197.686 70.7096ZM214.246 70.904C213.89 71.2691 213.873 71.3077 213.873 71.7647C213.873 72.1069 213.915 72.2894 214.018 72.4051C214.097 72.4942 214.252 72.6984 214.361 72.8591C214.47 73.0198 214.69 73.2828 214.849 73.4435C215.008 73.6042 215.228 73.8672 215.337 74.0279C215.446 74.1885 215.702 74.4891 215.906 74.6957C216.11 74.9023 216.365 75.2028 216.474 75.3635C216.583 75.5242 216.766 75.7496 216.881 75.8644C216.997 75.9792 217.18 76.2046 217.288 76.3653C217.397 76.526 217.617 76.7889 217.777 76.9496C217.937 77.1103 218.193 77.4296 218.345 77.6592C218.498 77.8888 218.734 78.1893 218.87 78.3271C219.006 78.4648 219.209 78.7078 219.32 78.8671C219.432 79.0264 219.599 79.233 219.691 79.3262C219.783 79.4195 219.938 79.6142 220.036 79.7591C220.212 80.019 220.215 80.0633 220.215 83.2068C220.215 86.7229 220.216 86.7345 220.727 87.054C220.902 87.1635 221.134 87.2171 221.434 87.2171C221.735 87.2171 221.967 87.1635 222.142 87.054C222.652 86.7343 222.654 86.7241 222.654 83.1939C222.654 80.0925 222.659 79.988 222.825 79.7089C222.919 79.5506 223.094 79.3252 223.214 79.208C223.334 79.0908 223.521 78.8634 223.629 78.7027C223.738 78.542 223.92 78.3166 224.036 78.2018C224.151 78.087 224.334 77.8617 224.443 77.701C224.551 77.5403 224.771 77.2773 224.93 77.1166C225.089 76.9559 225.309 76.6929 225.417 76.5322C225.526 76.3715 225.709 76.1461 225.824 76.0314C225.94 75.9166 226.123 75.6912 226.231 75.5305C226.339 75.3698 226.522 75.1444 226.637 75.0296C226.753 74.9148 226.936 74.6894 227.044 74.5287C227.153 74.368 227.372 74.1051 227.532 73.9444C227.691 73.7837 227.91 73.5207 228.019 73.36C228.128 73.1993 228.311 72.9739 228.426 72.8591C229.028 72.2598 229.156 71.6908 228.812 71.1505C228.297 70.3427 227.059 70.3249 226.602 71.1187C226.524 71.2547 226.344 71.4859 226.202 71.6326C226.06 71.7792 225.854 72.0306 225.744 72.1913C225.635 72.352 225.415 72.615 225.255 72.7757C225.096 72.9364 224.877 73.1993 224.768 73.36C224.659 73.5207 224.476 73.7461 224.361 73.8609C224.246 73.9757 224.063 74.2011 223.954 74.3618C223.846 74.5225 223.663 74.7479 223.548 74.8626C223.433 74.9774 223.25 75.2028 223.141 75.3635C223.032 75.5242 222.813 75.7872 222.654 75.9479C222.494 76.1086 222.275 76.3715 222.166 76.5322C221.942 76.8642 221.532 77.2836 221.431 77.2836C221.332 77.2836 220.607 76.5366 220.378 76.1983C220.269 76.0376 220.086 75.8122 219.971 75.6974C219.856 75.5827 219.673 75.3573 219.564 75.1966C219.456 75.0359 219.273 74.8105 219.158 74.6957C219.043 74.5809 218.859 74.3555 218.751 74.1948C218.642 74.0341 218.423 73.7712 218.264 73.6105C218.104 73.4498 217.885 73.1868 217.776 73.0261C217.668 72.8654 217.485 72.64 217.369 72.5252C217.254 72.4104 217.071 72.185 216.962 72.0243C216.853 71.8636 216.494 71.4599 216.164 71.1269L215.564 70.5217H215.091C214.638 70.5217 214.602 70.5376 214.246 70.904ZM172.858 73.1765C174.365 73.4461 175.543 73.9328 176.291 74.594C176.415 74.7038 176.612 74.8519 176.729 74.9229C176.846 74.994 177.003 75.1585 177.078 75.2883C177.152 75.4182 177.26 75.5727 177.316 75.6318C177.498 75.8222 177.939 76.5176 177.939 76.6141C177.939 76.6655 178.001 76.8277 178.076 76.9747C178.275 77.3613 178.368 77.9661 178.368 78.8697C178.368 79.7733 178.275 80.3781 178.076 80.7647C178.001 80.9117 177.939 81.0739 177.939 81.1253C177.939 81.2217 177.498 81.9171 177.316 82.1075C177.26 82.1666 177.152 82.3211 177.078 82.451C177.003 82.5808 176.841 82.748 176.719 82.8223C176.596 82.8966 176.374 83.0742 176.226 83.2169C175.796 83.6287 174.662 84.1862 173.834 84.3923C172.889 84.6275 172.542 84.6561 170.541 84.6635L168.387 84.6715L168.366 78.9531C168.354 75.8081 168.363 73.1865 168.385 73.1276C168.416 73.043 168.842 73.0277 170.397 73.0548C171.483 73.0738 172.59 73.1285 172.858 73.1765ZM127.038 76.3861C128.478 79.4406 128.675 79.8834 128.629 79.9597C128.601 80.0058 127.674 80.0384 126.389 80.0384C124.454 80.0384 124.19 80.0227 124.146 79.9049C124.118 79.8314 124.215 79.5027 124.361 79.1745C124.507 78.8461 124.809 78.1643 125.033 77.6592C125.257 77.1542 125.582 76.4305 125.755 76.051C125.929 75.6716 126.071 75.3128 126.071 75.2537C126.071 75.1451 126.227 74.9461 126.313 74.9461C126.338 74.9461 126.665 75.5941 127.038 76.3861ZM157.058 75.4515C157.176 75.7015 157.428 76.263 157.617 76.6992C157.807 77.1354 157.993 77.558 158.032 77.6383C158.872 79.3809 159.027 79.7757 158.92 79.9077C158.829 80.0202 158.521 80.0384 156.708 80.0384C154.866 80.0384 154.595 80.0219 154.552 79.9069C154.498 79.7608 154.614 79.4642 155.418 77.701C155.722 77.0352 156.128 76.1426 156.322 75.7172C156.515 75.292 156.712 74.9559 156.758 74.9704C156.804 74.985 156.939 75.2015 157.058 75.4515Z" fill="white"/>
<path fill-rule="evenodd" clip-rule="evenodd" d="M89.3742 47.0404C89.3394 47.0762 88.9937 47.1298 88.606 47.1594C88.2183 47.1891 87.7366 47.2565 87.5353 47.3094C87.3341 47.3622 87.0232 47.4429 86.8443 47.4888C86.6654 47.5348 86.3911 47.6061 86.2346 47.6475C86.0781 47.6888 85.7473 47.7758 85.4995 47.8408C85.2517 47.9057 84.9774 48.0009 84.8897 48.0522C84.8022 48.1033 84.4467 48.2399 84.0998 48.3555C83.4715 48.565 81.8357 49.364 81.4254 49.662C81.3067 49.7481 81.1604 49.8188 81.1002 49.8188C81.0401 49.8188 80.881 49.9164 80.7469 50.0355C80.6128 50.1547 80.3696 50.3224 80.2066 50.4083C80.0436 50.4942 79.8607 50.6139 79.8001 50.6743C79.7395 50.7348 79.562 50.8759 79.4055 50.9879C79.249 51.0999 79.05 51.2583 78.9633 51.3399C78.8766 51.4215 78.7433 51.4883 78.6669 51.4883C78.5907 51.4883 78.4421 51.586 78.3368 51.7054C77.8248 52.2862 77.4788 52.5735 77.2916 52.5735C77.2215 52.5735 77.1012 52.6829 77.0243 52.8166C76.8772 53.0723 76.611 53.393 75.9682 54.0889C75.7546 54.3203 75.5088 54.6523 75.4222 54.8268C75.3355 55.0013 75.2165 55.1948 75.1576 55.257C75.0987 55.3192 74.9609 55.5016 74.8512 55.6623C74.5197 56.148 74.4189 56.2718 74.0907 56.5963C73.8798 56.805 73.7927 56.9526 73.8268 57.0438C73.855 57.1191 73.8093 57.2794 73.7248 57.4021C73.5291 57.6862 72.6985 59.3883 72.5276 59.8553C72.212 60.7178 71.6541 62.411 71.5849 62.7163C71.5433 62.8999 71.4738 63.238 71.4305 63.4676C71.3871 63.6972 71.3139 64.0728 71.2676 64.3024C70.9097 66.0796 70.9111 69.9367 71.2702 71.7529C71.3179 71.994 71.3912 72.3696 71.4331 72.5877C71.5831 73.3686 71.6657 73.6671 72.0274 74.7373C72.6547 76.5937 72.583 76.4321 73.7834 78.6972C74.013 79.1305 74.2314 79.5061 74.2687 79.532C74.306 79.558 74.4957 79.8233 74.6901 80.1218C74.8846 80.4202 75.0666 80.6832 75.0944 80.7061C75.1223 80.7291 75.2331 80.8794 75.3406 81.0401C75.4481 81.2008 75.5953 81.3886 75.6677 81.4575C75.8898 81.6688 76.2348 82.2392 76.2348 82.3951C76.2348 82.4856 76.296 82.5427 76.3928 82.5427C76.4805 82.5427 76.612 82.6491 76.6884 82.7818C76.7641 82.9133 76.9317 83.0851 77.0611 83.1635C77.1903 83.2419 77.3774 83.3888 77.4768 83.4897C77.5762 83.5907 77.7856 83.7649 77.9421 83.8769C78.0986 83.989 78.3181 84.1783 78.4299 84.2977C78.5417 84.4171 78.8709 84.6796 79.1616 84.8812C79.4522 85.0827 79.7512 85.3059 79.826 85.3769C80.0394 85.5797 81.5642 86.4956 82.3906 86.9174C83.2192 87.3404 83.3879 87.4098 84.8409 87.9245C85.3935 88.1202 85.8691 88.3173 85.8978 88.3626C85.9265 88.4078 86.0781 88.4461 86.2346 88.4477C86.3911 88.4494 86.6745 88.4925 86.8646 88.5437C87.0547 88.5949 87.3656 88.6782 87.5557 88.7289C88.4213 88.96 89.6926 88.9897 99.0798 88.9981C107.909 89.006 108.839 88.9942 109.275 88.8679C110.303 88.5707 110.881 87.551 111.579 86.8131C111.945 86.4262 111.931 86.8441 111.927 75.9355C111.924 70.2835 111.896 65.6168 111.864 65.5651C111.833 65.5134 111.778 65.2551 111.744 64.9911C111.506 63.1752 110.904 61.5335 110.367 59.7945C110.192 59.2254 109.829 58.7044 109.57 58.1742C108.773 56.5397 107.593 54.6188 106.246 53.3761C105.825 52.9877 105.509 52.4821 105.035 52.1685C104.622 51.8953 104.053 51.4896 103.702 51.1308C103.204 50.6223 100.466 49.0164 99.3858 48.5997C98.5667 48.2836 96.9009 47.7039 96.6205 47.6372C96.4528 47.5974 96.1601 47.5248 95.9701 47.476C95.4767 47.3494 94.898 47.2347 94.2425 47.1336C93.5518 47.0272 89.4629 46.9488 89.3742 47.0404ZM125.502 49.1381C125.39 49.2203 124.994 49.3883 124.622 49.5114C124.057 49.6985 122.8 50.3723 122.656 50.5652C122.634 50.5952 122.488 50.7112 122.331 50.8231C122.175 50.9349 121.93 51.1457 121.787 51.2915C121.644 51.4374 121.421 51.6216 121.29 51.7008C121.159 51.78 120.92 52.0745 120.757 52.3553C120.595 52.636 120.32 53.0993 120.147 53.3848C119.974 53.6702 119.776 54.0646 119.707 54.2613C119.639 54.4579 119.519 54.7878 119.441 54.9944C119.195 55.6459 119.136 56.1635 119.136 57.6658C119.136 60.1839 119.922 62.234 121.599 64.0141C122.747 65.2311 124.431 66.0086 126.03 66.3653C126.543 66.4795 128.661 66.4836 129.201 66.3714C129.835 66.2395 131.038 65.8033 131.671 65.4762C131.81 65.404 132.65 64.845 132.733 64.845C132.772 64.845 133.121 65.1648 133.509 65.5558C134.407 66.4615 134.57 66.55 135.206 66.476C135.476 66.4447 135.758 66.3856 135.832 66.3448C136.016 66.2438 136.13 65.9034 136.183 65.2979C136.235 64.7109 136.207 64.6559 135.483 63.9002C135.144 63.5473 135.022 63.3632 135.062 63.268C135.126 63.1151 135.124 62.9972 135.048 62.608C135.005 62.3895 135.043 62.2519 135.229 61.9402C135.436 61.5952 135.796 60.5629 136.065 59.5441C136.266 58.7811 136.221 56.4036 135.988 55.4953C135.935 55.2887 135.874 54.9284 135.852 54.6947C135.824 54.3861 135.75 54.1933 135.581 53.9904C135.453 53.8367 135.212 53.4704 135.044 53.1764C134.877 52.8824 134.582 52.4702 134.389 52.2605C134.196 52.0508 134.038 51.8259 134.038 51.7607C134.038 51.6085 133.598 51.1544 133.45 51.1544C133.388 51.1544 133.26 51.0804 133.165 50.99C132.887 50.7238 131.575 49.8623 131.27 49.7455C131.116 49.6863 130.861 49.5792 130.705 49.5075C130.548 49.4358 130.274 49.3433 130.095 49.3019C129.916 49.2605 129.624 49.1839 129.445 49.1316C129.165 49.0497 126.537 49.0012 126.091 49.0696C126.013 49.0816 125.894 49.0684 125.827 49.0401C125.76 49.0117 125.614 49.0558 125.502 49.1381ZM144.152 49.727C143.759 50.1306 143.55 50.411 143.55 50.5339C143.55 50.5982 143.417 50.9425 143.254 51.299C143.091 51.6556 142.932 52.0038 142.901 52.0726C142.87 52.1415 142.806 52.273 142.761 52.3648C142.715 52.4566 142.522 52.8886 142.332 53.3248C141.921 54.2678 141.199 55.8946 141.1 56.1005C141.061 56.1809 140.998 56.3124 140.959 56.3927C140.921 56.4731 140.733 56.8957 140.543 57.3318C139.795 59.0486 139.362 60.0104 138.826 61.1518C138.518 61.8064 138.266 62.3993 138.266 62.4692C138.266 62.5391 138.209 62.6184 138.141 62.6456C137.988 62.7058 137.778 63.1058 137.778 63.3366C137.778 63.485 137.494 64.1791 137.157 64.8579C137.004 65.1637 137.015 65.2218 137.27 65.5028C137.393 65.6383 137.571 65.8368 137.666 65.944C137.76 66.0512 138.003 66.1889 138.206 66.25C138.525 66.3463 138.607 66.3435 138.823 66.2287C139.283 65.9843 139.487 65.6737 140.347 63.9102C140.818 62.9444 141.297 62.0084 141.412 61.8301L141.621 61.5058H144.937H148.254L148.405 61.7032C148.488 61.8117 148.622 62.0652 148.704 62.2667C148.785 62.468 148.904 62.7267 148.968 62.8415C149.033 62.9563 149.142 63.1817 149.211 63.3424C149.773 64.6508 150.476 65.9926 150.64 66.071C151.195 66.3359 151.251 66.3418 151.68 66.1807C151.911 66.0942 152.154 65.977 152.22 65.9203C152.427 65.7441 152.574 65.3687 152.574 65.0183C152.574 64.6683 152.531 64.5522 151.761 62.8415C151.503 62.2676 151.173 61.5163 151.028 61.1719C150.883 60.8276 150.714 60.4519 150.651 60.3371C150.338 59.7637 149.99 59.0035 149.887 58.6675C149.824 58.4609 149.662 58.1029 149.527 57.8721C149.392 57.6412 149.214 57.2843 149.132 57.0791C149.05 56.8737 148.803 56.3019 148.583 55.8083C148.364 55.3148 147.997 54.4884 147.768 53.9718C145.947 49.8638 145.953 49.8753 145.59 49.6662C145.374 49.5414 145.137 49.4848 144.832 49.4848C144.45 49.4848 144.354 49.5187 144.152 49.727ZM93.5108 51.6501C94.1796 51.7299 94.7152 51.8287 95.3197 51.9839C95.5097 52.0327 95.8024 52.1052 95.9701 52.145C96.2741 52.2172 96.5436 52.3154 97.3522 52.6482C97.5869 52.7449 97.9599 52.8952 98.1812 52.9821C98.4025 53.0691 98.6859 53.2145 98.8113 53.3053C98.9366 53.3961 99.222 53.5654 99.4456 53.6815C99.6692 53.7977 99.9436 53.9751 100.055 54.076C100.167 54.1769 100.396 54.3316 100.563 54.4199C100.731 54.5081 100.868 54.6164 100.868 54.6605C100.868 54.7046 101.006 54.8129 101.175 54.9013C101.707 55.1797 103.087 56.5454 103.633 57.3331C104.874 59.1214 106.047 60.6685 106.735 62.7831C108.329 67.6848 107.534 73.076 104.743 77.3252C104.626 77.5023 104.202 77.894 104.202 78.1322C104.202 78.3096 104.477 78.6854 104.71 78.8269C104.917 78.9524 106.743 80.7884 107.256 81.3865C107.944 82.1893 108.836 82.6003 108.836 83.779C108.836 84.7247 107.897 85.8809 106.944 85.8815C106 85.8822 106.002 85.8831 103.575 83.3984C102.353 82.1472 101.3 81.1235 101.235 81.1235C100.944 81.1235 100.486 81.6999 100.24 81.8464C96.5433 84.0473 92.5878 85.1051 88.3077 84.2231C86.9643 83.9461 85.5099 83.4243 84.1918 82.7461C83.1535 82.2119 82.0198 81.4945 81.7631 81.2094C81.6961 81.1348 81.5131 80.9825 81.3566 80.8709C80.9398 80.5737 79.2429 78.7948 79.2429 78.655C79.2429 78.5894 79.1893 78.5357 79.1238 78.5357C79.0583 78.5357 78.967 78.4635 78.9211 78.3752C78.8751 78.287 78.7903 78.1649 78.7326 78.1039C78.6749 78.043 78.5393 77.8616 78.4311 77.7009C78.323 77.5402 78.212 77.3899 78.1845 77.367C78.0279 77.236 77.5702 76.4354 77.0946 75.4602C76.5555 74.3548 75.9514 72.6808 75.817 71.9199C75.7786 71.7018 75.7078 71.3261 75.6597 71.0851C75.4074 69.8184 75.3209 67.2788 75.4913 66.1389C75.6781 64.8903 75.7377 64.5404 75.8221 64.198C75.8703 64.0029 75.9421 63.7024 75.9819 63.5302C76.0982 63.0265 76.3614 62.2537 76.6005 61.7145C77.2928 60.1536 77.5478 59.6649 77.7366 59.5379C77.8723 59.4465 77.9421 59.3232 77.9421 59.1746C77.9421 59.0508 78.0071 58.8766 78.0866 58.7876C78.1661 58.6986 78.3197 58.4943 78.4282 58.3336C78.5366 58.1729 78.6471 58.0226 78.6738 57.9997C78.7004 57.9767 78.8117 57.8265 78.9211 57.6658C79.1789 57.2868 80.9875 55.4296 81.3566 55.1649C81.5131 55.0526 81.6595 54.9383 81.6818 54.9109C81.7042 54.8836 81.8505 54.7709 82.007 54.6605C82.1635 54.5501 82.3099 54.4368 82.3322 54.4086C82.4252 54.2913 83.1412 53.8257 83.2286 53.8257C83.2807 53.8257 83.4205 53.7552 83.5392 53.6691C84.0007 53.3341 85.3163 52.717 86.2609 52.3924C87.6213 51.925 88.3008 51.7655 89.3377 51.6706C89.6805 51.6392 89.9915 51.5816 90.0287 51.5425C90.107 51.4603 92.5535 51.5359 93.5108 51.6501ZM128.51 51.6501C129.534 51.7549 130.493 52.165 131.451 52.9074C132.277 53.5478 133.175 54.8293 133.428 55.7296C133.502 55.991 133.598 56.3364 133.643 56.497C133.739 56.8415 133.691 58.8127 133.576 59.2936C133.47 59.7358 133.181 60.3048 133.032 60.3635C132.966 60.3893 132.901 60.4942 132.886 60.5968C132.846 60.8746 132.714 60.8715 132.423 60.5855C131.955 60.1267 131.19 59.6693 130.89 59.6693C130.55 59.6693 129.944 60.0758 129.77 60.4203C129.49 60.9775 129.661 61.6077 130.259 62.2222C131.465 63.4604 128.308 63.8433 127.623 63.8433C125.071 63.8433 122.477 62.1117 121.771 59.5023C120.991 56.6103 122.247 53.253 125.136 52.1037C125.27 52.0503 125.581 51.9276 125.826 51.831C126.099 51.7235 126.462 51.6547 126.761 51.654C127.03 51.6532 127.305 51.6148 127.372 51.5685C127.439 51.5222 127.585 51.5076 127.697 51.536C127.809 51.5645 128.175 51.6158 128.51 51.6501ZM145.289 54.7648C145.44 55.0977 145.755 55.8021 145.989 56.3301C146.223 56.8581 146.558 57.6022 146.732 57.9838C146.907 58.3653 147.028 58.7128 147.002 58.756C146.975 58.8016 146.105 58.8345 144.925 58.8345C143.132 58.8345 142.889 58.8187 142.844 58.6998C142.816 58.6234 142.944 58.2355 143.141 57.8024C143.332 57.3829 143.702 56.5701 143.963 55.9962C144.225 55.4222 144.46 54.8713 144.486 54.7717C144.542 54.5528 144.833 54.1596 144.939 54.1596C144.981 54.1596 145.138 54.432 145.289 54.7648ZM90.2995 55.7432C90.2324 55.7891 89.9972 55.8272 89.7768 55.828C89.5564 55.8286 89.2637 55.8643 89.1264 55.907C88.9891 55.9498 88.7121 56.0275 88.5109 56.0796C87.6681 56.298 87.4049 56.3934 86.3972 56.8461C85.7204 57.15 84.3476 58.0382 83.9673 58.4182C83.7598 58.6254 83.4626 58.8876 83.3067 59.0008C82.9485 59.2607 82.7471 59.4678 82.4934 59.8362C82.3829 59.9969 82.1642 60.265 82.0074 60.4319C81.5882 60.8786 80.6178 62.575 80.3363 63.3532C80.2638 63.5538 80.1479 63.8683 80.0787 64.052C79.7513 64.9215 79.4756 66.7387 79.4771 68.0172C79.4781 68.8262 79.6061 70.2143 79.7216 70.6677C79.7713 70.8628 79.8445 71.1634 79.8842 71.3356C80.0323 71.9773 80.2951 72.6859 80.6683 73.4498C81.0145 74.1586 81.464 74.9196 81.6013 75.0295C81.63 75.0525 81.8135 75.3154 82.0091 75.6139C82.2048 75.9123 82.4308 76.2293 82.5112 76.3184C82.5916 76.4074 82.6574 76.5477 82.6574 76.6302C82.6574 76.7296 82.8202 76.8646 83.1401 77.0304C83.4056 77.168 83.7074 77.3666 83.8108 77.4716C83.9142 77.5767 84.1269 77.754 84.2834 77.8657C84.4399 77.9772 84.5862 78.0916 84.6086 78.1198C84.7213 78.262 85.4644 78.7239 86.142 79.0729C86.962 79.4953 88.1413 79.9311 88.7955 80.0534C89.019 80.0952 89.4215 80.17 89.6898 80.2198C89.958 80.2695 90.7446 80.3101 91.4377 80.3101C92.1307 80.3101 92.9173 80.2695 93.1856 80.2198C93.4539 80.17 93.8563 80.0957 94.0799 80.0545C94.3035 80.0133 94.9878 79.805 95.6008 79.5915C96.2137 79.3781 96.7808 79.2028 96.861 79.202C97.0039 79.2005 97.4009 78.9136 97.7331 78.5716C97.8254 78.4766 98.0838 78.2725 98.3074 78.118C98.531 77.9635 98.7322 77.8141 98.7546 77.7859C98.7769 77.7576 98.9233 77.643 99.0798 77.5311C99.5086 77.2244 99.6623 77.0939 99.8467 76.8797C99.9391 76.7723 100.125 76.5657 100.26 76.4205C100.395 76.2753 100.595 76.025 100.706 75.8643C101.027 75.3972 101.137 75.2599 101.417 74.9751C101.562 74.8276 101.681 74.6671 101.681 74.6186C101.681 74.5701 101.897 74.0698 102.161 73.5069C102.803 72.137 102.912 71.8741 102.998 71.4816C103.038 71.298 103.109 70.9975 103.155 70.8138C103.352 70.0271 103.41 69.3926 103.41 68.0172C103.41 66.6301 103.355 66.0338 103.147 65.1789C103.097 64.9723 103.026 64.6718 102.99 64.5111C102.911 64.1601 102.788 63.866 102.161 62.5276C101.897 61.9647 101.681 61.4644 101.681 61.4159C101.681 61.3673 101.562 61.205 101.417 61.0551C101.071 60.6982 100.791 60.3612 100.543 60.0023C100.279 59.6213 99.4407 58.7623 99.0798 58.5037C98.9233 58.3916 98.7769 58.2762 98.7546 58.2474C98.6338 58.0915 97.3905 57.3009 96.7322 56.9614C95.1011 56.1202 93.646 55.7697 91.4783 55.6959C90.8479 55.6744 90.3723 55.6936 90.2995 55.7432ZM92.9359 60.4146C93.0732 60.4572 93.46 60.5768 93.7953 60.6804C94.5561 60.9155 94.8951 61.0852 95.6652 61.6166C96.3079 62.0602 96.6372 62.376 96.8591 62.7618C96.9331 62.8903 97.0779 63.0418 97.1811 63.0984C97.3851 63.2106 98.0957 64.2786 98.3015 64.7824C98.3718 64.9546 98.4895 65.2364 98.5631 65.4085C98.7999 65.9629 99.0051 67.2057 99.0076 68.1007C99.0098 68.8793 98.7957 70.0815 98.5541 70.6468C97.9428 72.0774 97.6423 72.6049 97.3461 72.7677C97.2416 72.8252 97.0943 72.9797 97.0187 73.1111C96.6972 73.6698 95.4581 74.6953 95.1038 74.6958C95.0325 74.6959 94.856 74.7992 94.7114 74.9253C94.5635 75.0546 94.1728 75.2388 93.8171 75.3472C93.4698 75.453 93.0641 75.5785 92.9158 75.626C92.5755 75.7349 90.3057 75.7351 89.9532 75.6262C89.5696 75.5078 88.6763 75.1993 88.3576 75.0753C88.2061 75.0163 88.0488 74.9068 88.008 74.8318C87.9672 74.7569 87.8731 74.6956 87.7988 74.6956C87.2964 74.6956 85.8633 73.2729 85.5831 72.8591C84.9611 71.9401 84.3662 70.9055 84.0961 69.812C83.7847 68.552 83.8924 67.0657 84.2179 65.8154C84.4138 65.0644 84.9123 63.9856 85.4155 63.4325C85.5544 63.2799 85.7303 63.0468 85.8063 62.9147C85.8822 62.7826 85.969 62.6745 85.9991 62.6745C86.0292 62.6745 86.216 62.5149 86.4143 62.3198C86.6127 62.1246 86.8601 61.8947 86.9643 61.8088C87.2296 61.59 88.097 61.0686 88.389 60.9525C88.5231 60.8992 88.8245 60.7799 89.0587 60.6874C89.2929 60.5949 89.549 60.5364 89.6278 60.5573C89.7066 60.5784 89.8442 60.5386 89.9337 60.469C90.0628 60.3685 90.3627 60.3419 91.3913 60.3398C92.1035 60.3383 92.7986 60.3719 92.9359 60.4146Z" fill="white"/>
</svg>
