<svg width="300" height="135" viewBox="0 0 300 135" fill="none" xmlns="http://www.w3.org/2000/svg">
<path fill-rule="evenodd" clip-rule="evenodd" d="M232.385 74.6162L233.676 77.9892L232.385 74.6162ZM75.6219 67.6108L74.8471 69.427C75.1053 69.427 75.1053 69.427 75.3636 69.427C76.1384 69.427 76.3966 69.427 76.9132 69.1676C77.1714 69.1676 77.4297 68.9081 77.4297 68.6486C77.4297 68.3892 77.4297 68.1297 77.4297 67.8703C77.1714 67.6108 76.9132 67.6108 76.3966 67.6108C76.1384 67.6108 75.6219 67.6108 75.6219 67.6108ZM223.862 60.8649H228.511L224.895 72.8H220.246L223.862 60.8649ZM160.072 52.0432C158.523 50.4865 155.424 51.2649 152.841 52.3027C152.841 52.5622 152.841 52.8216 152.841 53.0811C152.841 56.7135 151.292 59.5676 148.709 61.1243C150.258 61.1243 152.325 60.6054 154.391 59.3081C158.523 56.973 161.364 53.8595 160.072 52.0432ZM233.418 74.6162H189.256L189.772 77.9892H234.451L233.418 74.6162ZM66.3246 84.4757L66.0663 86.0324H68.9072C68.3906 87.0703 67.6159 87.3297 66.5828 87.3297C66.0663 87.3297 65.2915 87.3297 64.775 87.0703L64.0002 89.1459C65.0333 89.4054 66.0663 89.4054 66.5828 89.4054C70.4567 89.4054 72.2645 87.0703 72.2645 84.4757C72.2645 82.9189 71.4897 81.8811 69.9402 81.3622C68.9072 81.1027 67.6159 81.1027 66.3246 81.3622L65.8081 83.4378C66.8411 83.1784 68.9072 82.9189 69.1654 84.4757H66.3246ZM73.5558 83.4378L72.2645 89.4054H75.1053L75.6219 87.0703H76.6549L76.1384 89.4054H78.9792L80.2705 83.4378H77.4297L76.9132 85.5135H75.8801L76.3966 83.4378H73.5558ZM87.2435 87.0703V86.8108C87.5017 86.2919 87.5017 86.0324 87.5017 85.5135C87.5017 85.2541 87.5017 84.9946 87.2435 84.7351C87.2435 84.2162 86.4687 83.1784 84.6609 83.1784C81.5618 83.1784 80.5288 85.773 80.5288 87.0703C80.5288 87.8486 80.787 88.3676 81.3035 88.8865C82.0783 89.4054 82.8531 89.4054 83.6279 89.4054C84.4026 89.4054 85.4357 89.4054 86.4687 89.1459L86.727 87.5892C85.9522 87.8486 85.1774 88.1081 84.4026 88.1081C83.1114 88.1081 83.1114 87.3297 83.1114 87.0703H87.2435ZM83.3696 85.773C83.6279 84.7351 84.1444 84.7351 84.4026 84.7351C84.6609 84.7351 84.9192 84.7351 84.9192 85.2541C84.9192 85.5135 84.9192 85.5135 84.9192 85.773H83.3696ZM91.6339 83.4378H88.793L86.9852 91.7405H90.0843L90.6008 88.627C91.1174 89.4054 91.8921 89.4054 92.4087 89.4054C94.2165 89.4054 95.766 87.8486 95.766 85.5135C95.766 83.4378 94.2165 83.1784 93.6999 83.1784C92.6669 83.1784 91.8921 83.6973 91.3756 84.4757L91.6339 83.4378ZM91.8921 85.2541C92.1504 85.2541 92.6669 85.2541 92.6669 85.773C92.6669 86.0324 92.4087 86.8108 92.4087 87.0703C92.1504 87.5892 91.6339 87.5892 91.3756 87.5892C91.3756 87.5892 90.8591 87.5892 90.8591 87.0703C90.8591 86.5514 91.1174 86.2919 91.1174 85.773C91.3756 85.2541 91.6339 85.2541 91.8921 85.2541ZM101.706 84.9946L101.964 83.4378H97.0573L95.766 89.4054H98.6068L99.6399 84.9946H101.706ZM106.871 83.4378L105.063 86.0324L105.58 83.4378H102.997L101.706 89.4054H104.547L106.355 86.5514H106.613L105.838 89.4054H108.679L109.712 83.4378H106.871ZM117.46 83.4378H113.069C111.262 83.4378 110.228 84.4757 110.228 85.773C110.228 86.5514 110.745 86.8108 111.262 87.0703L109.454 89.4054H112.295L113.586 87.3297H113.844L113.328 89.4054H116.427L117.46 83.4378ZM114.361 84.7351L114.102 86.0324H113.844C113.586 86.0324 113.328 86.0324 113.328 85.5135C113.328 85.2541 113.328 84.7351 114.102 84.7351H114.361ZM121.592 83.4378L121.334 84.9946H122.883L122.108 89.4054H124.949L125.724 84.9946H127.532L127.79 83.4378H121.592ZM128.565 83.4378L127.274 89.4054H131.664C133.472 89.4054 134.246 88.3676 134.246 87.3297C134.246 86.8108 133.73 86.2919 133.213 86.2919C134.246 86.0324 134.505 85.2541 134.505 84.4757C134.505 83.4378 133.213 83.4378 132.955 83.4378H128.565ZM130.889 84.7351H131.147C131.406 84.7351 131.922 84.7351 131.922 84.9946C131.922 85.2541 131.922 85.773 130.889 85.773H130.631L130.889 84.7351ZM130.373 86.8108H130.889C131.147 86.8108 131.664 86.8108 131.664 87.3297C131.664 87.5892 131.406 88.1081 130.631 88.1081H130.114L130.373 86.8108ZM139.67 83.1784C136.571 83.1784 135.021 85.2541 135.021 87.0703C135.021 87.8486 135.538 89.4054 138.379 89.4054C141.219 89.4054 142.769 87.5892 142.769 85.773C142.769 84.4757 141.994 83.1784 139.67 83.1784ZM139.153 84.9946C139.67 84.9946 139.67 85.2541 139.67 85.5135C139.67 86.0324 139.67 86.5514 139.412 87.0703C139.412 87.3297 139.153 87.8486 138.637 87.8486C138.379 87.8486 138.12 87.5892 138.12 87.0703C138.12 86.8108 138.379 85.773 138.637 85.5135C138.637 85.2541 138.895 84.9946 139.153 84.9946ZM150 87.0703V86.8108C150.258 86.2919 150.258 86.0324 150.258 85.5135C150.258 85.2541 150.258 84.9946 150 84.7351C150 84.2162 149.225 83.1784 147.418 83.1784C144.319 83.1784 143.286 85.773 143.286 87.0703C143.286 87.8486 143.544 88.3676 144.06 88.8865C144.577 89.4054 145.61 89.4054 146.385 89.4054C147.159 89.4054 148.192 89.4054 149.225 89.1459L149.484 87.5892C148.709 87.8486 147.934 88.1081 147.159 88.1081C145.868 88.1081 145.868 87.3297 145.868 87.0703H150ZM146.126 85.773C146.385 84.7351 146.901 84.7351 147.159 84.7351C147.418 84.7351 147.676 84.7351 147.676 85.2541C147.676 85.5135 147.676 85.5135 147.676 85.773H146.126ZM156.198 84.9946L156.715 83.4378H151.55L150.258 89.4054H153.358L154.132 84.9946H156.198ZM160.847 83.1784C158.006 83.1784 156.457 85.2541 156.457 87.0703C156.457 87.8486 156.973 89.4054 159.814 89.4054C162.397 89.4054 164.204 87.5892 164.204 85.773C164.204 84.4757 163.43 83.1784 160.847 83.1784ZM160.589 84.9946C161.105 84.9946 161.105 85.2541 161.105 85.5135C161.105 86.0324 160.847 86.5514 160.847 87.0703C160.589 87.3297 160.331 87.8486 160.072 87.8486C159.814 87.8486 159.556 87.5892 159.556 87.0703C159.556 86.8108 159.814 85.773 160.072 85.5135C160.072 85.2541 160.331 84.9946 160.589 84.9946ZM176.084 80.3243C175.568 80.5838 175.051 80.8432 174.277 80.8432C172.985 80.8432 171.694 80.8432 170.403 81.6216C168.853 82.6595 168.078 84.9946 168.078 86.8108C168.078 87.8486 168.337 89.4054 171.177 89.4054C174.535 89.4054 175.568 87.3297 175.568 86.0324C175.568 84.4757 174.277 83.6973 172.727 83.6973C171.952 83.6973 170.919 83.9568 170.144 84.7351V84.4757C170.403 83.6973 171.177 83.1784 171.694 83.1784C172.469 82.9189 172.985 82.9189 174.018 82.9189C174.793 82.9189 175.31 82.6595 175.568 82.4L176.084 80.3243ZM171.436 87.8486C171.177 87.8486 170.919 87.3297 170.919 87.3297C170.919 86.8108 171.177 86.2919 171.177 86.0324C171.436 85.5135 171.694 85.5135 171.952 85.5135C172.469 85.5135 172.469 85.773 172.469 86.0324C172.469 86.0324 172.469 86.2919 172.469 86.5514C172.21 87.0703 171.952 87.8486 171.436 87.8486ZM176.343 83.4378L177.117 89.4054V89.6649C176.859 90.1838 176.343 90.1838 176.084 90.1838C175.826 90.1838 175.568 90.1838 175.31 89.9243L175.051 91.7405C175.568 92 176.084 92 176.601 92C178.409 92 179.442 91.2216 180.475 89.6649L183.574 83.4378H180.733L179.442 87.0703H179.183V83.4378H176.343ZM191.063 83.4378H185.123L184.865 84.4757C184.607 85.773 184.349 86.8108 183.316 87.5892H182.799L182.024 90.9622H184.865L185.123 89.4054H187.964L187.706 90.9622H190.289L191.063 87.5892H190.289L191.063 83.4378ZM187.448 87.5892H185.898C186.673 86.8108 186.931 86.2919 186.931 85.5135L187.189 84.9946H187.964L187.448 87.5892ZM191.838 83.4378L192.871 89.4054V89.6649C192.613 90.1838 192.096 90.1838 191.838 90.1838C191.58 90.1838 191.322 90.1838 190.805 89.9243L190.547 91.7405C191.063 92 191.838 92 192.355 92C193.904 92 195.195 91.2216 195.97 89.6649L199.328 83.4378H196.487L194.937 87.0703V83.4378H191.838ZM199.844 83.4378L198.553 89.4054H206.559L206.301 90.9622H208.883L209.4 87.5892H208.625L209.658 83.4378H206.817L206.042 87.5892H205.009L206.042 83.4378H203.46L202.427 87.5892H201.652L202.427 83.4378H199.844ZM216.889 87.0703L217.147 86.8108C217.147 86.2919 217.147 86.0324 217.147 85.5135C217.147 85.2541 217.147 84.9946 217.147 84.7351C216.889 84.2162 216.373 83.1784 214.307 83.1784C211.207 83.1784 210.174 85.773 210.174 87.0703C210.174 87.8486 210.433 88.3676 210.949 88.8865C211.724 89.4054 212.757 89.4054 213.274 89.4054C214.048 89.4054 215.081 89.4054 216.114 89.1459L216.373 87.5892C215.856 87.8486 214.823 88.1081 214.048 88.1081C213.015 88.1081 212.757 87.3297 213.015 87.0703H216.889ZM213.274 85.773C213.274 84.7351 214.048 84.7351 214.048 84.7351C214.307 84.7351 214.823 84.7351 214.823 85.2541C214.823 85.5135 214.823 85.5135 214.565 85.773H213.274ZM223.087 84.9946L223.604 83.4378H218.439L217.406 89.4054H220.246L221.021 84.9946H223.087ZM227.994 83.1784C224.895 83.1784 223.346 85.2541 223.346 87.0703C223.346 87.8486 223.862 89.4054 226.703 89.4054C229.544 89.4054 231.093 87.5892 231.093 85.773C231.093 84.4757 230.319 83.1784 227.994 83.1784ZM227.478 84.9946C227.994 84.9946 227.994 85.2541 227.994 85.5135C227.994 86.0324 227.736 86.5514 227.736 87.0703C227.478 87.3297 227.478 87.8486 226.961 87.8486C226.703 87.8486 226.445 87.5892 226.445 87.0703C226.445 86.8108 226.703 85.773 226.961 85.5135C226.961 85.2541 227.219 84.9946 227.478 84.9946ZM232.901 81.3622L232.385 86.2919H234.451L236 81.3622H232.901ZM231.868 87.0703L231.61 89.4054H233.934L234.451 87.0703H231.868ZM230.06 63.7189H234.967L231.352 67.8703L232.901 72.8H227.736L226.703 67.8703L230.06 63.7189ZM209.916 63.7189H214.565L213.532 66.573H216.373L217.147 63.7189H221.796L218.955 72.8H214.307L215.34 69.427H212.757L211.724 72.8H207.075L209.916 63.7189ZM187.964 64.2378C189.772 63.7189 191.322 63.4595 192.355 63.4595C193.904 63.4595 194.679 63.7189 195.454 64.2378C195.97 65.0162 196.228 65.7946 196.228 67.0919C196.228 67.3514 195.97 67.6108 195.97 68.1297C195.712 68.6486 195.454 69.1676 195.195 69.6865C194.937 70.2054 194.421 70.7243 193.904 71.2432C193.388 71.5027 192.871 72.0216 192.096 72.2811C191.322 72.5405 190.547 72.8 189.772 72.8C189.256 73.0595 188.739 73.0595 187.964 73.0595C186.931 73.0595 186.156 72.8 185.64 72.5405L186.415 78.2486H182.283V73.5784L179.958 78.2486H175.826L175.051 73.5784L173.502 78.2486H169.37L173.243 69.6865H177.634L178.667 73.8378L180.475 69.6865H183.316C183.316 69.427 183.316 68.9081 183.316 68.3892L184.607 64.2378C185.123 62.9405 185.64 62.1622 186.673 61.3838C187.706 60.6054 188.739 60.3459 190.03 60.0865C191.063 59.827 192.355 59.827 193.904 59.5676C195.454 59.5676 196.487 59.5676 197.003 59.5676L195.97 62.9405C194.937 62.6811 194.162 62.4216 192.871 62.4216C192.096 62.4216 191.322 62.6811 190.547 62.6811C189.772 62.9405 189.256 62.9405 188.739 63.2C188.222 63.4595 187.964 63.7189 187.964 63.9784C187.964 64.2378 187.964 64.2378 187.964 64.2378ZM201.394 72.8C201.135 72.8 200.102 73.0595 200.102 73.0595C199.586 73.0595 199.069 73.0595 198.811 73.0595C197.52 73.0595 196.745 72.8 196.228 72.2811C195.712 71.7622 195.454 71.2432 195.712 70.4649C195.97 69.6865 196.228 69.1676 196.745 68.9081C197.003 68.3892 197.52 68.1297 198.036 67.8703C198.553 67.8703 199.328 67.6108 200.102 67.6108C200.877 67.3514 201.394 67.3514 202.168 67.0919C202.427 67.0919 202.685 67.0919 202.685 67.0919C202.943 66.8324 202.943 66.8324 203.201 66.573L202.943 66.3135C202.685 66.3135 202.427 66.3135 202.168 66.3135C201.135 66.3135 199.844 66.573 197.778 67.0919L199.069 64.2378C201.135 63.9784 202.685 63.7189 203.976 63.7189C205.268 63.7189 206.301 63.9784 207.075 64.2378C207.85 64.4973 208.108 65.2757 207.85 65.7946L205.784 72.8H201.394ZM202.168 70.4649L202.427 69.427C201.91 69.6865 201.394 69.6865 201.135 69.6865C200.877 69.9459 200.619 69.9459 200.619 69.9459C200.361 70.2054 200.361 70.2054 200.361 70.2054C200.361 70.4649 200.361 70.4649 200.361 70.7243C200.619 70.7243 200.619 70.7243 200.877 70.7243C201.135 70.7243 201.135 70.7243 201.394 70.7243C201.394 70.7243 201.91 70.4649 202.168 70.4649ZM101.189 74.0973C100.931 72.0216 100.931 69.9459 100.931 67.8703L97.8321 72.8H93.1834L99.6399 63.7189H104.805L105.322 69.6865C106.613 69.6865 107.904 69.427 108.937 69.427C109.712 69.427 110.487 69.427 111.262 69.6865C112.036 69.9459 112.553 70.2054 113.069 70.4649C113.844 71.2432 113.586 72.5405 112.811 73.3189C112.553 73.8378 112.036 74.0973 111.778 74.3568C111.262 74.6162 110.745 74.8757 110.228 74.8757C109.712 75.1351 108.937 75.1351 108.162 75.1351C107.904 75.3946 107.646 75.3946 107.646 75.3946C107.388 75.6541 107.388 75.6541 107.388 75.6541C107.388 75.9135 107.388 75.9135 107.646 75.9135C107.646 76.173 107.904 76.173 108.421 76.173C109.195 76.173 110.487 75.9135 112.295 75.3946L111.52 77.9892C109.97 78.2486 108.421 78.2486 107.129 78.2486C105.838 78.2486 104.805 78.2486 104.03 77.7297C103.255 77.4703 102.739 76.9514 102.739 76.173C102.997 75.3946 103.255 74.8757 103.772 74.3568C104.289 73.8378 104.805 73.5784 105.58 73.3189C106.096 73.3189 107.129 73.0595 108.162 72.8C108.421 72.8 108.679 72.8 108.937 72.8C108.937 72.5405 108.937 72.5405 108.937 72.2811C109.195 72.2811 108.937 72.0216 108.679 72.0216C108.679 72.0216 108.421 71.7622 107.904 71.7622C105.322 71.7622 103.514 73.3189 101.189 74.0973ZM68.3906 74.6162H101.706L100.931 77.9892H67.3576L68.3906 74.6162ZM76.3966 64.7568C76.6549 64.7568 78.4627 64.7568 78.721 64.7568C79.754 64.7568 80.5288 64.7568 81.3035 65.2757C81.8201 65.5351 82.3366 66.0541 82.3366 66.8324C82.5948 67.3514 82.5948 68.1297 82.3366 68.9081C82.0783 69.427 81.8201 70.2054 81.3035 70.7243C80.787 71.2432 80.2705 71.7622 79.4957 72.2811C78.721 72.5405 78.2044 72.8 77.4297 72.8H68.9072L72.5228 60.6054H83.1114L82.3366 63.9784H76.6549L76.3966 64.7568ZM93.4417 69.6865L91.6339 72.5405C89.0513 72.8 85.9522 73.5784 83.8861 71.7622C83.1114 71.2432 82.8531 69.9459 83.3696 68.3892C83.3696 67.8703 83.6279 67.3514 83.8861 66.573C84.4026 66.0541 84.9192 65.5351 85.4357 65.0162C86.2105 64.4973 86.9852 64.2378 87.76 63.9784C89.5678 63.4595 91.6339 63.2 93.1834 64.2378C93.9582 64.4973 94.2165 65.0162 94.4747 65.7946C94.733 66.3135 94.733 67.0919 94.4747 67.8703C94.4747 68.1297 94.4747 68.1297 94.2165 68.3892C94.2165 68.6486 94.2165 68.6486 94.2165 68.9081H87.5017C87.5017 69.6865 88.0183 70.2054 89.3096 70.2054C90.6008 70.2054 92.4087 69.9459 93.4417 69.6865ZM88.0183 67.3514H90.3426V67.0919C90.3426 66.8324 90.3426 66.573 90.3426 66.3135C89.8261 65.7946 89.0513 66.0541 88.793 66.3135C88.2765 66.573 88.2765 66.8324 88.0183 67.3514ZM118.493 78.2486H117.46C116.943 78.2486 116.685 78.5081 116.168 78.5081C115.135 78.5081 114.361 78.2486 113.844 77.7297C113.069 77.2108 112.811 76.6919 113.069 75.9135C113.069 75.3946 113.328 74.8757 113.586 74.3568C113.844 74.0973 114.361 73.8378 114.877 73.5784C115.394 73.3189 115.91 73.3189 116.427 73.0595C117.201 73.0595 117.976 73.0595 118.493 72.8C118.751 72.8 118.751 72.8 119.009 72.8C119.009 72.5405 119.268 72.5405 119.268 72.2811C119.268 72.2811 119.268 72.2811 119.009 72.0216C118.751 72.0216 118.493 72.0216 118.234 72.0216C117.46 72.0216 116.168 72.2811 114.361 72.8L115.135 70.2054C116.943 69.6865 118.493 69.6865 119.526 69.6865C120.817 69.6865 121.85 69.9459 122.625 70.2054C123.141 70.4649 123.658 70.9838 123.658 71.7622L122.883 78.2486H118.493ZM125.207 70.2054C127.015 69.6865 128.565 69.6865 129.856 69.6865C131.406 69.6865 132.439 69.9459 132.955 70.2054C133.472 70.7243 133.73 71.2432 133.73 72.0216C133.73 72.2811 133.472 72.8 133.213 73.0595C132.697 73.3189 132.439 73.5784 131.922 73.8378C132.439 74.0973 132.955 74.3568 133.213 74.6162C133.472 74.8757 133.472 75.3946 133.472 75.9135V76.173C133.213 76.6919 132.955 77.2108 132.439 77.4703C131.922 77.9892 131.406 77.9892 130.631 78.2486C129.856 78.5081 129.081 78.5081 128.048 78.5081C127.015 78.5081 125.724 78.5081 124.433 78.2486V75.6541C125.466 75.9135 126.757 76.4324 128.048 76.4324C128.307 76.4324 128.823 76.4324 129.081 76.173C129.34 75.9135 129.598 75.6541 129.598 75.3946C129.598 74.8757 129.081 74.3568 128.307 73.8378C128.565 73.8378 128.823 73.5784 129.081 73.3189C129.34 73.3189 129.598 73.0595 129.598 72.8C129.598 72.2811 129.598 72.2811 129.081 72.0216C129.081 72.0216 128.823 72.0216 128.565 72.0216C127.274 72.0216 125.982 72.2811 124.691 72.8L125.207 70.2054ZM153.099 72.2811C153.616 72.5405 153.874 73.3189 153.874 74.0973C153.874 74.8757 153.099 75.6541 152.325 75.3946C151.808 75.3946 151.55 74.6162 151.55 73.8378C151.808 72.8 152.325 72.2811 153.099 72.2811ZM135.28 69.6865H139.412V70.4649C139.67 70.2054 140.186 69.9459 140.703 69.6865C141.478 69.427 141.994 69.427 142.769 69.427C143.286 69.427 143.802 69.427 144.319 69.6865C144.835 69.9459 145.352 70.2054 145.61 70.7243C145.868 71.2432 146.126 71.7622 145.868 72.2811L145.352 78.2486H140.961L141.478 73.8378C141.478 73.5784 141.478 73.3189 141.219 73.0595C140.961 72.8 140.961 72.8 140.703 72.8C140.186 72.8 139.928 72.8 139.67 73.3189C139.153 73.5784 139.153 73.8378 138.895 74.6162L138.637 78.2486H134.246L135.28 69.6865ZM163.688 72.8C163.43 73.0595 163.171 73.5784 163.171 73.8378C163.171 74.3568 163.171 74.6162 163.43 75.1351C163.688 75.3946 163.946 75.6541 164.204 75.6541C164.463 75.6541 164.979 75.3946 165.237 75.1351C165.496 74.8757 165.754 74.3568 165.754 74.0973C165.754 73.5784 165.754 73.3189 165.496 72.8C165.237 72.5405 164.979 72.2811 164.721 72.2811C164.463 72.2811 164.204 72.5405 163.688 72.8ZM163.171 69.6865C163.946 69.427 164.721 69.427 165.237 69.427C166.012 69.427 166.529 69.427 167.304 69.6865C167.82 69.9459 168.337 69.9459 168.595 70.4649C169.111 70.7243 169.37 70.9838 169.628 71.5027C169.886 72.0216 170.144 72.2811 170.144 72.8C170.144 73.0595 170.144 73.5784 170.144 73.8378C170.144 74.3568 169.886 74.8757 169.628 75.3946C169.37 75.6541 169.111 76.173 168.595 76.6919C168.337 76.9514 167.82 77.4703 167.304 77.7297C166.787 77.9892 166.012 77.9892 165.496 78.2486C164.721 78.2486 164.204 78.2486 163.688 78.2486C162.655 78.2486 161.622 77.9892 160.847 77.7297C160.072 77.2108 159.556 76.6919 159.298 76.173C159.039 75.3946 158.781 74.6162 158.781 73.8378C159.039 73.0595 159.556 72.0216 160.072 71.2432C160.847 70.4649 161.88 69.9459 163.171 69.6865ZM147.676 69.9459C147.934 69.9459 148.192 69.9459 148.967 69.9459C149.742 69.6865 150.258 69.6865 150.775 69.6865C151.292 69.6865 151.808 69.6865 152.583 69.6865C155.424 69.6865 156.973 70.2054 157.748 71.5027C158.006 72.5405 158.265 73.3189 158.006 74.3568C158.006 75.1351 157.748 75.9135 157.49 76.4324C157.231 76.9514 156.715 77.4703 155.94 77.9892C155.424 78.2486 154.907 78.5081 154.132 78.5081C153.099 78.5081 152.066 78.2486 151.033 77.7297L150.517 81.8811H146.126L147.676 69.9459ZM118.751 75.9135L119.009 74.8757C118.751 75.1351 118.234 75.1351 117.718 75.3946H117.46C117.201 75.6541 117.201 75.6541 117.201 75.6541C117.201 75.9135 117.201 76.173 117.46 76.173C117.46 76.173 117.718 76.173 117.976 76.173C118.234 76.173 118.493 76.173 118.751 75.9135ZM188.997 66.8324C188.739 67.3514 188.222 67.8703 188.222 68.3892C187.964 68.6486 187.964 69.1676 188.222 69.427C188.222 69.9459 188.481 69.9459 188.997 69.9459C189.256 69.9459 189.772 69.9459 190.289 69.427C190.547 69.1676 190.805 68.9081 191.063 68.3892C191.063 67.8703 191.063 67.6108 191.063 67.3514C191.063 67.0919 191.063 66.8324 190.805 66.573C190.805 66.573 190.547 66.3135 190.289 66.3135C190.03 66.3135 189.514 66.573 188.997 66.8324ZM129.34 52.0432C130.631 50.4865 133.73 51.2649 136.571 52.3027C136.571 52.5622 136.571 52.8216 136.571 53.0811C136.571 56.7135 138.12 59.5676 140.703 61.1243C138.895 61.1243 137.087 60.6054 134.763 59.3081C130.889 56.973 128.048 53.8595 129.34 52.0432ZM164.204 58.5297C163.43 57.7514 161.622 57.4919 159.556 57.2324C158.523 58.7892 157.231 60.0865 155.682 61.1243C154.907 61.6432 154.132 61.9027 153.358 62.1622C154.391 62.1622 155.424 62.1622 156.715 61.9027C161.88 61.3838 165.754 60.0865 164.204 58.5297ZM129.34 56.973C126.757 57.2324 124.949 57.7514 124.174 58.5297C122.367 60.3459 125.982 62.4216 131.406 63.2C134.763 63.7189 141.736 64.2378 144.577 62.4216C147.676 64.2378 154.649 63.7189 158.006 63.2C163.43 62.4216 167.045 60.3459 165.237 58.5297C164.463 57.7514 162.397 57.2324 159.814 56.973C161.105 54.8973 161.622 53.0811 160.589 51.5243C159.556 50.227 156.198 49.9676 152.583 51.2649C151.808 47.1135 148.709 44 144.577 44C140.703 44 137.346 47.1135 136.571 51.2649C133.213 49.9676 129.598 50.227 128.823 51.5243C127.79 53.0811 128.048 54.8973 129.34 56.973ZM124.949 58.5297C125.982 57.7514 127.79 57.4919 129.856 57.2324C130.631 58.7892 132.18 60.0865 133.73 61.1243C134.505 61.3838 135.28 61.9027 136.054 62.1622C135.021 62.1622 133.73 62.1622 132.697 61.9027C127.532 61.3838 123.658 60.0865 124.949 58.5297ZM144.577 45.0378C147.934 45.0378 150.517 48.1514 150.775 52.0432C150.517 52.3027 150 52.5622 149.742 52.8216C149.484 53.0811 148.967 53.0811 148.709 53.3405V54.8973C149.225 54.3784 150 53.8595 151.033 53.3405C150.775 57.7514 148.192 61.3838 144.577 61.3838C141.219 61.3838 138.379 57.7514 138.379 53.3405C139.412 53.8595 140.186 54.3784 140.703 54.8973L140.445 53.3405C140.186 53.0811 139.928 53.0811 139.67 52.8216C139.412 52.5622 138.895 52.3027 138.379 52.0432C138.895 48.1514 141.478 45.0378 144.577 45.0378Z" fill="white"/>
</svg>
