<svg width="300" height="135" viewBox="0 0 300 135" fill="none" xmlns="http://www.w3.org/2000/svg">
<path fill-rule="evenodd" clip-rule="evenodd" d="M159.34 73.967C158.46 75.2088 156.908 76.578 154.814 76.578C152.426 76.578 150.96 75.2508 150.96 72.511V60.562H145.136V73.281C145.136 76.9014 146.716 79.9016 149.877 81.1259C150.866 81.5088 152.033 81.6733 153.329 81.5809C156.569 81.3527 158.459 79.644 160.009 77.803V81.1168H165.163V60.562H159.34V73.967ZM213.726 64.3112V60.562H208.571V81.1168H214.395V69.0418C215.611 66.6002 218.668 65.3591 221.852 65.9149V60.1343C218.275 59.9054 215.206 62.1412 213.726 64.3105V64.3112ZM171.412 58.5502V60.562H167.934V65.0434H171.412V81.1168H177.194V65.0434H183.354V60.562H177.194V58.5495C177.194 55.9805 178.912 55.2952 180.796 55.2952C182.097 55.2952 183.395 55.6382 184.275 56.1513V51.6356C182.977 51.1211 181.174 50.7788 179.332 50.7788C175.519 50.7788 171.412 52.3398 171.412 58.5495" fill="white"/>
<mask id="mask0" mask-type="alpha" maskUnits="userSpaceOnUse" x="77" y="47" width="36" height="42">
<path d="M77 47.376H112.969V88.8629H77V47.376Z" fill="white"/>
</mask>
<g mask="url(#mask0)">
<path fill-rule="evenodd" clip-rule="evenodd" d="M103.54 68.6649L105.953 71.1898L103.935 73.2996H103.931C103.11 72.4421 102.381 71.6546 101.55 70.8048C101.385 70.6691 101.18 70.5953 100.969 70.5955C100.742 70.5955 100.535 70.6781 100.374 70.8153C99.4283 71.783 98.4923 72.7607 97.5661 73.7483C97.4355 73.9304 97.3702 74.1539 97.3815 74.3805C97.3929 74.607 97.4801 74.8223 97.6283 74.9894L99.9717 77.4394L97.9534 79.5513H97.95C97.1484 78.7134 96.436 77.9497 95.6282 77.1181C95.4551 76.9518 95.2277 76.8593 94.9915 76.8593C94.7553 76.8593 94.5279 76.9518 94.3548 77.1181H94.3473L92.0201 79.5527H92.0174L89.9964 77.4408C90.8271 76.5728 91.5504 75.8378 92.3723 74.9614C92.4973 74.7969 92.5717 74.589 92.5717 74.3643C92.5717 74.1809 92.523 74.0101 92.4372 73.8631C91.5578 72.923 90.4837 71.8513 89.5841 70.9322H89.5753C89.4025 70.7665 89.1758 70.6743 88.9403 70.6739C88.7048 70.6735 88.4779 70.765 88.3046 70.9301L85.9746 73.3682H85.9706L83.9523 71.2563C84.76 70.4114 85.5001 69.6603 86.3004 68.807V68.8014C86.4444 68.6412 86.5316 68.4351 86.5477 68.2169C86.5638 67.9986 86.5078 67.7812 86.389 67.6002L83.9509 65.0522L85.9719 62.9403H85.9753C86.7851 63.7873 87.4894 64.5762 88.3167 65.4036C88.4856 65.557 88.7021 65.6423 88.9267 65.6441C89.1513 65.6459 89.369 65.564 89.5402 65.4134C90.4162 64.5048 91.4557 63.4338 92.3202 62.514C92.4596 62.3323 92.5316 62.105 92.5232 61.8731C92.5147 61.6412 92.4264 61.4201 92.2743 61.2498L89.9322 58.8012L91.9532 56.6914H91.9566C92.7582 57.5293 93.4754 58.2895 94.2818 59.1232H94.2879C94.4579 59.2858 94.68 59.3775 94.9114 59.3809C95.1428 59.3842 95.3673 59.299 95.5417 59.1414L97.8858 56.6914H97.8899L99.9089 58.8019C99.0667 59.6832 98.2934 60.4679 97.4607 61.3583C97.3561 61.5171 97.2995 61.7045 97.2979 61.8966C97.2964 62.0888 97.3499 62.2771 97.4519 62.4377C98.3198 63.3687 99.4242 64.3879 100.314 65.2979H100.331C100.498 65.4589 100.721 65.5555 100.968 65.5555C101.213 65.5555 101.436 65.4589 101.604 65.2979H101.614L103.932 62.8759H103.935L105.954 64.9871C105.133 65.8446 104.384 66.6132 103.568 67.4777C103.437 67.6447 103.363 67.8517 103.359 68.0665C103.354 68.2814 103.418 68.4918 103.541 68.6649H103.54ZM112.927 60.0864C112.911 59.9093 112.884 59.7333 112.848 59.5593C112.805 59.3438 112.75 59.1309 112.684 58.9216C112.607 58.673 112.515 58.4298 112.408 58.1936C112.209 57.7553 111.961 57.3428 111.669 56.9644C111.534 56.7916 111.389 56.6262 111.237 56.4688C111.101 56.3254 110.957 56.189 110.807 56.06C110.746 56.0099 110.684 55.9612 110.62 55.9137L110.588 55.8885C110.527 55.8441 110.464 55.8012 110.401 55.7597L110.119 55.5637L97.8845 48.1801L97.6405 48.0513C97.5353 47.9936 97.4287 47.9388 97.3207 47.8868C97.1565 47.8081 96.9879 47.7397 96.8158 47.6817L96.7807 47.6705C96.7097 47.6481 96.6455 47.6271 96.5529 47.6005L96.5191 47.5914C96.2243 47.5076 95.9238 47.4472 95.6201 47.4108C94.8932 47.3324 94.1585 47.3924 93.4524 47.5879C93.2661 47.6399 93.0824 47.7018 92.9022 47.7734C92.8211 47.8049 92.7434 47.8392 92.669 47.8749L92.6366 47.8924C92.5866 47.9141 92.5318 47.9407 92.4493 47.9834L92.1222 48.1584L79.8332 55.5784L79.5953 55.7394C79.5128 55.7954 79.4297 55.8528 79.3668 55.9004C79.157 56.0572 78.9597 56.2311 78.7767 56.4205C78.5266 56.6741 78.2986 56.95 78.0954 57.2451C77.5552 58.0348 77.2012 58.9446 77.0619 59.9016C77.0514 59.9835 77.0431 60.0657 77.0369 60.148L77.0355 60.1641C77.0328 60.1991 77.0288 60.2376 77.0261 60.2852L76.999 60.7577L77.0058 75.5767L77.0166 75.8007C77.0234 75.9127 77.0294 76.0233 77.0389 76.1367L77.0423 76.1647C77.0675 76.4191 77.1115 76.6712 77.1741 76.9186L77.189 76.9844C77.2681 77.2981 77.3711 77.6047 77.4972 77.9014C77.6371 78.2325 77.8047 78.5503 77.998 78.8506C78.3236 79.35 78.7162 79.7988 79.164 80.1834C79.2127 80.2247 79.2722 80.2709 79.3539 80.3318L79.4161 80.3773C79.4526 80.4025 79.4939 80.4333 79.5378 80.4613L79.8433 80.6734L92.2134 88.1284L92.2675 88.1606C92.3689 88.2152 92.4703 88.2677 92.5744 88.3216L92.6129 88.3398C92.6785 88.3699 92.7596 88.4084 92.8441 88.4434C92.9644 88.4959 93.103 88.5456 93.2679 88.5953C93.3801 88.6331 93.4754 88.6604 93.5714 88.6828C93.6707 88.7101 93.7708 88.7304 93.8891 88.7507L94.2013 88.8067L94.3284 88.8235C94.4251 88.8326 94.5231 88.8389 94.6197 88.8445L95.0395 88.8634L95.2342 88.8508C95.343 88.8459 95.4505 88.8396 95.5627 88.8326L95.6167 88.8277C95.6999 88.8186 95.7959 88.8088 95.8925 88.7927C96.0939 88.7599 96.2934 88.7155 96.49 88.6597C96.732 88.5904 96.8983 88.5358 97.051 88.4728C97.1247 88.4448 97.2085 88.4098 97.2998 88.365L97.825 88.0948L110.148 80.6545L110.303 80.5509C110.405 80.4809 110.506 80.4109 110.611 80.3332C110.739 80.238 110.865 80.1337 110.992 80.014C111.073 79.9391 111.151 79.8628 111.212 79.7977C111.313 79.6962 111.397 79.6038 111.462 79.5247C111.826 79.107 112.131 78.6386 112.368 78.1331C112.532 77.7831 112.665 77.4177 112.76 77.046C112.82 76.8199 112.862 76.6281 112.893 76.4286C112.908 76.3376 112.916 76.2494 112.929 76.1304C112.935 76.0632 112.939 75.996 112.942 75.94L112.96 75.6292V75.6481L112.968 75.541V60.9208L112.95 60.4518C112.945 60.3299 112.937 60.208 112.927 60.0864" fill="white"/>
</g>
<path fill-rule="evenodd" clip-rule="evenodd" d="M95.5839 64.6484H95.5792C95.4099 64.486 95.1886 64.394 94.9579 64.3902C94.7271 64.3863 94.5031 64.4708 94.3288 64.6274C93.3892 65.5852 92.4611 66.555 91.5446 67.5366C91.4206 67.7057 91.3536 67.9123 91.354 68.1246C91.354 68.3465 91.425 68.5516 91.546 68.7147C92.4112 69.6359 93.4832 70.6754 94.3646 71.5805H94.3673C94.5201 71.7273 94.7159 71.817 94.9235 71.8355C95.1312 71.854 95.3389 71.8002 95.5137 71.6827C96.4708 70.7349 97.5502 69.5806 98.4661 68.5915C98.5611 68.4223 98.6044 68.2273 98.5903 68.0321C98.5762 67.8369 98.5053 67.6507 98.387 67.4981C97.5306 66.579 96.4606 65.5472 95.5839 64.6484ZM142.545 60.5023H136.306C136.139 66.2213 133.096 69.3342 128.706 69.2691L128.712 51.5962L122.837 53.6668L122.823 81.0928H128.701L128.704 73.0029C130.172 72.9875 131.61 72.8244 132.77 72.5549L136.471 81.0921H142.992L137.894 70.1546C140.362 68.4158 142.418 64.3306 142.545 60.5016V60.5023ZM197.749 75.8078C196.408 77.0069 194.859 77.478 193.225 77.478C191.466 77.478 190.082 76.4924 190.082 74.951C190.082 72.8517 192.177 72.1244 194.315 72.1244C195.528 72.1244 196.869 72.3806 197.749 72.5955V75.8078ZM203.572 75.8974V69.2558C203.572 62.4889 199.719 59.9626 193.686 59.9626C190.864 59.9626 187.996 60.7984 186.345 61.4046V65.7642C188.166 65.0586 190.466 64.4041 193.015 64.4041C196.157 64.4041 197.749 66.3438 197.749 68.399V69.2558C196.325 68.9128 194.566 68.6986 192.973 68.6986C188.952 68.6986 184.336 70.198 184.336 75.4228C184.336 79.4898 187.4 81.7179 191.171 81.7179C194.145 81.7179 196.34 80.5237 198.309 78.9382C198.348 79.0439 198.488 79.3148 198.525 79.375C199.384 80.7932 200.891 81.503 202.861 81.503C203.992 81.503 205.165 81.2468 206.086 80.9038V77.0972C205.735 77.2136 205.367 77.2715 204.998 77.2687C204.242 77.2687 203.572 76.9684 203.572 75.8974Z" fill="white"/>
</svg>
