<svg width="300" height="135" viewBox="0 0 300 135" fill="none" xmlns="http://www.w3.org/2000/svg">
<path d="M143.801 94.6504V98.0001C154.799 98.0001 164.774 93.6318 171.999 86.5798L169.571 84.2095C162.968 90.6739 153.856 94.6504 143.801 94.6504Z" fill="white"/>
<path d="M153.219 61.2451C151.172 61.2451 149.045 61.5977 147.319 62.205V65.2413C148.302 64.9866 150.409 64.4382 152.417 64.4382C154.343 64.4382 156.049 64.8886 156.049 66.6712V67.5724C155.307 67.3569 154.123 67.1806 152.858 67.1806C149.587 67.1806 146.496 68.3168 146.496 72.5676C146.496 76.7008 149.807 77.9349 153.219 77.9349C155.708 77.9349 158.277 77.1514 160.083 75.741V67.1022C160.103 62.4009 156.752 61.2451 153.219 61.2451ZM156.049 74.0759C155.287 74.5852 154.263 74.7028 153.36 74.7028C151.935 74.7028 150.751 74.0955 150.751 72.3521C150.751 70.4519 152.136 69.9818 153.801 69.9818C154.624 69.9818 155.427 70.1189 156.069 70.2561V74.0759H156.049Z" fill="white"/>
<path d="M151.349 53.8073H147.736V57.0787H159.035V53.8073H155.423V37L147.475 38.5867V41.6622L151.349 41.0353V53.8073Z" fill="white"/>
<path d="M135.587 46.7676C132.316 46.7676 129.225 47.9037 129.225 52.1545C129.225 56.2878 132.537 57.5219 135.949 57.5219C138.437 57.5219 141.006 56.7384 142.833 55.3279V46.6892C142.833 41.9878 139.481 40.8125 135.949 40.8125C133.901 40.8125 131.774 41.1651 130.048 41.7724V44.8086C131.031 44.554 133.139 44.0055 135.146 44.0055C137.072 44.0055 138.778 44.456 138.778 46.2386V47.1397C138.056 46.9438 136.872 46.7676 135.587 46.7676ZM138.778 53.6433C138.016 54.1526 136.992 54.2701 136.089 54.2701C134.664 54.2701 133.48 53.6629 133.48 51.9194C133.48 50.0193 134.865 49.5492 136.531 49.5492C137.353 49.5492 138.156 49.6863 138.798 49.8234V53.6433H138.778Z" fill="white"/>
<path d="M142.37 62.9588C140.484 61.8618 138.798 61.2153 136.309 61.2153C130.469 61.2153 128 64.8197 128 70.0304C128.06 75.2019 130.81 77.9052 134.623 77.9052C135.948 77.9052 137.292 77.5134 138.296 76.9061V85.9171L146.244 84.3696V81.294L142.37 81.8817V62.9588ZM138.296 73.2822C137.513 74.0265 136.389 74.3791 135.546 74.3791C133.459 74.3791 132.235 73.0079 132.235 69.6974C132.235 66.8374 133.178 64.663 136.409 64.663C137.011 64.663 137.654 64.7805 138.316 65.0352V73.2822H138.296Z" fill="white"/>
</svg>
