<svg width="300" height="135" viewBox="0 0 300 135" fill="none" xmlns="http://www.w3.org/2000/svg">
<g clip-path="url(#clip0)">
<path fill-rule="evenodd" clip-rule="evenodd" d="M92.7461 87.718C86.4041 81.3193 83.233 78.12 83.2328 78.1201L77.0302 84.5187C76.3921 85.3963 76.557 86.6473 77.3984 87.3128C77.7309 87.5757 78.1366 87.718 78.5538 87.718C78.5642 87.718 78.5746 87.718 78.585 87.718C83.3053 87.718 88.0257 87.718 92.7461 87.718Z" fill="white"/>
<path fill-rule="evenodd" clip-rule="evenodd" d="M98.9239 62.141L85.1208 47.7441L77.4143 56.1171C76.4546 57.1597 75.9187 58.5491 75.9187 59.9944V84.5361C75.9187 86.303 77.292 87.7354 78.9861 87.7354C77.9365 87.7354 77.0857 86.848 77.0857 85.7533C77.0857 85.2263 77.2869 84.721 77.6449 84.3491" fill="white"/>
<path fill-rule="evenodd" clip-rule="evenodd" d="M197.299 72.6177H193.979L190.014 76.7999V72.6177H187.208V84.1419H190.014V79.379L194.046 84.1419H197.432L192.22 77.9616L197.299 72.6177Z" fill="white"/>
<path fill-rule="evenodd" clip-rule="evenodd" d="M108.206 75.6468H104.152V70.5352H108.206C110.256 70.5352 111.191 71.5574 111.191 73.0909C111.191 74.6244 110.256 75.6468 108.206 75.6468ZM108.295 67.7935H101.212V84.0576H104.152V78.3883H108.295C111.815 78.3883 114.132 76.5065 114.132 73.0909C114.132 69.6753 111.815 67.7935 108.295 67.7935Z" fill="white"/>
<path fill-rule="evenodd" clip-rule="evenodd" d="M120.834 81.7491C119.186 81.7491 117.649 80.5176 117.649 78.4032C117.649 76.289 119.186 75.0577 120.834 75.0577C122.483 75.0577 124.02 76.289 124.02 78.4032C124.02 80.5176 122.483 81.7491 120.834 81.7491ZM120.834 72.3159C117.805 72.3159 114.797 74.3607 114.797 78.4032C114.797 82.4463 117.805 84.4907 120.834 84.4907C123.864 84.4907 126.871 82.4463 126.871 78.4032C126.871 74.3607 123.864 72.3159 120.834 72.3159Z" fill="white"/>
<path fill-rule="evenodd" clip-rule="evenodd" d="M134.03 81.7491C132.337 81.7491 131.09 80.4712 131.09 78.4032C131.09 76.3586 132.382 75.0577 134.03 75.0577C135.033 75.0577 135.902 75.5456 136.592 76.6376L138.998 75.197C138.196 73.4077 136.458 72.3159 134.053 72.3159C130.912 72.3159 128.239 74.7323 128.239 78.4032C128.239 82.0743 130.778 84.4907 134.053 84.4907C136.414 84.4907 137.995 83.3757 139.109 81.4007L136.793 80.0764C136.124 81.0521 135.411 81.7491 134.03 81.7491Z" fill="white"/>
<path fill-rule="evenodd" clip-rule="evenodd" d="M163.815 79.1466C163.681 80.9122 163.347 81.3075 162.768 81.3075C162.372 81.3075 162.186 81.2616 161.915 81.1876L161.929 84.1701C161.929 84.1701 162.278 84.2812 162.924 84.2812C165.307 84.2812 166.198 82.6781 166.421 79.2627L166.689 75.2432H169.852V84.1187H172.659V72.6177H164.283L163.815 79.1466Z" fill="white"/>
<path fill-rule="evenodd" clip-rule="evenodd" d="M152.803 76.8699C153.204 75.5688 154.318 74.5464 155.788 74.5464C157.348 74.5464 158.395 75.4293 158.662 76.8699H152.803ZM155.878 72.3159C152.67 72.3159 150.063 74.7555 150.063 78.4032C150.063 82.0511 152.67 84.4907 155.744 84.4907C158.172 84.4907 159.709 83.5382 160.823 81.5632L158.595 80.4016C157.905 81.3077 157.281 81.9813 155.788 81.9813C154.14 81.9813 152.937 80.8662 152.759 79.1004H161.268V78.078C161.268 74.7091 159.041 72.3159 155.878 72.3159Z" fill="white"/>
<path fill-rule="evenodd" clip-rule="evenodd" d="M177.084 76.8699C177.485 75.5688 178.599 74.5464 180.069 74.5464C181.628 74.5464 182.675 75.4293 182.943 76.8699H177.084ZM180.158 72.3159C176.95 72.3159 174.344 74.7555 174.344 78.4032C174.344 82.0511 176.95 84.4907 180.024 84.4907C182.452 84.4907 183.989 83.5382 185.103 81.5632L182.876 80.4016C182.185 81.3077 181.561 81.9813 180.069 81.9813C178.42 81.9813 177.218 80.8662 177.039 79.1004H185.549V78.078C185.549 74.7091 183.321 72.3159 180.158 72.3159Z" fill="white"/>
<path fill-rule="evenodd" clip-rule="evenodd" d="M139.946 75.1733H143.243V84.1419H146.049V75.1733H149.346V72.6177H139.946V75.1733Z" fill="white"/>
<path fill-rule="evenodd" clip-rule="evenodd" d="M202.929 81.7491C201.28 81.7491 199.743 80.5176 199.743 78.4032C199.743 76.289 201.28 75.0577 202.929 75.0577C204.577 75.0577 206.114 76.289 206.114 78.4032C206.114 80.5176 204.577 81.7491 202.929 81.7491ZM202.929 72.3159C199.899 72.3159 196.892 74.3605 196.892 78.4032C196.892 82.4461 199.899 84.4907 202.929 84.4907C205.958 84.4907 208.965 82.4461 208.965 78.4032C208.965 74.3605 205.958 72.3159 202.929 72.3159Z" fill="white"/>
<path fill-rule="evenodd" clip-rule="evenodd" d="M220.238 72.6177L217.192 80.6886L214.146 72.6177H210.477V84.1211H213.145V76.8386L216.103 84.1211H218.282L221.239 76.8386V84.1211H223.907V72.6177H220.238Z" fill="white"/>
</g>
<defs>
<clipPath id="clip0">
<rect width="148" height="40" fill="white" transform="translate(76 48)"/>
</clipPath>
</defs>
</svg>
