<svg width="300" height="135" viewBox="0 0 300 135" fill="none" xmlns="http://www.w3.org/2000/svg">
<g clip-path="url(#clip0)">
<path d="M87.6302 45C90.7322 45 91.7112 47.1723 92.5252 49.3447L101.171 72.719C101.214 72.8314 101.211 72.9561 101.161 73.0659C101.112 73.1757 101.021 73.2619 100.907 73.3056L96.1992 75.1086C96.143 75.1292 96.0831 75.1386 96.0231 75.136C95.9631 75.1335 95.9042 75.1192 95.8499 75.0939C95.7956 75.0686 95.747 75.0328 95.7069 74.9887C95.6667 74.9447 95.6359 74.8931 95.6162 74.8371L93.6032 69.3302H81.6682L79.6002 74.8914C79.5604 75.0019 79.4779 75.0925 79.3708 75.1433C79.2637 75.1942 79.1406 75.2012 79.0282 75.1629L74.3532 73.3599C74.2419 73.3141 74.153 73.2271 74.1058 73.1175C74.0585 73.0079 74.0565 72.8844 74.1002 72.7734C74.3862 71.9587 82.3282 50.5069 82.7352 49.399C83.5162 47.2375 84.5282 45 87.6302 45ZM73.4512 84.0043C73.3306 84.0072 73.2159 84.0565 73.1316 84.1417C73.0474 84.227 73.0002 84.3414 73.0002 84.4605V89.5547C73.0002 89.6738 73.0474 89.7882 73.1316 89.8735C73.2159 89.9587 73.3306 90.008 73.4512 90.0109H101.809C101.869 90.0109 101.929 89.999 101.984 89.976C102.04 89.9529 102.09 89.9191 102.132 89.8766C102.174 89.8341 102.207 89.7837 102.229 89.7284C102.251 89.6731 102.262 89.6141 102.26 89.5547V84.4605C102.262 84.4011 102.251 84.3421 102.229 84.2868C102.207 84.2315 102.174 84.1811 102.132 84.1386C102.09 84.0961 102.04 84.0623 101.984 84.0393C101.929 84.0162 101.869 84.0043 101.809 84.0043H73.4512ZM87.6082 52.1253L83.5712 64.0731H91.7002L87.6522 52.1253H87.6082ZM193.098 69.6778C193.136 69.9753 193.105 70.2772 193.009 70.5615C192.913 70.8458 192.753 71.1053 192.542 71.3209C192.331 71.5364 192.074 71.7027 191.79 71.8074C191.505 71.9122 191.201 71.9527 190.898 71.9261C190.316 71.9486 189.733 71.8826 189.171 71.7306V67.6466C189.741 67.5468 190.32 67.5031 190.898 67.5163C191.196 67.475 191.499 67.5024 191.784 67.5963C192.07 67.6902 192.329 67.848 192.542 68.0573C192.755 68.2667 192.916 68.522 193.013 68.8031C193.109 69.0842 193.139 69.3836 193.098 69.6778ZM195.969 69.4714C195.969 66.9623 194.484 65.2245 191.349 65.2245C190.629 65.2196 189.912 65.3072 189.215 65.4852V61.9008C190.003 61.8034 190.797 61.7563 191.591 61.7596C192.631 61.7587 193.671 61.8167 194.704 61.9334L194.77 59.8371C193.401 59.5651 192.009 59.4268 190.612 59.4243C189.18 59.4682 187.757 59.6611 186.366 60V73.3599C187.775 73.8755 189.264 74.1403 190.766 74.1419C194.198 74.1528 195.969 72.3606 195.969 69.4931V69.4714ZM163.398 68.7437C163.398 70.6119 162.65 71.8067 161.407 71.8067C160.935 71.8231 160.465 71.7494 160.021 71.5894V66.0174C160.486 65.7831 161.007 65.6779 161.528 65.7133C162.771 65.7133 163.387 66.7234 163.387 68.7654L163.398 68.7437ZM153.949 68.8306C153.949 66.7994 154.565 65.7241 155.808 65.7241C156.333 65.6874 156.858 65.7925 157.326 66.0282V71.622C156.883 71.782 156.412 71.8557 155.94 71.8392C154.532 71.8392 153.949 70.7531 153.949 68.8306ZM160.01 77.2158V73.5663C160.683 73.9284 161.444 74.1012 162.21 74.0659C164.498 74.0659 166.181 72.1868 166.181 68.7654C166.181 65.0724 164.509 63.4975 161.781 63.4975C161.19 63.4676 160.6 63.5833 160.065 63.8342V59.4895H157.337V63.8342C156.802 63.5838 156.213 63.4681 155.621 63.4975C152.871 63.4975 151.221 65.1484 151.221 68.8306C151.221 72.2629 152.739 74.0659 155.192 74.0659C155.958 74.1006 156.719 73.9278 157.392 73.5663V77.2049H160.076L160.01 77.2158ZM139.605 73.8921V64.1166C138.28 63.6951 136.895 63.4825 135.502 63.4866C134.117 63.482 132.739 63.6946 131.421 64.1166V69.1238C131.481 69.8526 131.422 70.5861 131.245 71.2962C131.094 71.7853 130.78 72.21 130.354 72.5018L131.091 74.0659C133.291 73.4576 134.072 72.5344 134.072 69.5692V65.9196C134.544 65.8311 135.022 65.7874 135.502 65.7893C135.975 65.7874 136.446 65.831 136.91 65.9196V73.8921H139.616H139.605ZM172.847 71.7198C172.383 71.891 171.891 71.9757 171.395 71.9696C171.2 72.0102 170.997 72.0045 170.804 71.953C170.611 71.9014 170.434 71.8055 170.286 71.673C170.137 71.5406 170.023 71.3753 169.952 71.1909C169.881 71.0065 169.856 70.808 169.877 70.6119C169.877 69.5909 170.57 69.2542 171.912 69.2542C172.18 69.2502 172.446 69.2831 172.704 69.3519V70.1122C172.68 70.6627 172.728 71.214 172.847 71.7524V71.7198ZM176.279 72.9363C175.624 72.0598 175.304 70.9822 175.377 69.895V67.1361C175.496 66.2454 175.294 65.3417 174.805 64.5836C174.255 63.8233 173.342 63.4975 171.659 63.4975C170.488 63.4918 169.32 63.6305 168.183 63.9102L168.579 65.8653C169.282 65.7568 169.991 65.6915 170.702 65.6698C172.484 65.6698 172.693 65.9305 172.693 67.2448V67.7444C172.259 67.6067 171.807 67.5264 171.351 67.5054C168.656 67.5054 167.226 68.8088 167.226 70.9486C167.217 71.3793 167.299 71.8071 167.469 72.2041C167.638 72.6011 167.89 72.9584 168.209 73.2525C168.528 73.5467 168.906 73.7712 169.318 73.9114C169.731 74.0515 170.169 74.1042 170.603 74.0659C171.28 74.0677 171.951 73.9462 172.583 73.7075C172.912 73.5654 173.225 73.3907 173.518 73.1861C173.783 73.5503 174.134 73.8448 174.541 74.0442L176.279 72.9363ZM202.624 71.7632C202.16 71.9345 201.668 72.0192 201.172 72.013C200.977 72.0517 200.776 72.0445 200.585 71.992C200.393 71.9396 200.217 71.8434 200.07 71.7111C199.924 71.5789 199.811 71.4145 199.74 71.231C199.67 71.0476 199.644 70.8504 199.665 70.6553C199.665 69.6343 200.358 69.2976 201.689 69.2976C201.957 69.2926 202.223 69.3255 202.481 69.3954V70.1122C202.459 70.6627 202.507 71.2138 202.624 71.7524V71.7632ZM206.1 72.9363C205.443 72.0607 205.123 70.9824 205.198 69.895V67.1361C205.32 66.2467 205.121 65.3434 204.637 64.5836C204.087 63.8233 203.174 63.4975 201.491 63.4975C200.323 63.4924 199.159 63.631 198.026 63.9102L198.422 65.8653C199.125 65.7567 199.834 65.6914 200.545 65.6698C202.327 65.6698 202.536 65.9305 202.536 67.2448V67.7444C202.092 67.6229 201.633 67.5608 201.172 67.5597C198.477 67.5597 197.058 68.8631 197.058 71.0029C197.049 71.4336 197.131 71.8614 197.301 72.2584C197.47 72.6554 197.722 73.0127 198.041 73.3069C198.36 73.601 198.738 73.8255 199.15 73.9657C199.563 74.1058 200.001 74.1585 200.435 74.1202C201.112 74.122 201.783 74.0005 202.415 73.7618C202.744 73.6205 203.058 73.4458 203.35 73.2404C203.619 73.6056 203.974 73.9003 204.384 74.0985L206.1 72.9363ZM147.283 70.3838C147.328 70.6125 147.316 70.8486 147.247 71.0716C147.179 71.2945 147.057 71.4977 146.891 71.6635C146.725 71.8293 146.521 71.9527 146.296 72.0231C146.071 72.0935 145.832 72.1087 145.6 72.0673C145.198 72.087 144.796 72.0355 144.412 71.9153V68.9826C144.8 68.8824 145.199 68.8313 145.6 68.8306C145.821 68.7848 146.05 68.7923 146.268 68.8524C146.485 68.9125 146.685 69.0233 146.85 69.1756C147.015 69.3279 147.141 69.5172 147.216 69.7275C147.291 69.9378 147.315 70.1629 147.283 70.3838ZM141.783 63.6604V73.3599C143.032 73.8685 144.37 74.1305 145.721 74.1311C148.592 74.1311 150.121 72.6647 150.121 70.2534C150.121 68.0811 148.768 66.7234 146.227 66.7234C145.643 66.7288 145.062 66.8129 144.5 66.9732V63.6604H141.75H141.783ZM215.956 73.8921V63.7473H213.261V67.5815H210.203V63.7473H207.508V73.8921H210.203V69.7538H213.261V73.8921H215.956ZM227.033 73.8921C227.033 73.8921 225.559 70.7857 225.196 70.0905C225.064 69.7278 224.845 69.402 224.558 69.141C224.27 68.88 223.923 68.6915 223.546 68.5916C223.899 68.4976 224.221 68.3137 224.48 68.0583C224.739 67.8029 224.925 67.4849 225.02 67.1361C225.197 66.5996 225.494 66.1094 225.889 65.7024C225.975 65.6317 226.076 65.5813 226.185 65.555C226.294 65.5286 226.407 65.527 226.516 65.5503L226.648 63.7038C226.231 63.6663 225.811 63.6663 225.394 63.7038C225.121 63.7007 224.85 63.7531 224.599 63.8578C224.347 63.9624 224.12 64.1171 223.931 64.3121C223.633 64.66 223.391 65.0522 223.216 65.4743L222.512 66.9189C222.462 67.1609 222.32 67.3751 222.116 67.5181C221.912 67.6612 221.66 67.7227 221.412 67.6901H220.961V63.7473H218.255V73.8921H220.961V69.7429H221.335C222.105 69.7429 222.237 69.9276 222.644 70.7314C223.051 71.5351 224.041 73.8921 224.041 73.8921H227H227.033ZM126.438 73.8921H129.551L124.854 59.7719C124.286 59.5898 123.692 59.4981 123.094 59.5004C122.572 59.4914 122.052 59.5837 121.565 59.7719L116.582 73.8921H119.53L120.421 71.1115H125.569L126.438 73.8921ZM121.202 68.7328C121.202 68.7328 122.06 65.887 122.192 65.4743C122.544 64.323 123.061 62.4982 123.061 62.4982H123.149C123.149 62.4982 123.622 64.3881 123.941 65.4526C124.062 65.8653 124.887 68.7111 124.887 68.7111H121.169L121.202 68.7328ZM180.899 67.1144C180.557 67.1123 180.222 67.2104 179.937 67.3965C179.651 67.5826 179.428 67.8481 179.296 68.1596C179.163 68.471 179.128 68.8142 179.193 69.1457C179.258 69.4772 179.422 69.782 179.663 70.0216C179.904 70.2612 180.212 70.4247 180.547 70.4914C180.883 70.5581 181.23 70.5249 181.547 70.3962C181.863 70.2674 182.133 70.0489 182.323 69.7682C182.514 69.4876 182.615 69.1574 182.615 68.8197C182.615 68.5939 182.57 68.3704 182.482 68.1621C182.394 67.9537 182.264 67.7648 182.102 67.6061C181.939 67.4475 181.746 67.3223 181.534 67.2379C181.322 67.1535 181.095 67.1115 180.866 67.1144H180.899Z" fill="white"/>
</g>
<defs>
<clipPath id="clip0">
<rect width="154" height="45" fill="white" transform="translate(73.0002 45)"/>
</clipPath>
</defs>
</svg>
