<svg width="300" height="135" viewBox="0 0 300 135" fill="none" xmlns="http://www.w3.org/2000/svg">
<path fill-rule="evenodd" clip-rule="evenodd" d="M110 78.5678H118.316V65.0102H127.186V78.5678H135.501C135.501 67.3159 135.501 56.0639 135.501 44.812C132.73 44.812 129.958 44.812 127.186 44.812C127.186 48.8701 127.186 52.9282 127.186 56.9862H118.316C118.316 52.9282 118.316 48.8701 118.316 44.812H110V78.5678Z" fill="white"/>
<path fill-rule="evenodd" clip-rule="evenodd" d="M139.936 45.0884C139.936 46.1411 139.962 52.6046 139.936 52.8356C142.338 52.8356 144.741 52.8356 147.143 52.8356V78.5675H155.458V52.8356H162.388V45.0884C154.904 45.0884 147.42 45.0884 139.936 45.0884Z" fill="white"/>
<path d="M177.358 67.7769C183.788 67.7769 189 62.574 189 56.156C189 49.738 183.788 44.5352 177.358 44.5352C171.021 44.5352 165.864 49.5891 165.716 55.8793C165.715 55.9291 165.715 55.979 165.716 56.029L165.716 56.156V78.5676H173.755V56.0177C173.755 55.9713 173.753 55.9253 173.755 55.8793C173.828 53.8805 175.477 52.2824 177.497 52.2824C179.563 52.2824 181.239 53.9547 181.239 56.0177C181.239 58.0806 179.563 59.7529 177.497 59.7529C176.728 59.7529 176.012 59.5212 175.418 59.1239V67.6161C176.049 67.7219 176.697 67.7769 177.358 67.7769Z" fill="white"/>
<path d="M110 90.3692V83.3677H112.369C113.15 83.3677 113.745 83.5263 114.153 83.8437C114.561 84.1611 114.765 84.634 114.765 85.2623C114.765 85.5829 114.68 85.8714 114.509 86.1279C114.338 86.3843 114.088 86.5831 113.759 86.7242C114.132 86.8267 114.42 87.0207 114.623 87.306C114.829 87.5881 114.931 87.9279 114.931 88.3255C114.931 88.9827 114.723 89.4876 114.305 89.8402C113.89 90.1928 113.296 90.3692 112.52 90.3692H110ZM111.201 87.2098V89.3978H112.535C112.911 89.3978 113.205 89.3032 113.417 89.1141C113.629 88.9249 113.735 88.6621 113.735 88.3255C113.735 87.5977 113.368 87.2259 112.634 87.2098H111.201ZM111.201 86.3154H112.378C112.751 86.3154 113.042 86.2305 113.251 86.0605C113.463 85.8874 113.569 85.6438 113.569 85.3296C113.569 84.9834 113.471 84.7333 113.275 84.5795C113.082 84.4256 112.78 84.3486 112.369 84.3486H111.201V86.3154Z" fill="white"/>
<path d="M124.156 87.2435H121.318V89.3978H124.636V90.3692H120.117V83.3677H124.602V84.3486H121.318V86.2817H124.156V87.2435Z" fill="white"/>
<path d="M130.799 89.3978H133.936V90.3692H129.598V83.3677H130.799V89.3978Z" fill="white"/>
<path d="M142.805 88.739H140.128L139.568 90.3692H138.32L140.93 83.3677H142.008L144.623 90.3692H143.37L142.805 88.739ZM140.465 87.758H142.468L141.467 84.8536L140.465 87.758Z" fill="white"/>
<path d="M151.935 87.6715H150.597V90.3692H149.396V83.3677H151.826C152.623 83.3677 153.238 83.5488 153.672 83.911C154.105 84.2733 154.322 84.7975 154.322 85.4835C154.322 85.9515 154.21 86.3443 153.985 86.6616C153.764 86.9758 153.454 87.2178 153.055 87.3878L154.607 90.3067V90.3692H153.321L151.935 87.6715ZM150.597 86.6953H151.83C152.235 86.6953 152.552 86.5927 152.78 86.3875C153.007 86.1792 153.121 85.8954 153.121 85.5364C153.121 85.1613 153.015 84.8712 152.803 84.666C152.595 84.4608 152.281 84.3551 151.864 84.3486H150.597V86.6953Z" fill="white"/>
<path d="M164.501 83.3677V88.0466C164.501 88.7903 164.265 89.3802 163.794 89.8162C163.325 90.2489 162.701 90.4653 161.919 90.4653C161.128 90.4653 160.5 90.2522 160.035 89.8258C159.57 89.3962 159.337 88.8015 159.337 88.0417V83.3677H160.533V88.0514C160.533 88.5194 160.65 88.8769 160.884 89.1237C161.119 89.3706 161.463 89.494 161.919 89.494C162.843 89.494 163.305 89.0003 163.305 88.0129V83.3677H164.501Z" fill="white"/>
<path d="M173.384 88.5659C173.384 88.2581 173.276 88.0209 173.061 87.8542C172.849 87.6875 172.465 87.5192 171.908 87.3493C171.351 87.1794 170.908 86.9902 170.579 86.7819C169.949 86.3811 169.635 85.8586 169.635 85.2142C169.635 84.65 169.861 84.1851 170.313 83.8197C170.769 83.4542 171.359 83.2715 172.084 83.2715C172.564 83.2715 172.993 83.3612 173.37 83.5408C173.746 83.7203 174.042 83.9768 174.257 84.3102C174.472 84.6404 174.58 85.0074 174.58 85.4114H173.384C173.384 85.0459 173.27 84.7606 173.042 84.5554C172.818 84.347 172.495 84.2428 172.074 84.2428C171.682 84.2428 171.376 84.3278 171.158 84.4977C170.943 84.6676 170.835 84.9048 170.835 85.2094C170.835 85.4659 170.952 85.6807 171.187 85.8538C171.421 86.0237 171.807 86.1904 172.345 86.3539C172.882 86.5142 173.314 86.6985 173.64 86.9069C173.966 87.1121 174.205 87.3493 174.357 87.6186C174.509 87.8847 174.585 88.1972 174.585 88.5563C174.585 89.1397 174.363 89.6046 173.92 89.9508C173.48 90.2938 172.882 90.4653 172.126 90.4653C171.626 90.4653 171.166 90.3724 170.745 90.1864C170.327 89.9973 170.002 89.7376 169.767 89.4074C169.536 89.0772 169.421 88.6925 169.421 88.2533H170.622C170.622 88.6508 170.751 88.9586 171.011 89.1766C171.27 89.3946 171.642 89.5036 172.126 89.5036C172.544 89.5036 172.857 89.4186 173.066 89.2487C173.278 89.0756 173.384 88.848 173.384 88.5659Z" fill="white"/>
</svg>
