<svg width="300" height="135" viewBox="0 0 300 135" fill="none" xmlns="http://www.w3.org/2000/svg">
<g clip-path="url(#clip0)">
<path fill-rule="evenodd" clip-rule="evenodd" d="M107.593 57.526L110.324 90.7819L127.843 44.4365L107.593 57.526Z" fill="white"/>
<path fill-rule="evenodd" clip-rule="evenodd" d="M106.055 55.4143L87 52.9557L127.245 44L106.055 55.4143Z" fill="white"/>
<path fill-rule="evenodd" clip-rule="evenodd" d="M105.245 57.7451L109.472 90.9998L101.545 60.9041L87.584 53.9146L105.245 57.7428V57.7451Z" fill="white"/>
<path d="M127.245 75.6536L135.043 59.3603H136.695L144.579 75.6536H142.43L140.267 71.2859H131.471L129.366 75.6536H127.245ZM132.383 69.3645H139.398L135.884 62.084L132.383 69.3645ZM153.829 59.3614C154.937 59.3103 156.044 59.4847 157.082 59.8739C158.128 60.2669 159.083 60.8652 159.891 61.633C160.661 62.4038 161.261 63.3247 161.655 64.3378C162.052 65.3561 162.237 66.4483 162.195 67.5439C162.235 68.6206 162.055 69.6942 161.665 70.6996C161.278 71.6979 160.689 72.6061 159.933 73.3674C159.114 74.1212 158.153 74.7052 157.105 75.0853C156.057 75.4653 154.943 75.6338 153.829 75.5809H146.997V59.3614H153.827H153.829ZM153.829 61.2391H148.975V73.7904H153.829C154.671 73.8379 155.515 73.713 156.307 73.4233C157.105 73.1314 157.835 72.6818 158.453 72.1017C159.029 71.4982 159.475 70.7842 159.764 70.0035C160.057 69.2191 160.186 68.3809 160.147 67.5439C160.181 66.7046 160.046 65.8653 159.751 65.082C159.457 64.3014 159.006 63.5886 158.425 62.9871C157.818 62.3946 157.096 61.9315 156.302 61.6263C155.514 61.3238 154.672 61.187 153.827 61.2246V61.2391H153.829ZM165.584 75.6536V59.3603H174.719C176.048 59.286 177.356 59.7181 178.377 60.5688C178.824 60.9918 179.175 61.5088 179.403 62.0851C179.632 62.6614 179.733 63.2825 179.7 63.9036C179.728 65.0057 179.358 66.0812 178.658 66.9362C177.971 67.7789 176.993 68.3379 175.915 68.5051L179.899 75.6681H177.709L173.724 68.5342H167.561V75.6681L165.584 75.6536ZM167.561 66.6262H174.592C175.409 66.6845 176.22 66.4411 176.869 65.9425C177.135 65.6879 177.342 65.378 177.475 65.035C177.608 64.6885 177.663 64.3172 177.637 63.9472C177.657 63.578 177.599 63.2087 177.466 62.864C177.335 62.5214 177.131 62.2108 176.869 61.9531C176.263 61.4433 175.482 61.1873 174.691 61.2391H167.575L167.561 66.6274V66.6262ZM183.315 75.6536V59.3603H195.838V61.2403H185.308V66.0152H191.683V67.893H185.307V73.7176H196.508V75.5954L183.315 75.6536ZM197.459 75.6536L203.95 67.4566L197.545 59.3614H199.965L205.23 65.8843L210.439 59.3603H212.829L206.411 67.3693L213 75.6536H210.424L205.131 68.9997L199.779 75.7118L197.459 75.6536Z" fill="white"/>
</g>
<defs>
<clipPath id="clip0">
<rect width="126" height="47" fill="white" transform="translate(87 44)"/>
</clipPath>
</defs>
</svg>
