<svg width="300" height="135" viewBox="0 0 300 135" fill="none" xmlns="http://www.w3.org/2000/svg">
<path d="M132.531 64.2765H125.994L125.25 65.9701C124.905 66.696 124.745 67.3412 124.745 67.9058C124.745 68.4703 124.958 68.9542 125.357 69.3037C125.755 69.6532 126.287 69.8414 126.898 69.8414V70.7823H117.996V69.8414C118.687 69.7876 119.351 69.5188 119.989 69.008C120.627 68.4972 121.238 67.61 121.876 66.2927L129.794 49.813H134.763L143.159 68.0402C143.451 68.6854 143.744 69.1155 144.063 69.3575C144.381 69.5994 144.753 69.7607 145.205 69.8683V70.8092H133.115V69.8683C133.992 69.8683 134.444 69.5726 134.444 68.9811C134.444 68.7392 134.338 68.4166 134.152 67.9595L132.531 64.2765ZM131.76 62.4215L129.316 56.7759L126.845 62.4215H131.76ZM165.373 50.3507L165.745 56.1576H164.336C164.177 55.5392 163.885 54.9209 163.406 54.3295C162.928 53.738 162.211 53.2272 161.254 52.824C160.298 52.4207 159.102 52.2325 157.667 52.2325H156.657V67.3412C156.657 69.0349 157.162 69.8952 158.198 69.8952H159.421V70.8361H145.71V69.8952H146.427C147.464 69.8952 147.969 69.0618 147.969 67.3412V53.8187C147.969 52.125 147.464 51.2916 146.427 51.2916H145.71V50.3507H165.373ZM180.04 64.2765H173.503L172.759 65.9701C172.414 66.696 172.255 67.3412 172.255 67.9058C172.255 68.4703 172.467 68.9542 172.866 69.3037C173.264 69.6532 173.796 69.8414 174.407 69.8414V70.7823H165.532V69.8414C166.223 69.7876 166.887 69.5188 167.525 69.008C168.163 68.4972 168.774 67.61 169.412 66.2927L177.33 49.813H182.299L190.695 68.0402C190.987 68.6854 191.28 69.1155 191.598 69.3575C191.917 69.5994 192.289 69.7607 192.741 69.8683V70.8092H180.651V69.8683C181.528 69.8683 181.98 69.5726 181.98 68.9811C181.98 68.7392 181.873 68.4166 181.687 67.9595L180.04 64.2765ZM179.243 62.4215L176.798 56.7759L174.327 62.4215H179.243ZM197.497 70.7823V69.8414H198.507C199.277 69.8414 199.756 69.6263 199.968 69.2231C200.181 68.8198 200.287 68.1746 200.287 67.2874V52.2056H199.782C198.082 52.2056 196.7 52.582 195.637 53.3348C194.574 54.0875 193.91 55.0284 193.618 56.1576H192.21L192.528 50.3507H216.682L217 56.1576H215.592C215.406 55.4048 215.061 54.7596 214.529 54.1682C213.998 53.5767 213.307 53.0928 212.43 52.7433C211.553 52.3938 210.57 52.2056 209.401 52.2056H208.896V67.3143C208.896 68.2552 209.003 68.9005 209.242 69.3037C209.481 69.6801 209.986 69.8683 210.756 69.8683H211.66V70.8092H197.497V70.7823Z" fill="white"/>
<path d="M126.394 83.1762L127.456 83.6602C127.297 84.5204 127.005 85.1656 126.633 85.5689C126.261 85.9722 125.756 86.2141 125.171 86.2141C124.454 86.2141 123.843 85.8646 123.364 85.1388C122.886 84.4398 122.674 83.4451 122.674 82.2084C122.674 80.8911 122.913 79.8964 123.391 79.1706C123.869 78.4447 124.48 78.0952 125.251 78.0952C125.915 78.0952 126.473 78.3641 126.898 78.9555C127.138 79.2781 127.324 79.762 127.456 80.4072L126.367 80.7836C126.314 80.3803 126.154 80.0308 125.968 79.8158C125.756 79.6007 125.517 79.4663 125.224 79.4663C124.826 79.4663 124.48 79.6814 124.241 80.0846C123.976 80.5148 123.869 81.1868 123.869 82.1009C123.869 83.0956 124.002 83.7946 124.241 84.2247C124.48 84.628 124.826 84.8699 125.224 84.8699C125.517 84.8699 125.782 84.7355 125.995 84.4667C126.154 84.1709 126.287 83.7408 126.394 83.1762ZM128.44 78.2027H129.476V83.4182L131.708 78.2027H132.824V86.0797H131.787V80.9449L129.556 86.0797H128.44V78.2027ZM137.447 83.1762L138.51 83.6602C138.351 84.5204 138.058 85.1656 137.686 85.5689C137.314 85.9722 136.809 86.2141 136.225 86.2141C135.507 86.2141 134.896 85.8646 134.418 85.1388C133.94 84.4398 133.727 83.4451 133.727 82.2084C133.727 80.8911 133.966 79.8964 134.445 79.1706C134.923 78.4447 135.534 78.0952 136.305 78.0952C136.969 78.0952 137.527 78.3641 137.952 78.9555C138.191 79.2781 138.377 79.762 138.51 80.4072L137.421 80.7836C137.367 80.3803 137.208 80.0308 137.022 79.8158C136.809 79.6007 136.57 79.4663 136.278 79.4663C135.879 79.4663 135.534 79.6814 135.295 80.0846C135.029 80.5148 134.923 81.1868 134.923 82.1009C134.923 83.0956 135.056 83.7946 135.295 84.2247C135.534 84.628 135.879 84.8699 136.278 84.8699C136.57 84.8699 136.836 84.7355 137.049 84.4667C137.181 84.1709 137.341 83.7408 137.447 83.1762ZM140.503 86.0797V79.5469H138.882V78.2296H143.24V79.5469H141.619V86.0797H140.503ZM143.957 86.0797V78.2296H148.022V79.5469H145.073V81.2944H147.836V82.6117H145.073V84.7624H148.129V86.0797H143.957ZM149.059 86.0797V78.2296H150.706L151.689 83.6064L152.672 78.2296H154.346V86.0797H153.337V79.8964L152.247 86.0797H151.184L150.095 79.8964V86.0797H149.059ZM155.489 78.2027H156.605V81.3213H158.093C158.491 81.3213 158.81 81.4019 159.103 81.5632C159.395 81.6976 159.607 81.9665 159.793 82.3697C159.979 82.773 160.086 83.2031 160.086 83.7408C160.086 84.2785 159.979 84.7086 159.793 85.1119C159.607 85.5151 159.395 85.7571 159.156 85.8915C158.917 85.999 158.571 86.0797 158.119 86.0797H155.542V78.2027H155.489ZM156.605 84.7355H157.694C158.04 84.7355 158.279 84.7086 158.412 84.6549C158.545 84.6011 158.677 84.4935 158.784 84.3322C158.89 84.1709 158.943 83.9559 158.943 83.687C158.943 83.3375 158.863 83.0956 158.677 82.9074C158.491 82.7461 158.199 82.6386 157.748 82.6386H156.632V84.7355H156.605ZM160.697 78.2027H161.813V86.0797H160.697V78.2027ZM164.55 78.2027H165.799L167.074 82.2891L168.163 78.2027H169.306L167.446 84.1709C167.233 84.8162 167.047 85.3001 166.835 85.6495C166.622 85.999 166.357 86.1603 166.011 86.1603C165.692 86.1603 165.427 86.1335 165.241 86.0797V84.8968C165.4 84.9237 165.533 84.9237 165.666 84.9237C165.931 84.9237 166.117 84.843 166.224 84.7086C166.33 84.5742 166.436 84.2785 166.543 83.8483L164.55 78.2027ZM169.891 78.2027H174.248V86.0797H173.132V79.5201H170.98V86.0797H169.864V78.2027H169.891ZM175.391 86.0797V78.2296H177.171C177.835 78.2296 178.287 78.2565 178.5 78.3372C178.818 78.4447 179.084 78.6867 179.297 79.0899C179.509 79.4932 179.616 80.004 179.616 80.6223C179.616 81.1062 179.562 81.5095 179.43 81.8321C179.297 82.1547 179.164 82.4235 178.951 82.6117C178.765 82.7999 178.579 82.9343 178.367 82.9881C178.101 83.0687 177.729 83.0956 177.224 83.0956H176.507V86.0797H175.391ZM176.48 79.5469V81.7783H177.091C177.543 81.7783 177.835 81.7245 177.968 81.6708C178.128 81.5901 178.234 81.4557 178.314 81.2675C178.393 81.1062 178.446 80.8911 178.446 80.6761C178.446 80.3803 178.393 80.1384 178.26 79.9502C178.154 79.7889 177.995 79.6545 177.809 79.6007C177.676 79.5738 177.41 79.5469 177.012 79.5469H176.48ZM184.77 86.0797H183.575L183.096 84.2785H180.891L180.439 86.0797H179.27L181.396 78.2296H182.565L184.77 86.0797ZM182.724 82.9612L181.98 80.0308L181.236 82.9612H182.724ZM185.355 78.2027H187.56C187.985 78.2027 188.331 78.2296 188.543 78.2834C188.756 78.3372 188.942 78.4447 189.128 78.606C189.287 78.7673 189.447 78.9824 189.553 79.2512C189.659 79.5201 189.713 79.8427 189.713 80.1921C189.713 80.5416 189.633 80.8911 189.5 81.2137C189.367 81.5363 189.181 81.7514 188.942 81.9127C189.287 82.0471 189.527 82.2891 189.713 82.6117C189.899 82.9612 189.978 83.3644 189.978 83.7946C189.978 84.1441 189.925 84.4935 189.792 84.843C189.686 85.1925 189.527 85.4345 189.314 85.6495C189.101 85.8646 188.862 85.9722 188.57 86.0259C188.384 86.0528 187.932 86.0528 187.241 86.0797H185.382V78.2027H185.355ZM186.471 79.5201V81.3213H187.188C187.613 81.3213 187.879 81.3213 187.985 81.2944C188.171 81.2675 188.331 81.1868 188.437 81.0255C188.543 80.8642 188.597 80.6761 188.597 80.4072C188.597 80.1653 188.543 79.9502 188.464 79.8158C188.357 79.6814 188.225 79.5738 188.039 79.5469C187.932 79.5201 187.613 79.5201 187.082 79.5201H186.471ZM186.471 82.6386V84.7355H187.507C187.906 84.7355 188.171 84.7086 188.278 84.6817C188.437 84.6549 188.57 84.5204 188.676 84.3591C188.783 84.1978 188.836 83.9559 188.836 83.687C188.836 83.4451 188.783 83.2569 188.729 83.0956C188.65 82.9343 188.543 82.7999 188.384 82.7461C188.225 82.6655 187.906 82.6386 187.401 82.6386H186.471ZM191.094 78.2027H194.947V86.0797H193.831V79.5469H192.184V82.9074C192.184 83.8752 192.157 84.5473 192.104 84.9237C192.051 85.3001 191.945 85.6227 191.785 85.8109C191.599 86.0259 191.333 86.1335 190.961 86.1335C190.829 86.1335 190.589 86.1066 190.244 86.0528V84.843H190.483C190.722 84.843 190.882 84.8162 190.961 84.7355C191.041 84.628 191.068 84.4129 191.068 84.0634V82.7192V78.2027H191.094ZM196.09 86.0797V78.2296H200.155V79.5469H197.206V81.2944H199.969V82.6117H197.206V84.7624H200.261V86.0797H196.09ZM201.191 86.0797V78.2296H202.307V81.3213H204.486V78.2296H205.602V86.0797H204.486V82.6386H202.307V86.0797H201.191ZM206.745 78.2027H207.781V83.4182L210.013 78.2027H211.129V86.0797H210.093V80.9449L207.861 86.0797H206.745V78.2027ZM215.54 86.0797V82.7999H215.327C214.982 82.7999 214.743 82.8805 214.583 83.0149C214.45 83.1762 214.185 83.6064 213.839 84.3591L213.042 86.0797H211.714L212.378 84.5473C212.644 83.929 212.856 83.4989 213.015 83.2569C213.175 83.0149 213.361 82.7999 213.6 82.6117C213.095 82.5042 212.723 82.2622 212.484 81.8589C212.245 81.4557 212.139 80.9718 212.139 80.4341C212.139 79.9502 212.218 79.5469 212.404 79.1706C212.564 78.8211 212.803 78.5522 213.069 78.4178C213.334 78.2834 213.759 78.2296 214.317 78.2296H216.656V86.0797H215.54ZM215.54 79.5469H214.663C214.211 79.5469 213.945 79.5738 213.786 79.6007C213.653 79.6276 213.52 79.7082 213.441 79.8695C213.334 80.0308 213.281 80.2459 213.281 80.5148C213.281 80.7836 213.334 81.0255 213.414 81.16C213.52 81.3213 213.627 81.4288 213.786 81.4826C213.945 81.5095 214.238 81.5363 214.689 81.5363H215.513L215.54 79.5469Z" fill="white"/>
<path fill-rule="evenodd" clip-rule="evenodd" d="M85.3408 86.0253L103.011 59.7061L120.548 86.1328L85.3408 86.0253ZM90.2305 83.5526L101.284 66.9653L112.152 83.5257L90.2305 83.5526Z" fill="white"/>
<path d="M110.477 52.7695H110.265L95.8632 53.0115L94.8801 53.0653L93.9767 53.1997L92.9404 53.3879L92.037 53.6029L91.2664 53.8449L90.7616 54.06L90.2833 54.3019L89.6987 54.5707L89.1142 54.8665L88.7156 55.1353L88.1842 55.5386L87.759 55.8612L87.4402 56.1031L87.0948 56.4526L86.7493 56.7752L86.3773 57.2054L85.8725 57.743L85.5802 58.1732L85.1285 58.8453L84.8096 59.3561L84.4908 60.0013L84.1188 60.7809L83.9062 61.4261L83.6671 62.2595L83.5077 62.7703L83.3748 63.4962L83.2951 64.3295L83.2419 65.378L83.2951 66.6416L83.4545 67.7169L83.7202 68.7116L83.9594 69.4643L84.4111 70.5128L84.7299 71.2118L85.0488 71.7495L85.6333 72.5829L86.1382 73.2012L86.5102 73.6313L86.8556 74.0077L87.3339 74.4378L87.7856 74.8142L88.1576 75.1099L88.9282 75.6745L89.6987 76.1584L90.6287 76.5885L91.5587 76.9112L92.409 77.2069L93.0201 77.3413L93.3124 77.4488L94.269 77.6908L95.4912 77.879L96.1821 77.9058L97.8295 78.0403L98.4406 78.094L100.805 78.1478L110.079 78.1209L108.91 76.5617H103.17H99.4503L96.4212 76.4004L93.897 75.9971L92.5684 75.6745L91.4524 75.2712L90.6553 74.9218L89.8582 74.4378L89.0079 73.8464L88.1576 73.1474L87.573 72.5291L86.9088 71.7495L86.2445 70.701L85.8725 69.9483L85.6333 69.4643L85.3411 68.7116L85.1019 67.8513L84.9956 67.2061L84.9159 66.4534L84.8628 65.5931V64.6522L84.9425 64.0069L85.0488 63.308L85.1816 62.7703L85.3411 62.2595L85.5271 61.7756L85.7662 61.1304L86.0053 60.5927L86.2711 60.1357L86.6165 59.5442L87.0416 58.9797L87.5199 58.3882L87.945 57.8774L88.4233 57.4473L88.9016 57.044L89.4065 56.6677L90.0973 56.2644L90.4427 56.0225L90.8944 55.8074L91.3993 55.5654L91.9041 55.3773L92.5153 55.1891L92.967 55.0547L93.711 54.8127L94.3221 54.6783L95.0395 54.5439L95.757 54.4901L96.6072 54.4363L109.361 54.3019L110.477 52.7695Z" fill="white"/>
<path d="M112.364 49.7861L95.4378 49.9206L94.1624 50.055L93.6044 50.1087L92.887 50.2163L92.4087 50.2969L91.7444 50.4313L91.213 50.5926L90.6816 50.7539L90.1768 50.9153L89.6719 51.1034L89.2202 51.2916L88.6622 51.5873L88.2371 51.7755L87.8119 52.0175L87.3071 52.3132L86.9351 52.582L86.1114 53.1197L85.7128 53.4423L85.2345 53.8187L84.8625 54.1682L84.5171 54.5446L84.1982 54.8672L83.8528 55.2435L83.5605 55.593L83.2948 55.8619L83.0025 56.2651L82.6837 56.7221L82.3117 57.2598L82.0194 57.7706L81.674 58.3889L81.3817 58.9804L81.1691 59.4912L80.93 60.0826L80.7174 60.6741L80.4251 61.6419L80.2657 62.3677L80.1594 63.0398L80.0797 63.6582L80.0266 64.2765L80 64.8142V65.6744L80.0266 66.2121L80.1063 67.0186L80.2126 67.7714L80.3189 68.4703L80.4251 68.9005L80.6377 69.6801L80.93 70.5135L81.1426 70.9705L81.3551 71.5082L81.8068 72.4223L82.2054 73.1212L82.7103 73.874L83.1885 74.5192L83.7731 75.2182L84.2248 75.729L84.65 76.1322L85.0751 76.5355L85.4205 76.8581L85.9254 77.2076L87.0148 78.0141L87.7056 78.4442L88.3168 78.7668L89.0342 79.1432L89.8313 79.5733L90.8942 80.0572L91.8242 80.4067L92.7542 80.6487L93.9233 80.8369L95.2784 81.0251L96.6335 81.0788H113.799L112.895 79.6809L96.421 79.5465L95.1987 79.3583L94.2156 79.2507L93.5247 79.1163L93.0464 79.0088L92.3024 78.8744L91.9039 78.7399L91.399 78.5786L90.9473 78.4173L90.469 78.2292L90.097 78.0679L89.725 77.9065L89.0342 77.5839L88.5293 77.2613L88.0776 76.9925L87.7322 76.7774L87.3336 76.4817L86.9616 76.186L86.6162 75.8903L86.1911 75.5139L85.8722 75.2182L85.5268 74.8956L85.1017 74.3848L84.65 73.8471L84.1717 73.2288L83.72 72.5298L83.348 71.9115L83.0291 71.2663L82.7634 70.7017L82.4711 69.949L82.2585 69.25L82.1257 68.7661L81.9928 68.2822L81.8866 67.8251L81.8068 67.2337L81.7006 66.5616L81.6474 65.997L81.6208 65.2981L81.7006 64.1152L81.7803 63.5775L81.8866 62.8248L82.0194 62.1795L82.1788 61.5343L82.418 60.8622L82.6305 60.1901L82.8963 59.5987L83.2151 58.9266L83.6137 58.2545L84.0122 57.5824L84.4374 57.0179L84.7562 56.5877L85.2877 55.9425L85.5534 55.6199L86.1114 55.1091L86.7225 54.5446L87.2805 54.1413L87.9182 53.6843L88.6356 53.2541L89.2733 52.9046L89.8579 52.6627L90.7082 52.2863L91.6647 51.9637L92.5682 51.6949L93.259 51.5605L94.4281 51.3992L95.4644 51.3185L96.6601 51.2916L111.407 51.2379L112.364 49.7861Z" fill="white"/>
<path d="M95.8104 55.8888L94.4021 56.077L93.7378 56.2383L93.1267 56.4534L92.5953 56.6147L91.9044 56.8835L91.4527 57.1255L90.629 57.5825L90.1507 57.932L89.513 58.4428L89.0081 58.9267L88.5299 59.5182L87.9719 60.3515L87.653 60.8355L87.3076 61.5613L86.8825 62.6098L86.6699 63.5238L86.5105 64.3841L86.4839 64.8949V65.7552L86.537 66.481L86.6433 67.2069L86.8293 67.9059L87.095 68.6586L87.3607 69.277L87.6796 69.8953L88.0782 70.5136L88.6893 71.347L89.327 72.0729L89.885 72.5299L90.629 73.0945L91.3198 73.4708L91.9841 73.8203L92.7015 74.116L93.791 74.4386L94.8538 74.6806L96.2886 74.8688L97.7766 74.9225L108.06 75.0032L107.156 73.659L97.7766 73.5515L96.5809 73.5246L95.4118 73.3902L94.1895 73.0407L92.9407 72.6643L92.4093 72.4224L91.6121 71.9922L90.8416 71.4277L89.9913 70.5943L89.4333 69.8684L89.0613 69.277L88.769 68.6855L88.4767 68.0941L88.2642 67.3413L88.0782 66.5348L88.025 65.8896V64.7605L88.1313 63.9809L88.2642 63.4163L88.397 62.8249L88.6361 62.2872L89.0081 61.4807L89.4599 60.8355L90.0178 60.1096L90.815 59.3568L91.373 58.8998L92.3561 58.3084L93.4721 57.7707L94.9069 57.3943L96.0761 57.2599L97.5109 57.1524L107.555 57.0986L108.485 55.7275L95.8104 55.8888Z" fill="white"/>
</svg>
