<svg width="300" height="135" viewBox="0 0 300 135" fill="none" xmlns="http://www.w3.org/2000/svg">
<path fill-rule="evenodd" clip-rule="evenodd" d="M192.468 70.0765C191.762 70.516 191.213 70.9045 191.248 70.9401C191.405 71.0979 192.791 70.7585 193.026 70.5046C193.284 70.2251 193.892 69.2572 193.8 69.2706C193.774 69.2746 193.175 69.6371 192.468 70.0765ZM107.478 71.0867C103.105 71.793 100.114 72.8258 97.6103 74.4933C96.5112 75.2255 95.3096 76.3333 95.7307 76.226C95.9019 76.1824 96.8821 76.0063 97.909 75.8344C105.321 74.5942 113.949 75.1926 125.993 77.7822C127.405 78.0858 131.851 79.0979 135.873 80.0317C139.895 80.9654 143.663 81.8348 144.247 81.9638L145.308 82.1983L145.608 81.4957C145.774 81.1092 145.909 80.7528 145.909 80.704C145.909 80.6549 146.232 79.6031 146.627 78.3667C147.022 77.1303 147.318 76.0915 147.285 76.0586C147.149 75.9215 137.083 73.9588 132.917 73.2571C120.878 71.2291 112.965 71.265 106.35 73.3773C105.43 73.671 104.677 73.8597 104.677 73.7966C104.677 73.6791 106.197 72.617 107.867 71.5681C108.717 71.0336 108.759 70.9833 108.334 71.0027C108.077 71.0142 107.692 71.052 107.478 71.0867ZM151.894 77.5812C151.656 77.9449 150.99 78.8748 150.414 79.6478C149.55 80.8078 148.554 82.4682 148.554 82.7489C148.554 82.7855 148.651 82.8529 148.77 82.8988C149.036 83.0011 150.4 81.1193 151.353 79.3354C151.72 78.6484 152.153 77.8634 152.315 77.5911C152.763 76.8364 152.386 76.8275 151.894 77.5812ZM184.962 78.0172C184.32 78.176 182.853 78.4527 181.702 78.6321C180.552 78.8114 179.509 79.0425 179.385 79.1456C179.261 79.2486 178.825 79.8116 178.416 80.3967C177.762 81.3309 177.682 81.5309 177.76 82.0377C177.809 82.355 177.871 82.6414 177.899 82.6741C177.978 82.7683 179.617 82.0815 181.234 81.2758C183.419 80.1873 187.018 77.6907 186.362 77.7185C186.234 77.7238 185.604 77.8582 184.962 78.0172ZM160.632 78.8901C160.478 79.2155 160.288 79.8686 160.212 80.3414C160.135 80.8142 159.879 81.5895 159.642 82.0641C159.098 83.1552 158.232 83.6637 157.036 83.5958C156.353 83.5569 156.222 83.4914 155.946 83.0502C155.774 82.7742 155.596 82.5459 155.55 82.5427C155.504 82.5392 155.35 82.8523 155.208 83.2383C154.951 83.9326 154.952 83.9409 155.291 84.0194C155.916 84.1643 159.667 84.5637 160.378 84.5611C161.04 84.5586 161.105 84.5178 161.563 83.8208C161.829 83.4151 162.28 82.6615 162.564 82.1462C162.848 81.6309 163.595 80.6901 164.223 80.0553C164.852 79.4207 165.346 78.8857 165.323 78.8667C165.299 78.8476 164.509 78.7494 163.568 78.6484C162.627 78.5475 161.644 78.4274 161.385 78.3817C160.961 78.3069 160.885 78.3578 160.632 78.8901ZM171.091 79.5306C170.967 79.6809 170.681 80.0929 170.457 80.4462C170.222 80.8159 169.532 81.4554 168.831 81.9529C168.161 82.4282 167.193 83.2542 166.68 83.7886L165.746 84.7599L167.769 84.6735C169.792 84.5873 173.108 84.1559 173.336 83.9491C173.402 83.8889 173.238 83.3693 172.969 82.7945C172.646 82.1017 172.514 81.6232 172.576 81.3743C172.731 80.7566 173.466 80.0131 174.299 79.6329L175.082 79.2753L173.2 79.2664C171.591 79.2586 171.285 79.297 171.091 79.5306ZM153.376 81.401C152.457 82.9566 152.252 83.433 152.45 83.5556C152.596 83.6462 154.258 80.402 154.131 80.2745C154.1 80.2433 153.76 80.7502 153.376 81.401Z" fill="white"/>
<path fill-rule="evenodd" clip-rule="evenodd" d="M125.215 66.6261C120.449 67.0438 115.882 68.1455 112.145 69.7784C109.925 70.7482 106.49 72.6997 107.002 72.6997C107.106 72.6997 107.75 72.5568 108.431 72.3822C111.534 71.5869 116.003 71.247 120.547 71.4605C126.36 71.7337 131.125 72.4331 143.24 74.7907L147.495 75.619L147.796 74.901C148.393 73.4779 149.085 72.2379 149.822 71.2676C151.198 69.455 151.72 68.6318 151.574 68.5003C151.268 68.2244 141.227 66.957 136.65 66.6168C134.14 66.4302 127.387 66.4356 125.215 66.6261ZM202.076 67.3334C200.744 68.2041 197.657 69.6489 195.812 70.2651C193.744 70.9556 190.913 71.5477 188.497 71.7951L186.664 71.9828L186.172 72.7528C185.901 73.1764 185.251 73.8822 184.726 74.3215C182.982 75.7831 180.135 78.3705 180.2 78.4355C180.306 78.5421 184.16 77.8491 185.739 77.4394C191.523 75.9388 195.901 73.5679 200.472 69.4601C201.54 68.5007 203.17 66.7561 202.985 66.77C202.956 66.7721 202.547 67.0256 202.076 67.3334ZM159.476 71.0584C159.035 72.086 158.987 72.3335 159.077 73.1021C159.235 74.4514 159.585 74.4163 161.029 72.9063C162.288 71.5896 162.812 70.9473 162.926 70.5799C163.019 70.2806 162.934 70.2417 161.819 70.0713C159.934 69.7834 160.041 69.7379 159.476 71.0584ZM154.706 72.898C154.119 73.4017 153.79 73.8811 153.257 75.0095C152.878 75.8123 152.61 76.5111 152.661 76.5624C152.777 76.6789 152.705 76.7817 153.682 75.12C154.136 74.3471 154.751 73.4122 155.049 73.0424C155.346 72.6728 155.562 72.3424 155.528 72.3082C155.494 72.2742 155.124 72.5395 154.706 72.898ZM176.667 73.6756C176.248 74.4917 174.061 76.9206 172.907 77.8527L171.842 78.7115L173.617 78.7582L175.392 78.8048L175.826 78.2898C176.065 78.0064 176.475 77.3941 176.737 76.9291C176.999 76.464 177.591 75.5015 178.053 74.7903C178.515 74.0788 178.893 73.423 178.893 73.3326C178.893 73.2348 178.495 73.1681 177.911 73.1681C176.959 73.1681 176.92 73.1842 176.667 73.6756ZM164.657 74.5134C164.143 74.9013 163.265 75.5224 162.704 75.8936C161.95 76.3935 161.611 76.7354 161.396 77.2122C161.237 77.5662 161.139 77.8877 161.178 77.9267C161.217 77.9656 162.345 78.1205 163.685 78.271L166.121 78.5446L166.499 78.1878C166.707 77.9917 167.175 77.0907 167.539 76.1856C168.077 74.8458 168.16 74.5146 167.984 74.4031C167.695 74.2194 167.468 74.2272 167.009 74.4372C166.517 74.6625 165.914 74.5111 165.732 74.1161C165.599 73.8273 165.532 73.8518 164.657 74.5134Z" fill="white"/>
<path fill-rule="evenodd" clip-rule="evenodd" d="M124.119 55.4532C123.562 55.5698 122.244 55.81 121.189 55.9869C119.11 56.3353 118.561 56.5455 117.765 57.297C117.075 57.9483 116.806 58.4988 116.806 59.2572C116.806 60.2266 117.53 60.4805 118.653 59.9052C119.229 59.6106 119.25 59.6103 119.492 59.894C119.702 60.1401 119.821 60.1601 120.264 60.0236C121.106 59.7642 122.428 58.7806 122.955 58.0213C123.578 57.1228 123.865 57.0901 125.879 57.6896C126.751 57.949 127.982 58.2374 128.614 58.3304C129.247 58.4235 129.867 58.5567 129.991 58.6265C130.115 58.6963 130.508 59.1424 130.863 59.6179C131.218 60.0935 131.947 60.8534 132.482 61.3065C133.017 61.7595 133.454 62.1783 133.454 62.2369C133.454 62.2955 133.268 62.4283 133.041 62.5322C132.397 62.8267 128.692 65.3931 127.75 66.1975C127.736 66.2096 129.451 66.2275 131.562 66.2378C135.714 66.2578 139.526 66.5391 144.798 67.2141L148.129 67.6406L148.56 67.2769C149.184 66.7499 149.543 65.7022 149.408 64.8011C149.187 63.3172 147.572 62.2613 145.994 62.5683C145.643 62.6365 145.021 62.6952 144.61 62.699C143.687 62.7074 143.05 63.0239 142.682 63.6571C142.355 64.22 141.074 64.9365 140.658 64.7894C139.855 64.5052 139.055 63.2926 139.055 62.359C139.055 61.1649 137.972 60.0837 135.94 59.25C135.144 58.9232 134.244 58.3667 133.279 57.6034C131.414 56.1288 130.608 55.7425 128.786 55.4496C127.016 55.1648 125.489 55.1658 124.119 55.4532Z" fill="white"/>
<path fill-rule="evenodd" clip-rule="evenodd" d="M166.528 40.3043C165.21 41.0975 164.614 42.3883 164.872 43.8919C164.982 44.531 164.976 44.8005 164.852 44.8438C164.757 44.8771 164.153 45.0112 163.512 45.1419C162.085 45.4323 160.559 46.1622 160.01 46.8162C159.786 47.0843 159.353 47.8023 159.048 48.4117C158.744 49.0212 158.227 49.9836 157.898 50.5505C157.57 51.1174 157.017 52.2387 156.67 53.0423C156.323 53.8457 155.722 54.9078 155.335 55.4025C154.424 56.5665 154.037 57.4423 153.185 60.2787C152.519 62.4932 152.448 62.6439 151.708 63.4017C151.171 63.9523 150.899 64.376 150.827 64.7743C150.734 65.2871 150.788 65.4305 151.321 66.0776C151.651 66.4775 152.085 66.8693 152.287 66.9481C152.59 67.0668 152.635 67.1655 152.55 67.5187C152.349 68.3588 151.567 69.8343 150.871 70.6867C149.095 72.8632 148.381 74.3675 146.866 79.1227C145.654 82.9269 145.102 84.0232 143.705 85.3995L142.631 86.4572L142.997 87.6481L143.363 88.8391L144.296 89.1422C144.81 89.309 145.361 89.5865 145.522 89.7587C145.881 90.1427 145.787 90.2701 147.179 87.5106C148.128 85.6311 148.725 84.8302 148.983 85.09C149.098 85.2051 148.365 87.0074 147.321 89.1766C146.322 91.2528 146.331 91.2172 146.37 93.2425C146.377 93.586 146.368 94.2887 146.351 94.804C146.321 95.6672 146.346 95.7448 146.668 95.7907C146.9 95.8238 147.163 95.68 147.453 95.361C147.949 94.8169 150.116 91.2042 151.938 87.8844L153.165 85.6494L153.828 85.7345L154.49 85.8196L154.403 85.2368C154.335 84.7871 154.441 84.3525 154.868 83.3327C155.172 82.6058 155.421 81.9911 155.421 81.9664C155.421 81.9416 155.485 81.9214 155.563 81.9214C155.641 81.9214 155.855 82.2329 156.038 82.6136C156.423 83.4122 156.898 83.6004 157.866 83.3388C158.929 83.0515 159.631 82.0304 159.86 80.438C159.975 79.6414 160.847 77.5029 161.372 76.7311C161.532 76.4957 162.188 75.9494 162.83 75.5167C163.472 75.0841 164.5 74.3455 165.114 73.8755C166.404 72.8891 166.755 72.7812 166.394 73.4814C166.056 74.1371 166.095 74.2699 166.623 74.2699C166.88 74.2699 167.09 74.192 167.09 74.0969C167.09 73.9366 167.398 73.9661 168.198 74.2033C168.368 74.2539 168.513 74.1242 168.646 73.8026C168.754 73.5412 169.119 72.9309 169.457 72.4465L170.071 71.5657L169.81 70.9843C169.614 70.547 169.59 70.3268 169.714 70.0946C169.829 69.8772 169.829 69.6064 169.711 69.1783C169.4 68.0477 169.625 66.6998 170.453 64.7446C171.198 62.9842 171.212 62.9181 171.201 61.3874C171.195 60.5285 171.097 59.4042 170.983 58.8889C170.779 57.9631 170.775 57.9581 170.64 58.4595C170.566 58.7386 170.438 58.967 170.357 58.967C170.16 58.967 169.796 58.366 169.674 57.8397C169.579 57.4286 169.66 57.3297 170.478 56.8505C170.501 56.8368 170.326 56.3204 170.089 55.703C169.776 54.8877 169.594 54.6002 169.424 54.653C167.726 55.1825 166.888 55.3718 165.837 55.4637L164.587 55.5732L163.454 56.8516C161.352 59.2225 160.831 60.21 160.576 62.3032C160.485 63.0445 160.326 63.809 160.221 64.0025C160.117 64.1959 159.991 64.598 159.941 64.8958C159.831 65.5605 159.099 66.0841 158.842 65.6816C158.76 65.5527 158.692 65.1839 158.691 64.8618C158.689 64.5398 158.628 64.2762 158.553 64.2762C158.479 64.2762 157.871 64.7009 157.201 65.2201C155.832 66.2818 155.372 66.3727 155.297 65.5961C155.241 65.0284 156.335 62.8507 157.449 61.3093C158.304 60.1258 158.538 59.6884 159.067 58.277C159.648 56.7268 160.629 54.9241 161.345 54.0868C162.351 52.9117 165.553 51.2386 167.393 50.9267C167.746 50.8668 168.424 50.5827 168.899 50.2954C169.719 49.7996 171.145 49.4553 171.639 49.6338C171.747 49.673 172.396 49.6257 173.08 49.5287L174.324 49.3521L173.041 48.113C171.587 46.7089 171.459 46.3174 172.147 45.3817C172.664 44.678 172.672 43.5738 172.168 42.4865C171.621 41.3087 170.614 40.5504 169.035 40.1282C167.899 39.8243 167.25 39.8699 166.528 40.3043ZM161.645 52.7871C161.645 53.0712 161.511 53.4742 161.347 53.6828C161.012 54.1105 159.995 54.7092 159.851 54.564C159.597 54.3093 161.204 51.9975 161.505 52.1841C161.582 52.2318 161.645 52.5032 161.645 52.7871ZM163.541 62.3522C163.686 62.4831 163.915 62.9167 164.05 63.316C164.379 64.2884 165.117 65.3469 165.852 65.9013C166.497 66.3877 166.743 66.7746 166.407 66.7746C166.138 66.7746 164.769 66.0381 163.331 65.1207C162.703 64.7198 162.033 64.2946 161.842 64.1758L161.494 63.9598L161.995 62.9394C162.453 62.0084 162.531 61.9273 162.888 62.0165C163.102 62.0704 163.397 62.2214 163.541 62.3522ZM164.242 66.9364C164.953 67.2818 165.534 67.6528 165.534 67.7609C165.534 67.8691 165.189 68.2991 164.766 68.7167C164.344 69.1344 163.774 69.9333 163.5 70.492C162.796 71.9264 160.588 74.3569 159.764 74.6049C159.367 74.7242 159.091 74.7368 158.995 74.6403C158.913 74.5577 158.801 73.9636 158.747 73.3202C158.637 72.0128 158.626 72.0434 160.648 67.9689L161.566 66.1182L162.257 66.2133C162.638 66.2656 163.531 66.591 164.242 66.9364ZM157.593 69.5198C156.786 71.1104 155.877 72.742 155.575 73.1456C154.725 74.2799 153.885 75.6745 152.312 78.5641C151.049 80.8844 150.197 82.2553 149.353 83.3269C149.225 83.49 148.857 83.6697 148.536 83.7267C148.018 83.8185 147.953 83.7943 147.953 83.5087C147.953 82.9467 149.088 80.9631 150.424 79.1887C151.237 78.1099 152.058 76.7742 152.633 75.5972C153.66 73.4909 153.745 73.3733 154.997 72.3241C155.786 71.6622 156.022 71.3171 156.94 69.4765C157.894 67.5649 158.755 66.3215 158.975 66.5413C159.022 66.589 158.4 67.9294 157.593 69.5198ZM156.03 76.9636C154.539 80.781 152.889 84.2637 152.572 84.2637C152.272 84.2637 151.998 83.9308 151.998 83.5663C151.998 83.3889 152.611 82.2058 153.359 80.9372C154.108 79.6684 154.859 78.3696 155.028 78.0507C155.862 76.4775 156.068 76.1438 156.203 76.1438C156.284 76.1438 156.206 76.5128 156.03 76.9636ZM152.254 84.657C152.369 84.9573 150.256 89.2396 149.174 90.9002C147.758 93.074 148.023 91.9778 150.023 87.3867C151.064 84.9981 151.964 83.8974 152.254 84.657Z" fill="white"/>
<path fill-rule="evenodd" clip-rule="evenodd" d="M175.724 43.4244C173.964 44.0542 173.471 45.8377 174.459 48.0036C175.24 49.7169 175.092 49.8434 172.094 50.0193L169.731 50.1582L168.893 50.7369C168.362 51.1044 167.877 51.3156 167.565 51.3156C166.685 51.3156 163.631 52.6479 162.416 53.5615C161.577 54.1928 160.588 55.644 159.904 57.2494C158.731 59.9997 158.435 60.5813 157.679 61.6107C156.719 62.9203 155.435 65.4706 155.638 65.6668C155.731 65.7567 156.279 65.438 157.092 64.8223C158.873 63.4717 159.269 63.4036 159.073 64.4816C158.96 65.097 159.203 65.5777 159.441 65.2131C159.525 65.0843 159.595 64.8173 159.597 64.6197C159.598 64.4224 159.703 64.0598 159.829 63.8142C159.956 63.5685 160.126 62.7775 160.208 62.0564C160.29 61.3352 160.446 60.5384 160.555 60.2856C161.082 59.0671 163.539 55.9022 164.398 55.3373C164.675 55.1544 165.119 55.0649 165.745 55.0651C166.282 55.0653 167.289 54.8918 168.117 54.6569C168.908 54.4322 169.647 54.2837 169.759 54.3267C170.098 54.4575 170.926 56.824 171.278 58.6678C171.792 61.3658 171.685 62.6419 170.754 64.9292C170.346 65.9327 169.971 67.0979 169.921 67.5187C169.826 68.3263 170.17 69.8424 170.582 70.4331C170.918 70.9147 170.855 71.1618 170.162 72.088C169.401 73.1041 168.582 74.7178 167.762 76.8168C167.173 78.3245 167.146 78.3612 166.07 79.1463C164.642 80.1891 163.645 81.2016 163.104 82.1608C162.205 83.7509 161.43 84.8774 160.643 85.7361C159.893 86.5542 159.763 86.6307 158.899 86.7656C157.938 86.9155 157.421 87.2921 157.421 87.8423C157.421 87.9878 157.573 88.5582 157.758 89.1098C158.072 90.0406 158.083 90.2195 157.919 91.5994C157.822 92.4172 157.785 93.2851 157.836 93.5282C157.945 94.0467 158.904 95.0382 159.297 95.0382C159.67 95.0382 159.91 94.269 159.91 93.0732C159.91 91.8484 160.062 91.443 160.763 90.7917C161.289 90.3034 161.309 90.2492 161.132 89.7857C160.953 89.3176 160.98 89.2514 161.751 88.279C162.194 87.7195 163.134 86.7501 163.84 86.1246C164.545 85.4992 165.718 84.4066 166.445 83.6967C167.173 82.9869 168.22 82.0687 168.774 81.6563C169.349 81.2276 170.061 80.5023 170.435 79.9631C170.796 79.4442 171.673 78.5375 172.385 77.9481C173.097 77.3588 174.135 76.327 174.691 75.6552C175.248 74.9834 175.754 74.4321 175.816 74.43C175.879 74.4278 176.071 74.1474 176.245 73.8067C176.651 73.0081 176.943 72.8646 178.163 72.8646C179.555 72.8646 179.649 73.0331 178.926 74.2394C176.248 78.7084 175.328 79.9433 174.56 80.0974C174.311 80.1474 173.854 80.4283 173.544 80.7219C172.89 81.341 172.83 81.795 173.285 82.6894C173.452 83.019 173.709 83.769 173.856 84.3559C174.189 85.6867 174.933 86.5546 176.334 87.2467C177.469 87.8074 177.724 87.7447 177.589 86.937C177.087 83.9221 177.071 83.7214 177.277 83.1262C177.39 82.801 177.441 82.3291 177.391 82.0773C177.291 81.5745 177.58 80.982 178.558 79.6849C178.87 79.2706 180.585 77.628 182.368 76.0346C184.152 74.4411 185.745 72.918 185.908 72.6497C186.849 71.1007 186.176 69.8073 183.893 68.7793C183.335 68.5279 182.489 68.0866 182.013 67.7987C181.538 67.5108 180.604 67.0824 179.938 66.847C179.273 66.6115 178.692 66.3598 178.648 66.2878C178.603 66.2156 178.964 64.6268 179.449 62.757C179.934 60.8872 180.461 58.7953 180.62 58.1082C181.053 56.2453 181.149 55.948 181.338 55.8846C181.433 55.8527 181.82 56.3049 182.198 56.8894C183.172 58.3966 184.781 60.2041 185.258 60.3263C186.499 60.6444 186.827 60.2002 186.827 58.208C186.827 56.8648 186.778 56.5979 186.367 55.7267C185.764 54.4467 185.272 52.7654 185.272 51.9842C185.272 51.5749 185.406 51.1605 185.661 50.7839C186.167 50.0351 186.152 49.7867 185.544 48.8738C184.876 47.8718 184.547 47.8763 183.99 48.8952C183.252 50.2445 183.19 50.6984 183.552 52.1005C184.103 54.2334 183.873 54.6425 183.071 52.9575C182.536 51.8334 181.642 51.0876 180.62 50.9133C178.963 50.6307 178.469 50.3465 179.332 50.1733C179.714 50.0965 179.798 49.9758 179.972 49.2453C180.201 48.2893 180.216 47.4627 180.031 46.0064C179.866 44.708 179.129 43.5887 178.283 43.3527C177.513 43.1382 176.44 43.1682 175.724 43.4244Z" fill="white"/>
</svg>
